<?xml version="1.0" encoding="utf-8"?>
<!-- Generator: Adobe Illustrator 23.0.4, SVG Export Plug-In . SVG Version: 6.00 Build 0)  -->
<svg version="1.1" id="foxrabbit_Image" xmlns="http://www.w3.org/2000/svg" xmlns:xlink="http://www.w3.org/1999/xlink" x="0px"
	 y="0px" viewBox="0 0 1304.8 308" style="enable-background:new 0 0 1304.8 308;" xml:space="preserve">
<style type="text/css">
	.st0{fill:#FFFFFF;}
</style>
<title>foxrabbit</title>
<rect x="-26.2" class="st0" width="1331" height="308"/>
<path d="M754.8,136l-6.6,7.3c-1.2-4.5,0.2-8.2,2-12.8c-1,0.6-2,1.1-3.1,1.4c-0.7,0.1-1.4,0.1-2.1,0c0.9,4.5,2.4,8.6,1.3,12.9
	c-0.3-2.3-1.6-4.2-1.7-6.6s-1.2-4.7-2-7.2H740c-0.1,0.4-0.2,0.9-0.2,1.4c0.6,2.2,1,4.6,2.1,6.6s0.7,3.7,1,6.1c-6-4.7-13-6.9-17.1-13
	l-5,1.2l7.1,5.9l-0.3,0.6c-0.7-0.3-1.5-0.6-2.2-0.8c-3-1.2-5.8-2.9-8.2-5.1c-5.1-0.4-9.3,2.3-14.4,5.4c7.2,1.6,14-1,20.3,2
	c-5.8,0.9-9.5,0.8-12.3-0.5c-1.5,0.9-3,1.9-4.5,0.2l-5.8,1.1c-1.2,1.2-2.4,2.4-4,4c1.2-0.5,2-0.5,2.4-1c1.7-1.7,4.1-2.6,6.6-2.3
	c3,0.2,6.2-0.4,9.1,1c0.9,0.4,1.6,1.1,2.1,1.9c-1.5-0.3-2.9-0.7-4.4-0.9s-3,0.5-3.9-0.8l-7.5,1.1l-1.5,2.4c2.4-0.3,4.4-0.6,6.3-0.7
	c2-0.2,4,0,5.9,0.6l-16.1,3.3l2.4-2.8c-2.4-0.4-2.9,1.5-4,2.2v10.5c4.1-1.8,7.6-4.9,12.5-3.7l0.5,1.6h-6.8l0.1,0.6l-7.5,3.5
	c0,0.2,0.1,0.8,0.3,1.8c3.2-2,6.2-3,9.9-2.2c-0.9,0.7-1.5,1.2-2.2,1.8c-2.4,0.5-5.1,0.1-7.1,2.7c3.2,0.9,4.8-1.6,7.1-2.7
	c1.6-0.1,3.3-0.1,4.9-0.1l0.6,0.9c-0.6,0.3-1.1,0.6-1.7,0.8c-3,1.2-6,2.3-9.1,3.2c-2.5,0.5-4.6,2.2-5.5,4.5c-0.8,1.7-1,3.8-2.2,5
	c-1.6,1.5-0.7,3.4-1.4,5c-0.9,2-0.2,4.8,0,7.3c0.8-2.3,2.3-4.4,1.5-6.8c4.6-5.2,8.1-11.1,14.5-14c0.3,0.3,0.5,0.4,0.6,0.6
	c0.1,0.6,0.1,1.3,0.1,2.2l-9.8,9.8c1-0.2,1.9-0.6,2.8-1c1.5-1,2.3-3.2,5.5-3.5c-3.7,3.7-6.7,6.8-9.8,9.8c-1.5,1.5-2.7,3.1-2.8,5.3
	c-1.5,0.1-0.8,1.2-1,2l-1,0.8l1,1.2l2.9,4.7c2.7,0.5,4.7,1.1,6.7,1.3c2.2,0.2,4.3,0.2,6.5,0c1.9,0,3.8-0.3,5.6-0.7
	c2.2-0.6,4.8,0.7,7.3,1.3c0.8,0.2,1.5,0.4,2.8,0.8c4,3.7,7,8.4,8.6,13.7c0.6,2.1,0.9,4.3,0.7,6.4c-0.2,1.8-0.2,3.7,0,5.5
	c0.3,1.8,0.8,3.5,1.3,5.2c0.4-0.9,0.7-1.5,1-2.1c2.7,0.1,4.2,2.1,5.9,3.8c3.7,0.6,7.5-0.1,10.8-2c2.3,3,4.8-0.3,7.4,0.1
	c4.8-4,6.3-9.3,6.5-15.2c0.1-4.1,0-4.1,2.1-7.7c-0.7-1.1-1.5-2.2-2.4-3.5c2.5-0.1,2.5-0.1,4.3,3.8c-1,5.6-3.1,11-3,16.7
	c-1.9,0.5-0.6,2-1,3c-2.8,2.1-5.1,4.8-9.3,6c-3.7-0.4-7.5,0.5-10.7,2.5c-2.6,1.5-4.5-0.2-6.6-1.4l-0.6,1.4l7.8,3.2l9.2,1.3l0.4,0.7
	l-1.9,0.5c-5.7,0.8-12,1.7-19-2.2l-5.2-5.8c-0.5-7.2,1.1-14-2.4-20.4c-2.2,0.9-4.1,2.2-6.4,0.4c-1-0.8-2.9-0.2-4.2-0.6
	c-4-1.2-7.9-2.5-11.9-3.9c-0.6-0.2-1.2-0.7-1.7-0.6c-4.3,0.4-8.1-1.2-11.6-3.2c-3.9,2.8-6.1,7.5-5.8,12.3c2,4.7,6.1,6.7,9.8,9.1
	c2.5,1.6,4.9,3.4,7.2,5.3c-3.8-0.3-7-2.5-10.8-3.3c0.2,3.5,2.7,5.4,5.6,6.6c1.2,0.5,2.9-0.3,4,1.1c4.5-0.4,8.8,1.4,13.2,1.9
	c3.6,0.4,7.3,0.1,11,0.1h3.9c-3.2,1.3-6.4,2.4-9.9,2s-7.2,0.6-11.1-0.8c-3.5,1.4-5.3,1.2-9.3-1.2c-2.8,0-5.6,0.2-8.4-0.1
	c-2.5-0.2-5-0.8-8.2-1.3l-1.4-1.9l-4.2,2.2c-2.6,0.3-5.2,0-7.7-0.9c-2.4-1.1-5.2-1.1-7.6-0.1c-2.1,1-4.3,0.4-6.1-0.2
	c-1.5-0.4-3.1-0.7-4.7-0.8c-1.4-0.2-2.7-0.9-4.1-0.9c-4.4-0.2-8.7,0.2-13.1-0.9c-2-0.5-4.3,0.7-6.5,0.8s-4.6,0-6.8,0
	c-2.4,1.4-1.3,3.6-1.6,5.4c-2.4,3-5.9,5-7.6,8.9c-1.2-1.6-2.3-3.2-3.7-5c-0.8,0-1.6-0.1-2.5-0.2c-1-0.3-2-0.7-2.9-1.1
	c-1.8,3.1-3.7,6.1-5.8,9.7l-3.5-6.1l-3.4-1c-1,1-2.1,2.1-3.5,3.5l0.9,4l-3.8-4h-6.6l-8.8-7.2v-3.9c-0.8-1.1-1.5-2.1-3-4.1l4.6,1.4
	c1.2,7.7,7.8,9.3,13.8,12.1l3.8-5.1l-1.8-2.1c-0.3,0.8-0.5,1.4-0.7,2l-3.7-4.9c-0.3-1.2-0.7-2.4-1.1-3.9l2.3,1.1l1.3-1.1l2.5,2.5v2
	l1.7,1.7c0.1-1.3,0.3-2.4,0.3-3.2l-8-11.8c2.3-0.9,3.6,0.8,5,1.3l4.9,8.2v7.6l6.1,3.7l3.9-2.7c0.9-1.6-0.5-3.4-1.4-5.2
	c-0.7-1.3-0.8-3.3-3.2-3.1c0.2,1.2,0.5,2.5,0.8,4.4c-3.3-2.5-4.4-5.5-5.7-8.6l4.3,2.6c-0.1-1.2,0-1.9-0.3-2.4c-0.9-1.1-1.9-2.1-3-3
	c4,1,4,1,8,5c0.5,2.5,1,4.7,1.6,7.7l1.6-2.8c-0.3-1.2-0.6-2.4-1-3.6c-1.4-3.6-3.1-5.9-7.4-8.2c-1.6-0.8-2.4-2-4.4-3.4l3.6-1.4l5,2.4
	l1.4-0.9l2.2,1.8l-2,0.7c3,4.9,7.8,9.3,4.6,16c2.3,2.7,5.5,3,8.6,3.9l2.3-2.9c-2.6-2.5,0.8-5.4,0.1-9.1l-1.3,2.9l-2.9-4.1l-0.5,0.2
	l1,3.5l-0.7,0.3c-1.5-2.5-3-5-4.5-7.6c2.1,1.6,4.5,2.7,7,3.4c-0.2-0.8-0.4-1.6-0.6-2.5l1.9-0.9c-1.4-3.6-5.2-4.3-7.9-6.6
	c-0.2,0.7-0.3,1.1-0.4,1.9l-2.4,0.3c-2.5-4.2-7.4-4.1-11.3-6c-2.4-1.1-5.3,0-7.5,1c-4.1,1.9-8.3,3.8-11.5,7.2
	c-0.9,0.7-1.8,1.3-2.7,1.8c-1.7,1.3-3.8,2-4.7,4.5c-0.6,1.5-2.8,2.4-4.1,3.4c-1.3-0.5-2.6-0.8-3.9-1c-3.8-0.1-7.7,0-11.5-0.1
	c-2.4-0.1-4.7,0.2-7.2-0.8c-1.7-0.7-4.1-0.1-6.2,0.3c-3.2,0.5-6.4,0.6-9.7,0.1c-1-0.2-2.1-0.4-3.1-0.5c-15.7,0-31.3,0-47,0
	c-8.8,1.9-17.8,0-26.5,1.2c-9.9,1.3-19.8-0.2-29.6,1c-8.9,1.1-17.7,0.6-26.6,0.8s-18,0-27,0.1c-1.2,0-2.4-0.3-3.7,0.7
	c-1.2,0.7-2.6,0.7-3.8,0.2c-2-1.4-4.1-0.7-6.2-0.9c-25.7-1.9-51.4-0.8-77-1s-51.6,0-77.5,0c-14.5,1.9-29,0.8-43.6,1s-29,0-43.5,0
	h-44c-9.6,1.9-19.4,0.8-29.1,1s-19.3,0-29,0c-4.9,0-9.6-1.5-14.6-1.1c-4.8,0.4-9.7,0.1-14.5,0.1v-2c21.3,0,42.7,0,64,0
	c4.9,0,9.6-1.5,14.6-1.1s9.8,0.8,14.5-0.1c8.2-1.5,16.4-0.8,24.6-0.8c40.3-0.1,80.6-0.1,121-0.1c4.9,0,9.6,1.6,14.6,1
	c0.9-0.1,1.7-0.1,2.6,0v-2.7l2.1-0.4c-0.4,1.1-0.7,1.8-1.2,2.9h5.1c0.7-8.6-1.2-17.3,1.9-25.7c-5.2,5.4-9.8,11.3-13.7,17.7v3.4
	l-2.4,2.6h-3.8c0.1-0.7,0.1-1.2,0.4-1.5c0.9-1,1.9-1.9,2.5-2.6l1.4-5.4l-1.7-0.3c-1.6-4-1.1-8.5-3.4-12.5c-2.1-3.6-2.7-7.9-5.6-11.9
	c-0.5,2.5-0.4,4.8-1.9,6.4s-3.1,2.7-4.6,4c-4.8,0.3-9-0.7-13.4-1.7c-4.2-0.9-8.6-2.1-13.2-1l-3,3l-8.9-1.1l-5.4-6.8
	c-0.5-10.4,4.6-18.2,12.4-25.2h-8.8l-7.7,4.8c-2.2,0.5-5.3-0.9-7.9,1c-2.2-0.5-4.4,0.6-6.7-0.8c-1.4-0.9-3.9-0.2-6.3-0.2
	c-1.8-1.6-3.9-3.4-5.6-4.9l-1.4-4.6c0-0.4,0.1-0.8,0.3-1.2c0.9-1.8,1.8-3.6,2.8-5.4c0.7-1.1,1-2.3,1.1-3.6c0-3.7,1.4-7.2,3.9-9.9
	c1.7-2,3.2-4.1,4.6-6.3h8.8c3.9,2.7,7.7,5.3,11.4,7.9c5.6,3.8,12.4,5.5,19.2,4.9c1.3-3.9,2.6-7.9,4.1-11.8c0.7-1.9,1.7-3.7,3-5.2
	c2.1-2.5,4.5-4.7,6.9-6.9c3.5-3.4,7.8-3.3,12.8-2.9c0.6,0.8,1.8,1.8,2.2,3c1.5,4.4,5.2,6.1,8.9,6.7c4,0.5,7.5,3,9.2,6.7
	c0.5,0.7,1.1,1.3,1.8,1.9v6.4l-7.2,6.1c-4.7-0.1-9,1.8-13.5,3.1s-8.9,2.4-13.6,5.8c3.2-4.2,3.2-4.2,8.7-6.9l1.2,0.9
	c6.7-4.6,15.7-5,21.5-11.4v-4c-1.7-1.5-2.7-3.8-4.9-4.9c-1.2-0.6-2.5-1.2-3.9-1.6c-3.9-1-7.5-2.4-9.3-6.5c-0.7-1.3-1.6-2.4-2.7-3.5
	H200c-10.7,5.6-13.7,16-17.7,26.1c-1.7,0.5-3.3,3.4-6,0.9c-0.2-0.2-0.6-0.1-1,0c-5.8,0.7-10.5-2.1-14.9-5.1
	c-4.6-3.3-9.5-6.3-14.5-8.9c-5.8,2.3-8.6,7.4-11.1,13.1c2.1,2.4,0.8,4.7-0.7,7.1c-1.3,2.1-2.5,4.3-3.8,6.5l4.4,5.2
	c4.7,1.8,9.7,2.5,14.7,2.1c3.8-0.2,7.4-1.4,10.6-3.4c3.4-2.2,7.2-4.4,11.2-5.4c2.6-0.6,5.5-0.1,8.5-0.1v3.8c-9.9,5.5-16,13.7-17,25
	c1.5,3,4,5.5,7,7h4.6l6.2-3.9c1,0.5,2.1,0.8,3.3,0.9c3.3-0.1,6.2,1,9.3,1.8c3.5,0.7,7.1,1.2,10.7,1.6l4.2-4.6
	c0.4-1.1-1.2-3.3,0.6-5.2c0.4-0.4-0.2-1.8-0.5-2.6c-2-5.6-5.7-10.1-9.5-14.6c-1.7-2-3.3-4.2-5.3-6.8c1.1-0.2,1.8-0.4,2.1-0.9
	c3.7,5,7,9.7,10.7,14.1c2.4,2.7,4.4,5.7,6,9c2.1,4.8,4.5,9.5,6.8,14.2c1.3,2.7,2.7,5.4,2.2,7.2l1.1,3.1c0.4-3.2-0.1-6.5-1.4-9.5
	c-1-2.7-2.5-5.4-2.9-8.2c-0.4-3.4-2.8-5.6-4.2-8.2s-2.8-5.6-5-7.9c-2.1-2.1-3.4-5-5.4-7.2s-4.1-5.1-7.8-6.4c0.7-0.3,1.3-0.8,1.7-1.6
	c7.4,6.2,13.6,13.7,18.4,22.1c4.4,7.9,7.4,16.4,10,25.8c1.9-3.4,4.5-5.1,5.4-8c2.9-1.5,4.1-4.6,6-7l-2.6-4.4l-4.3,9.9
	c0.3,0.5,0.6,1,0.9,1.5h-1.7c-0.2-0.5-0.4-1.1-0.7-2l-2.8,2.3c-2.4-2.3,0.6-3.9,0.2-6c-0.3-1.7,0.7-3.7,1.2-6.1c1.2-0.8,2-3,4.5-3.4
	v-6.1l4.1-4.1c-0.1-1.5-0.1-2.9,0-4.4c0.4-1.4,0.9-2.8,1.5-4.1l2-2h3l2.7,2.9h5.1c5.6,4.8,13.8,5.7,18.5,13c1,3.3,2.6,6.5,4.7,9.2
	c2.2,3.1,4,6.4,6.5,10.3c-0.4,1.7-0.8,3.4-1,5.1c-0.2,2.2-0.1,4.3,0.3,6.5c4.3-7.1,11.2-11.6,16.8-17.7v-4.2l1.7-0.1
	c0.1,1,0.3,1.9,0.4,2.9c0.6-0.1,1.2,0.1,1.4-0.2c1.1-1,2.1-2.1,3.3-3.3c0.3-4.6-3.6-7.4-5.3-11.3H294c-2.4,2.8-2.8,7.3-7,9.8
	l-2.8,0.1c-1.6,1.6-1.9,4.5-0.7,7.1c0.8,1.8,1.5,3.7,2.3,5.6c0.1,0.2-0.1,0.6-0.3,1.6c-1-1.6-2.4-2-2.8-3.8
	c-0.4-1.4-1.8-2.6-2.8-3.9v-5.1c1.6-1.8,3.3-3.6,6.4-3.5c1.8-3.3,3.6-6.7,5.4-10h6.5c2.9,1.7,3.3,5.3,5.8,8.6
	c-0.6-3.3,0.8-6-1.2-8.3c-0.2-0.2-0.1-0.6,0-1c0.7-4.9-1.3-9.7-1.1-14.6c0.1-1.7-0.7-3.4-0.9-5.1s0.2-3.7-0.1-5.5
	c-0.4-1.6-1.1-3.2-1.9-4.7c-0.4-0.8-0.9-1.5-1.4-2.3l-6.5,0.9l-4.5-2.5c-2,2.2-3.9,4.3-5.7,6.2c0,3.4-0.1,6.4,0,9.4
	c0.2,2.6-0.8,5.1-2.7,6.9c-1.9,1.9-4,3.2-6.8,2.8c-0.3,0-0.7,0-1,0l-1.6-1.6c3.1-1.1,6.5-1.3,9.1-3.9c0-3,0.2-6.1,0-9.2
	s2-5.6,2.1-8.7c3.2-4.1,7.7-6.6,12.1-9.1c2.4-1.6,5.2-2.4,8-2.4c0.5,0,1.2,0.1,1.4-0.1c2.4-2.3,4.3-0.1,7.1,0.5
	c-6.9,1.2-13.5,3.5-19.5,6.9l3.8,2.8c2.3-1.7,4.8-3.3,7.3-4.7c3.4-1.7,7.1-3,10.7-4.4c0.4-0.2,1.3-0.2,1.5,0
	c1.2,1.7,3.1,0.4,5.1,1.6l-4.4,2v3.6l-8.2,2.3c0.8,2.7,1.6,5.5,2.5,8.2c0.5,1.5,1.4,2.8,1.7,4.3c0.6,2.8,0.9,5.7,1,8.6
	c0,5.4,1.8,10.7,1.1,16.1c-0.1,1-0.1,2,0,3l-2,0.4c-0.1-2.5-0.1-5,0.1-7.4c0.4-3.5-1.2-6.7-1-10.1s-1-6.4-1.2-9.6
	c-0.2-2.2-1.1-4.2-2.4-5.9c-0.8-1,0.6-2.9-1.4-3.1c-0.1-0.8,0.5-1.9-1.4-2h0.5c-0.1-0.6-0.3-1.3-0.4-1.9l-0.6,0.1
	c0,0.7,0.2,1.3,0.5,1.9c0.5,0.8-0.1,1.9,1.4,2c0.3,5.4-0.1,10.9,1.2,16c1.8,7.2,1.8,14.4,1.8,21.7c-0.1,1.1-0.3,2.3-0.7,3.4
	c4.5-0.4,7.4-3.2,9.8-6.7c0.1-0.1,0.2-0.3,0.4-0.3c0.7,0,1.3,0,2.2,0l1.9,3.1h4c2.2,2.8,3.4,6.2,3.4,9.7l3.9,3.8v7
	c-2.3,2.2-4.2,5-9,4.4l5.3,2.7l10.3,1.3l5.4,5.5v5.3h-2.5l-1.3-6.3l-4.6-2.2l-10.3-1.5l-2.7-3.4c-0.4,2.8-2.6,4.2-2.4,6.6l-2.2,2.8
	l3.4,2.5l-0.5,0.7l-2.4-0.8l-1.2,1.2v2.7h4.5c13.7,0,27.3-0.1,41,0.1c6.2,0.1,12.3-1.5,18.6-1.1s12.4,0.8,18.5-0.1
	c9.2-1.4,18.5,0.1,27.6-1c13.2-1.6,26.4-0.4,39.6-0.9c6.9-2,14-0.6,21.1-1c4.6,1.6,9.4,0.9,14.1,1s9.3,0.1,14,0
	c2.9-0.1,5.7-0.8,8.6-0.9s5.7,0.1,8.5-0.1c3.9-0.2,7.7,0.7,11.6,1s7.7,0,11.5,0.1c1.4,0.2,2.7,0.5,4,1c1.8-0.9,2.2-2.9,4-3.9
	s3.1-3,4.7-4.5c1.4-1.3,2.8-2.6,4.3-3.7c1.7-1.1,3.4-2.1,5.2-3c1.6-0.9,3.3-1.6,4.9-2.6c2-0.9,4.4,0.4,6.5-1.3
	c0.6-0.5,2.2,0,3.2,0.5c2.3,1.2,5,1.7,7.1,3.4c2.7,2.1,6.1,2.2,9.6,3.3c4.5,3.5,6.7,8,6.4,12.4c0.1,0.1,0.2,0.3,0.3,0.3
	c0.7,0,1.3,0,2.3,0l8.9-10.1l1.7,0.6l-7.1,8.5h16.5c3.6,0,7.2-0.4,10.6,1c3,1.2,6,0.9,9.1,1c3.5,0,6.9,0,11,0l-5.2-5.3
	c0.7-0.3,1.4-0.5,2.1-0.7c1.8,3.2,5.2,3.9,8.3,5.1c0.3,0.1,0.5,0.4,0.7,0.7c1.9-1.3,4.3-1.5,6.4-0.5c2.2,1,4.1,0.3,6.5,0.8
	c-0.9-3.3-3.6-4.4-5.2-6.7v-2.8c-1.1-0.9-2.3-1.8-2.7-2.2c-1.8-8,2.4-13,5.9-18.4h4.1c2.7,1.4,5.5,2.6,8.4,3.4
	c1.8,0.6,4-0.6,5.5,1.2c4.9,1,9.6,2.4,14.3,4.1c2.2,0.7,4.5,0.2,6.3-1.2c-1.2-3.5-3.5-6.4-6.6-8.5c-6.5-1.1-13.5-2-21.3-0.2
	c-5.3-1.8-9.4-5.7-12-12.1c0-2.6,0-5.9,0-9.2c-0.1-2.1,0.2-4.2,1-6.1c1.7-3.6,3.1-7.4,4.8-11c0.4-2.4,0.1-4.8-0.7-7
	c-1.6-4.7-1.2-6.8-0.2-13.2c0.3-2.2,0.8-4.4,1.2-6.6c0-0.3,0.6-0.5,1-0.8c-0.4,6.5-0.8,13-1.2,19.6l1.5,0.5c0.3-0.3,0.7-0.5,0.7-0.7
	c0-3.5,0-7,0-10.5c2.6-4.4,6.5-7.7,10-11.4s7.3-6.5,12.4-7.5c0.9-0.3,1.7-0.8,2.5-1.3c2.2-0.9,4.3-1.8,6.8-1.7c3.7,0.1,7.3,0,11,0
	c3.1,0,6-1.7,9.1-1c3.5,0.8,7.2,0.7,10.8,1.8c2.1,0.6,4.6,0.2,6.9,0.2c4.5-0.1,8.7,1.4,12.7,3c1.8,0.7,3.4,1.8,4.7,3.2
	c2.6,2.7,5.5,5.2,8,7.9c0.5,1.1,1.1,2.2,1.8,3.2c0.8-2.3-0.5-2.8-1.8-3.2c0.6-1.7-0.7-2.8-1.3-4c-1.3-2.6-3-5.1-4.7-7.9l2.8-0.2
	c3.8,5.2,6.8,11,8.8,17.1c0.8,2.5,1.9,5.1,1.5,7.9c-0.2,1.1-0.5,2.2-0.9,3.2c1,2.6,2,5.3,3.2,8.4c0.7-1.4,1.1-2.2,1.7-3.3
	c0.7-2.8-1.1-6.2,1.1-9.1c-0.4-0.7-1.1-1.5-1-2.1c0.6-3.8-1.1-7.4-1.1-11.1c-0.2-1.1-0.5-2.1-1-3.1c-1.2-3.5-2.5-6.9-3.9-10.7
	l2.6-0.2c0.3,3.7,2.8,6.7,3.3,10.4c0.1,0.6,0.8,1,0.9,1.6c0.5,2.5,0.8,5,1,7.6c0.2,5.1,0,10.2,0.4,15.4c1.8-5,2.7-10.4,2.7-15.7
	l1.5-0.2c0.2,0.3,0.5,0.6,0.5,0.9c0,2,0.5,4.1-0.1,6s-0.5,3.8-1,5.6s-1.3,3.5-1.7,5.2s-0.3,3.8-1.4,4.9c-2.9,3.1-2.1,6.5-0.4,9.2
	c3.6,5.4,2.3,11.2,2.5,16.9c-0.1,1.4-0.5,2.8-1.2,4c-0.4,0.7-1.4,1.1-2.3,1.7c0.8-6.5,1.5-12.6-1.4-18.5c-1.1-2-2-4.1-2.9-6.3
	c-0.5-1.7-1.8-3-3.4-3.6c-1.7-0.7-3.1-2.2-5.2-1.9c-1.4-2.1-3.8-0.2-5.9-1.7l7-0.5l-5.5-2.1c1.9-0.5,3.8-1.4,5.6,0.3
	c0.4,0.4,1.6,0.1,3.7,0.6c0.5-0.2,0.3-0.6,0.2-0.6c-0.5,0.1-0.9,0.3-1.4,0.4c0.6,0.2,1.2,0.3,1.2,0.1c-1.2-1.1-1.5-1.8-1.2-2
	c1.5-1.5,1.1-2.7,0-4.2c-0.8-1.3-1.4-2.7-2-4.2v-4.3l2.7,1c0.1-0.4,0.4-1.1,0.2-1.2c-0.9-0.8-2.4-1.3-2.9-2.2
	c-0.6-1-1.4-1.9-2.5-2.5c-1.8-1.4-3.2-3.3-5-4.7c-2.3-1.8-4.3-3.9-6.7-5.6c-1.6-0.9-3.3-1.6-5.1-2.2c-2.1-0.9-4.5-0.9-6.5-2.3
	c-0.6-0.4-2,0.3-3.2,0.5l-0.4-1.4c-0.7,0-1.3-0.1-2-0.2c-0.6-0.3-1.2-0.6-1.7-1l-2.5,5H754.8z M580.6,241l-0.9,0.1l0.4,1.9l0.7-0.1
	c0-0.6-0.1-1.3-1.7-1.9l0.9-0.1l-0.4-1.9l-0.7,0.1C578.9,239.8,579,240.4,580.6,241z M798.9,168.3c1.6-1.1,0.6-2.6,0.8-3.8
	c-0.2-0.1-0.5-0.2-0.8-0.3c0,1.3,0,2.6-1.3,6.3c0.8-0.7,1.1-0.9,1.1-1c-0.1-0.5-0.3-0.9-0.4-1.4C798.2,168.6,798,169.2,798.9,168.3
	L798.9,168.3z M271.2,235.8l7-9c-2.1-1.9-3.9-3.9-4.7-6.6c-0.2-0.7-1.1-1.2-1.7-1.8c-0.2-0.1-0.4-0.2-0.7-0.3l-3,2
	c0.4,1.1,0.6,1.7,0.8,2.4l-0.5,0.4l-3.4-3.3c-0.3,3.3-0.6,6,1.4,8.3l1-2.1l1.7,0.6c-0.8,1.5-1.9,2.8-2.2,4.2s0.5,2.9,0.8,4.4H266
	c-0.1-1.3-0.3-2.6-0.5-4.5c-0.8,1.5-1.2,2.5-1.7,3.4s-1.2,1.9-1.9,3h7.6c0.2-0.7,0.5-1.3,0.7-1.9L271.2,235.8z M253,201.2l3-1.5
	c-1.1-3.7,0.7-6.3,3.3-8.9c-4-3-6.1-7.8-11.5-8.9c0.1,2.9,2,3,3.8,3.2c0.8,1.6,3.2,2.2,3.2,4.5c-1.7,0.2-2.1-3-4.3-0.9l4.5,5.4
	c-1.2,1.5-1.8,0.7-2.6,0c-2-1.6-2-1.5-4.8,0.4v6.9l-5.4-3.4l-1.3,1.3c-0.2,1.8,0.1,3.7,0.7,5.4c0.6,1.5-0.7,3.6-0.8,5.5
	c0,1.8-0.6,3.5-1.8,4.9c-0.5,3.8-0.8,7.4-1.3,10.9c-0.5,3.8,1.3,7.2,1.1,10.7h6.1c-1.5-3.3-3.3-6.3-4.1-9.5s-0.7-6.9-1-10.1
	c3.4-1.5,3.7,2.6,6.5,2.7c0.9-2.3,1.8-4.7,2.8-7.1l4.2,5.4c0.6-3.8,1.2-7.1,1.7-10.4l1.7,0.4v5.3l1.4,1.3c4.2-5.4-1.1-8.1-3.1-11.9
	c-2.4,2.6-0.9,6.7-4.1,9.2c-0.1-1-0.2-1.7-0.2-2.7c-1-0.9-1.7-2.6-4-2.5v8l-1.9-0.2V209l-2.4-1.5c0.5-1,0.8-1.6,1.1-2.1l-1.4-1.9
	l3.8,1.6l2.1-1.3c0.5,0.6,1,1.1,1.5,1.6c0.6,0.4,1.2,0.7,1.8,0.9C252.1,204.4,252.6,202.7,253,201.2L253,201.2z M297.1,226.2
	c-0.8,3.6-2.8,5.4-4.2,7.4v3.3c3.2,0,6.4-0.2,9.5,0.1s6,0.8,9,1.2c0.9-1.5,2.2-2.6,2.4-3.9c0.6-3.8,2.5-7,4.1-10.3
	c0.7-1.3,1-2.7,1-4.1c-0.1-2.7-0.1-5.3,0-8s-1.6-5.2-1-8.1c0.5-2.1-0.3-4.1-1.6-6.1c-0.9,0.2-1.7,0.5-2.5,0.9
	c-2.6,1.7-5.2,3.5-7.8,5.3c-5.8,3.8-11.6,7.4-16.2,12.7c-2.3,2.7-5,5.1-7.1,8c-2.8,3.9-5.8,7.5-7.4,12.1h10.4
	c0.2-0.7,0.5-1.3,0.7-2.1l0.9,2h3.3c0.6-2,1.1-3.8,1.6-5.6C293.5,229.8,294.9,228.4,297.1,226.2L297.1,226.2z M258.6,229.6
	c-0.4-1.2-0.9-2.5-1.3-3.8l-2.1,1.1c-0.9-1.7-1.7-3.4-2.2-5.2c-0.3-1.8-1.2-3.4-2.5-4.6l-4.3,7.9l-4-4c0.3,1.2,0.6,2.5,0.6,3.8
	c0,3.1,1.3,5.6,2.5,8.1c2.1,0.9,1-3.2,3.3-1.6c-0.8,1.8-1,3.8-0.5,5.8c1.9,0,3.6,0.5,4.7-1.4c0.1-1.8,0.2-3.7,0.3-5.8l1.5,0.4
	c0.8,2-0.4,4,0.9,6.2l4-3.4c0.3,0.8,0.5,1.4,0.8,2.3l2.2-3.5c0.3-2.2,0.6-4,1-6.3c-1.4-1.8-0.8-4.3-0.6-6.7c0.3-2.3,0.8-4.7,1.4-6.9
	l1.5,0.3v5.3l1.6,1.5l3.2-4.7c-3-6.9-3.1-7-6.5-7.1c-1.8,3.1-1,7.3-4.5,9.4c0.1,0.7,0.2,1.5,0.4,2.2c0.2,0.6,0.5,1.3,0.8,1.9
	l-0.8,0.4l-4-5.9c0,0-0.2,0.1-0.2,0.2c0,2,0,4,0,6c3.9,4.2,3.9,4.2,3.8,9.2c-0.6,0.3-0.8,1.4-2.1,1L258.6,229.6z M325.4,219
	c0.3-0.3,0.6-0.6,0.9-1c3.5-4.8,3.5-5.2,0-9.9c-0.8-1.1-2-1.8-1.5-3.4c-2-1.8-0.2-5.1-2.8-6.7l-2.2,0.1c0,2.5-0.8,5.3,0.2,7.4
	c1.8,4.2,1.8,8.4,1.8,12.7c0,0.3,0.3,0.5,0.5,0.8L325.4,219z M240.1,195.1l5.6,2.2c-0.4-3.7,1.6-6.2,2.7-8.5L243,180l-2.9-1.2
	c-0.9,1.5-1.7,2.9-2.1,3.5C238.8,186.9,239.4,190.7,240.1,195.1L240.1,195.1z M257.6,197.4c2.4,1.2,2.9,1.7,3.2,2.9
	c0.3,0.8,0.5,1.6,0.6,1.9l-0.9,1.9l-1.3-1.1c-0.1,3.1,0.4,4,1.6,4l3.4-2.7c-0.5-2.7-1-5.2-1.6-8.1l-3-2.6L257.6,197.4z M238.7,205.2
	v-8l-3.3-0.6l2.7-2.2l-2.3-4.3l-1.2,2.9l-0.6-0.6v5.8L238.7,205.2z M269.4,203.6l0.8,3.5c2.4-0.5,2.9-1.8,2.5-3.8
	c-1.9-1.2-2.9-3.8-5.8-4.6c-0.2,2.7-0.1,5.5,0.3,8.1L269.4,203.6z M275.8,218.8v-5.5l2.3-0.8l-5.4-6.4c0.5,4.9,1,8.8,1.4,12.7
	c0.1,0.1,0.3,0.2,0.4,0.2C274.8,219,275.2,218.9,275.8,218.8z M268,195.9c-3.6-5.9-3.6-5.9-7.2-7.9c-0.1,3.4,1.9,5.6,3.3,7.9H268z
	 M734.5,132.9l4.6,7.1c0.3-3.5-0.6-7-2.5-10L734.5,132.9z M735.5,137.3l-2.9-5.4l-3,0.4C731.7,135.7,731.7,135.7,735.5,137.3
	L735.5,137.3z M309,149.6c-2.5-1.6-4.3,0-6.2,0.9c1.8,1.4,1.8,1.4,4.8,1.4C308.1,151.2,308.5,150.4,309,149.6z M229,202.3v5.5
	c1.2-2.1,2.2-4.3,2.8-6.6c0.1-0.4-0.2-0.8-0.4-1.3L229,202.3z M792.7,169c-1.7,0.2-3.3-0.3-4.8,0.7c0.8,0.2,1.5,0.3,2.3,0.4
	c0.9,0.3,1.7,0.7,2.5,1.2V169z M731.2,236.5c0.2,2.2,0.2,2.2,2.1,2.1L731.2,236.5z M752.8,132.3l-2-0.4c0.2,1.2,0.3,2.1,0.5,3.5
	L752.8,132.3z M271,210.8h0.9l-0.4-1.7l-0.5,0.1V210.8z M222,223.2l0.1,0.9l1.7-0.4l-0.1-0.5H222z M750.6,137.2h-0.9l0.4,1.7
	l0.5-0.1V137.2z"/>
<path d="M836.8,230l1,3.3l-2.8,3.1l4.7-1.7c-0.4,1-0.7,1.6-1,2.2s-0.6,1.1-0.9,1.6c0.3,0.1,0.5,0.4,0.8,0.4c3.7,0,7.3,0.1,11,0
	c2.5-0.1,5-0.8,7.6-0.9s5.5,0.6,8-0.2c3.7-1.2,7.4-0.6,11.3-0.9c-0.3-1.6-1.2-3.1-2.4-4.2c-3.4-2.9-4.8-6.8-6.4-10.8
	c-2.1-5.1-4.6-10.1-7.4-14.9c-2.3-4.1-5.2-7.8-5.6-12.7c0-0.4-0.6-0.7-0.8-1.1s0-0.6,0-1.5l2.5-2.8l1.4,1.4l-0.8,1.1
	c1.6,3.3,3.3,6.7,4.8,10.1c0.7,1.6,1.5,3.1,2.5,4.5c1.8,2.7,3,5.8,3.5,9c0.2,2,1.2,3.8,2.7,5.1c0.2-1.1,0.3-2,0.5-2.9l3.2-0.5
	l-2.4-1.1v-1.3l4-0.4l-1.2-1.8c1-1.5,2.1-3,3.2-4.4c4.7-5.2,8-11.4,12-17c0-3.2,2.4-5.8,2.1-9.1c-0.2-2.9-0.7-5.9,0.9-8.6
	c0.2-0.6,0.2-1.4,0-2c-2-6.6-0.7-13.4-0.9-20.1c-0.2-5.4-1.9-10.6-4.9-15c-2.4-3.8-4.1-8-5-12.4c-0.4-2.4-1.6-4.5-3.4-6.1
	c-3.3-2.7-6.8-5.4-10.2-8c-4.5-3.3-8.1-7.6-10.6-12.6c-2-3.9-4-8-7.5-10.7l-3.1-9.2l-23.2-23.2v-2.4h5.4l2.5,1.3l-1.2-2.9
	c-3.8-1.8-7.5-4-11.6-5.5c-4.6-1.7-6.7-5.9-11-8.9h5.4c0.1,0.7,0.3,1.6,0.4,2.4c5.9,3.2,11.8,6.3,17.5,9.7c1.2,0.7,3.1,1.8,2,4.5
	l-2.9,2.5c2.4,2.4,4.6,4.4,6.6,6.7s4.8,3.6,5.7,6.6c5.3,2.9,6.7,8.8,9.9,13.3c3.3,4.7,6.2,9.7,8.4,15c2.4,5.4,7.5,7.3,12.6,9.2
	c1.7,0.5,3.4,0.8,5.1,1l1.2,2.1l-4-0.7l-0.9,1l4.5,3.7h3.2c1.4,2.1,3,4,5.4,5.1c0.7,0.3,1,1.4,1.7,2.1c1,1,2,1.9,3,2.8
	c-0.5,2.4,2.2,2.9,3.1,5.3l-5.1-2.1c0.3,3.3,3.7,5.3,2.9,8.8c-2.4-1-1.9-3.9-3.9-4.7c0.2-1.3-0.1-2.7-0.8-3.9
	c-0.5-0.9,0.5-2.6,0.6-3l-1.3-2.9l-2.2,1.7l-1.8-2.4c-0.3,3.3-0.3,3.3,5.5,10.5c0.2,0.7,0.2,1.7,0.4,2.6c0.5,1.9,1.4,3.7,1.7,5.8
	c0.4,3,2.2,5.4,3.5,7.3c-0.4,3.6-1.3,6.8-1,9.9c0.3,3.4,0.8,6.6-0.4,10.2c0.4,1,0.6,2.1,0.8,3.2c0.1,3.6,0,7.3,0,11
	c0,1.1-0.3,2.2-0.8,3.2c-0.9,1.8-0.6,4.1-1.3,5.9c-1,2.8-2.3,5.4-3.8,7.9c-2.9,4.5-6.2,8.7-8.9,12.6c0.4,1.5,0.7,2.5,1,3.3
	c-3.5,3.9-7.4,6.9-10.8,11.4c1.5,0.1,2.9,0.5,3.2,0.1c1-1.4,1.6,0.1,2.8,0.2c0.7-0.7,2.3-1.4,2.4-2.4c0.4-2.4,3.8-2.9,3.3-5.6l4-3
	c0,0.3,0.1,0.8,0,0.9c-1.6,1.6-1.8,3.8-3,5.6c-0.6,1-1.2,2.1-2,3.5c0.7-0.2,1.5-0.4,2.1-0.7c1.3-0.8,1.8-2.8,3.9-2.4v3l7.5-9.4
	c0.5,2.2,0.4,2.5-2.8,6.2c0.5,0.3,1,0.6,1.6,0.9c0.6,0.1,1.1,0.2,1.7,0.3v-4.3l1.4,1.1l1.6-1c-0.1,2.2-1.2,4.2-3,5.5
	c-0.8,0.6-1.2,1.6-1,2.6l-1,1c-2,0.3-1.8,2.4-3,3.5c-1.4,1.2-2.6,2.6-3.9,3.9c-0.1,0.1-0.2,0.3-0.2,0.4c0.1,0.4,0.3,0.9,0.5,1.6
	l3-2.2c2,1.5,4.1,0.5,6.4,0.9c0.8-2.2,1.5-4.2,2.3-6.3c0.5-1.8,3.2-2.4,2.7-4.9h3.2l3.7-2.6c0.1-0.7,0.2-1.6,0.5-3.2l1.1,3.1
	l9.3-10.6V207l-1.7,1c-0.4-1.3,0.4-2.6,1.6-2.9c0.1,0,0.2,0,0.3-0.1c0.1,1.5,1.2,0.9,3.2,1.6c0.5-0.2,0.3-0.6,0.2-0.6
	c-0.5,0.1-0.9,0.3-1.4,0.4c0.6,0.2,1.2,0.3,1.2,0.1c-0.8-0.6-1.2-1.6-1.2-2.6l3.8-1.4c2.2-4.5,5-8.7,8.2-12.6
	c2.4,0.5,2.9-2.3,4.8-2.9v3.5l-4.8,4.8c0.2,2.9-1.6,5.1-3.2,7.1c-2.4,3.1-5.4,5.6-8.8,7.4c-1.7,0.9-1.7,1-3,3.8
	c2.5,0.5,4-1.5,5.9-2.3c2.3-0.9,4.5-0.1,6.2-0.5c7.7,3.5,15.2,6.4,20.6,11.9c1.2,2.8,1.7,5.8,1.3,8.9c2.9,0.1,5.7,0.8,8.5-1
	c2.6,1,5,3.1,8.6,1.9c0.2-0.6,1.2-1.9,0.8-2.6c-1.5-3-0.6-6.1-0.9-9.1c0.3,0,0.7,0,1.3,0l-0.5,0.1l1.4,11.8c1.6,1,1.6,1,4,0.6
	c-1.5-4.2-3.1-8.3-4.9-12.4c-0.7-0.9,0.6-2.5-1.3-3l-0.3-1.9l-0.7,0.1v1.8c-2.4-1.3-3.6-4.1-2.8-6.7c0-0.2,0.5-0.2,0.8-0.3
	c0.2,0.8-0.5,1.9,1.4,2h-0.5l0.4,1.9l0.7-0.1c0-0.7-0.2-1.3-0.5-1.9c-0.5-0.8,0.1-1.9-1.4-2l-2.4-5c4.1,3,4,3,5.4,7.1
	c1.7,4.6,3.6,9.2,5.3,13.8c1,2.7,2,5.5,3,8.1l1.3-0.1c-0.2-1-0.4-1.9-0.6-2.9s-0.3-2.2-0.5-3.2c-0.8-4.3-3.4-8.1-3.5-12.6
	c-0.2-0.9-0.5-1.8-1-2.6c-0.4-0.7-0.7-1.4-1-2.1c-0.1-0.8-0.1-1.6,0.2-2.4c3.3,6.6,4.8,13.9,7.1,20.9c2,0.1,2.5-1.7,3.6-2.6
	c0.2-4.1-3.5-5.8-5.4-8.7c1.2-0.9,2.9-1.1,4.3-0.4c2.7,1.4,5.7,1.9,8.7,1.4c2.7-1.5,2.7-1.5,4.4-4.5c-2.3-5.6-3.3-12-9.4-15.8
	l7.3-5.2c2.7-4.9,3.7-10.6,2.9-16.2l3.1,1.3c-0.3,5.4,1.7,10.8,5.5,14.7h9.4c0.1,1.6,0.3,2.9-0.7,4.5c-0.6,1.1-1,2.3-1.1,3.5
	c-0.2,2.5-0.1,5-0.1,7.5l4.3,1.4l9.6-5.8c-0.3,1.9-0.7,3.7-1,5.5c2.8,1.1,4.3-1.4,6.8-1.7c0.8,2.1,0.1,4.4,0.3,6.1
	c-2.5,5.9-7.6,10.1-8.1,16.8h3.8c2.4-2.1,3.3-2.5,6.2-2.6v4.5l-1.5,1.5c-0.2-1.1-0.3-2-0.5-2.9l-7.1,2l-2.8-3.2
	c0.6-3.5,2-6.8,4.1-9.6c1.6-2.1,2.8-4.5,3.8-6.9c0.2-0.8,0.3-1.6,0.2-2.4c-2.2,0.2-3.5,2.5-6.1,1.4v-4.8l-3.2,4.4l-1-1
	c-5.3,1.3-5.5,1.3-9.6-2.6c-0.2-4.5-0.4-9,2.4-13.3h-8l-6.5-6.6c-1.4,1.3-2.1,3.1-1.9,5l-6,4.9c0.9,1.2,1.8,2.6,2.9,3.9
	c0.6,0.7,1,1.6,1.1,2.6c0.3,2.1,1,4.2,2,6.1c1.7,3.1,0.8,5.4-1.3,7.7c-0.3,0.4-0.7,0.7-1.2,1.2h-9.7c0.8,2.3,1.5,4.2,2.3,6.5
	l-2.5,1.7c1.2,1,2.1,1.8,3.2,2.7h2.7l3.6,3.9h18.9c0.2-2.6-1-4.9-2.1-7c-0.7-1.4-2.5-2.1-3.7-3.1l-1.9,1.1c-0.1-0.5-0.2-1-0.3-1.7
	l3.8-0.4c0.1-0.4,0.4-0.7,0.3-0.9c-1.4-3.6-2.4-7.4-4.4-10.6c-1.1-1.8-1.2-3.6-1.9-5.5c0.5,0.3,1.3,0.5,1.5,0.9
	c5,8.5,8.7,17.7,11.1,27.3c6,0,12.2,0.6,18.2-0.2c3.9-0.6,7.8-0.1,11.6-0.9c9.2-1.7,18.4-0.7,27.6-0.9s18.3,0,27.5,0h28
	c13.3,0,26.7,0.1,40-0.1c7.6-0.1,15,1.5,22.6,1.1c7.8-0.4,15.7-0.1,23.5-0.1c7.7,0,15.4-0.5,23,0.2c5.6,0.5,11.1,1.4,16.6,0.7
	c12.5-1.7,25.1-0.4,37.6-0.9c0.9,0,1.8-0.4,2.8-0.6c1.3-0.2,2.8-0.8,3.8-0.3c3,1.5,6.1,0.6,9.1,0.9v4c-2.7,0-5.4,0.4-8-0.1
	c-7.5-1.5-15.1-0.8-22.6-0.9s-15.1,0.6-22.5-0.2c-6.7-0.8-13.4-0.7-20.1-0.8s-13.3,0-20-0.1c-1.9,0-3.7-0.8-5.6-0.9
	c-2-0.2-4-0.2-6,0c-6,0.4-12,1.2-18.1,1s-12.3-0.1-18.5-0.1h-18.5c-6.2,0-12.4-0.7-18.5,0.1c-10.9,1.5-21.7,0.6-32.6,0.8
	s-21.7,0.3-32.5,0c-9.4-0.3-18.7,1.3-28.1,1.1s-19-0.2-28.5,0c-5.4,0.1-10.6-1.5-16.1-1.1c-5.3,0.4-10.7,0.1-16,0.1
	c-0.3,0-0.8,0.1-1,0c-1.7-1.7-4.1-0.5-6-1.3c-0.9-0.4-1.8-0.6-2.7-0.6c-2.5-0.2-5-0.2-7.5,0c-4.3,0.5-8.3-1.3-12.5-1.2
	c-0.2,0-0.5-0.4-0.8-0.8c-4.3,4.9-7.8,10.6-14.4,13.4c0,0.6-0.1,1.4-0.2,2.2c-1.2,1.2-2.9,0.2-4.5-2.6h-2.3
	c-0.8,1.5-1.7,3.2-2.6,4.8c-6-1.8-6-1.8-10.2-6c-0.1,0.7-0.3,1.3-0.3,1.8s-0.9,3.4-0.9,4.2c-2.2,0-3.3,0-5.6-2.1l-5.5-7.5v-4.7
	l-1.7-1.7l-6.2,1.4l-2.4,2.4c-3.4,0.4-6.5,1.1-9.7,1.2c-6,0.2-12-0.1-18,0.1c-2.2,0.1-4.4-0.7-6.7,0.8c-1.6,1-4.2-0.8-6,1.1
	c-4.2-0.4-8.4,0.5-12.7-0.6c-2.8-0.8-5.9-0.2-8.9-0.4c-1.5-0.1-3.1-0.4-5-0.6c-1.4,0.3-2.8,0.5-4.2,0.6c-8.5,0.1-17,0-25.5,0.1
	c-1.5,0-3.3-0.7-4.6,0.9c-0.1,0.2-0.6,0.1-1,0.1c-1.8-0.3-3.5-1.9-5.4-0.6s-3.5,0.4-5.3,0.6c-2,0.2-4,0.2-6,0c-2-0.3-4-0.7-5.9-1.2
	v-1.2c0.2-0.2,0.5-0.5,0.8-0.5c9.7,0.2,19.3-1.6,29.1-1.1c5.8,0.3,11.8,0.8,17.5-0.1s11.4-0.4,17.1-0.7c1.2-0.1,2.4,0.5,4.1,0.9
	c1.8-2,3.2-4.2,4.3-6.6C835.3,231.3,835.6,230.4,836.8,230z M884.2,223.7l-3.8,1.3l-1.4-1.2c-1.6,2.1-3,4.1-4.6,6.2l3.2,2.6
	c2.3-3,4.4-6.2,6.2-9.5v0.9l2-0.4l-0.1-0.6C885.1,223.1,884.4,223.2,884.2,223.7z M905.8,244c2.1-0.2,0.1-2.4,1.5-2.9l1.7,1.2
	c-0.6-3.9,0.2-7.8,2.3-11.2c1.9-3.1,3.2-6.8,7.8-8.5l-6.5,9.6c2.1,1.9,1.4,4.3,1,6.4s1.1,4,0.6,5.1l1.1,2.4c0.3-2.3-0.9-4.6-0.2-6.1
	c0.9-2,0.3-4.1,1.1-6.1l1.7,0.3v8.2l2.3,1.2l-2.3,0.8c0.1,0.6,0.2,1,0.2,1.4c2.3-0.1,2.3-0.1,3.8-2c-2.6-9,0.8-16.6,8.2-17.6
	c-1.6,1.6-3,2.9-4.3,4.3c-2.2,2.6-2.9,6.2-1,8.4v4.5l2.2,2.2l3.7-1.1l3.7-4.4l0.9,0.9l4.4-5.4l-1.5-2.1l2.4-1.2l-0.4-0.6h8.3
	c0.1-0.3,0.3-0.5,0.2-0.6c-0.8-1.3-1.5-2.7-2-4.2c-1.3-4.9-5.1-7.1-9.3-8.8c-1.7-0.7-3.4-1.4-5.1-2.1c-2.6-1.2-5.6-1.6-8.5-1.2
	c-1.2,0.2-2.2,1.4-3.6,1c-1.8-0.5-3.2,0.5-4.4,1.4c-5.5,4.1-11.7,7.5-16,12.9v3.4l1.9,0.7c-0.1,0.6-0.2,1-0.2,1.4l-2,0.7
	c1.2,4.3,2.2,8.5,6.2,11.9V244z M881.1,235.9l6.6-6.6c0.3-1.1,0.6-2.1,0.9-3.2h-2.2c-2.8,2.8-5.6,5.6-8.3,8.4
	c-0.2,0.2-0.1,0.9-0.1,1.5H881.1z M990.3,235.9c-0.9-0.9-1.5-1.8-1.9-1.8c-3.2,0.2-5.6-2.1-8.5-2.9c-0.2,1.9-0.6,3.8,1.5,4.6
	L990.3,235.9z M912,237.8h0.9l-0.2-3.7H912V237.8z M890.5,220.8l-2.5,2.5l2.8-0.6C890.8,222,890.7,221.6,890.5,220.8z"/>
<path d="M683.6,138c1.1,2.8,1.7,5.3,0.4,8.3c-0.7,1.7-0.5,3.6,0.5,5.1c1.2,1.8-0.1,4.3,1.2,6.5c1.5,2.5,2.1,5.5,3.1,8.5
	c-6,9.7-16.3,14.5-26,20.6c-6.1-0.4-11.6,2.8-17.1,5.7c-1.9,1-3.7,2.3-5.7,3.5c-0.4,5.9-2,11.4-5.8,16.1c-0.6,0.9-1.1,1.9-1.3,2.9
	c-1.6,4.9-4.8,8.5-8.8,11.9c-0.1-0.8-0.2-1.4-0.3-2.2c3.4-3.9,6.3-8.2,8.5-12.9c2.1-4.7,4.3-9.4,4.9-14.9c0.6-0.7,1.1-1.6,1.4-2.5
	c0.7-2.8,3-3.8,5.1-4.6c5.7-2,11.1-4.7,16.6-6.9c6.2-2.5,11.8-6.1,17.7-9.2c2.2-1.2,4.1-3.1,6.1-4.6c0.9-0.7,1.8-1.2,3.1-2.1
	c-0.5-1.3-1-2.8-1.7-4.1c-1.2-2.7-2.2-5.5-2.8-8.4c-0.9-3.7-0.7-7.4-0.8-11.1c0-1.1-0.3-2.2-0.9-3.1c-1.9-3.5-2.6-7.6-2-11.6
	c4.6-12.1,14.5-18.6,25.5-23.9c3,1.9,5.7,1.2,8.3-1.3c-2.5-3.7-7.2-3.9-10.4-6.6c-1.9-0.1-3.7-0.4-5.5-0.9c-3.6-1-7.1-2.3-10.6-3.4
	c-2.8-1-5.8-1.6-8.8-1.8c-3.4,0-6.7,0.2-10.1-0.8s-6.9,0.8-10.4,1.3c-0.9,0.2-1.8,0.4-2.8,0.5c-4.3,0-8.2,1.7-12.3,3
	c-7.4,2.5-14.1,6.3-21.1,9.5c-5.3,2.4-10.9,4.3-16.3,6.6c-1.2,0.4-2.3,1.1-3.2,2c-3.3,3.6-7.7,5.5-11.7,7.9
	c-5.2,3.1-10.5,6-15.9,8.7c-2.1,1-4,2.8-6.1,3.2c-2.6,0.6-3.8,2.8-5.9,4c-3.9,2.2-7.9,4.2-12.1,5.8c-1.4,0.3-2.8,0.5-4.2,0.5
	c-2.5-2.1-4.8-4.1-7.1-6.2c-1.7-1.5-2.6-3.7-2.5-6c-0.2-6.4,2.5-11.5,6-16.6c2.6-3.8,6.2-6.5,9.6-9.4c2-1.7,3.7-3.6,5.9-5.8h-16.6
	c-4.5-2.8-5.8-5.4-5.8-11.3c2.8-3.6,5.9-7,7.4-11.7c2.7-2.7,5.5-5.5,8.3-8.3c4.7-4.9,10.5-8.2,16.1-11.9c7.3-4.8,15.9-6.8,23.5-10.8
	c4.2-0.1,7.8-3.1,12.1-2.2c7.5-1.9,15.1-0.2,22.6-1.2c4-0.6,8.1-0.8,12.1-0.8c2.2,0,4.4,0.8,6.6,0.9c2.3,0.1,4.7,0.1,7,0
	c1.2,0,2.5,0.4,3.8-0.7c1-0.5,2.2-0.5,3.2,0c1.2,1.1,2.5,0.8,3.7,0.7c4.3-0.5,8.1,1.6,12.2,2c1,1.9,3,0.6,4.5,1.3s3.1,0.5,4.7,0.7
	c0.8,0.1,1.9-0.3,2.5,0.1c2.4,1.8,5.3,0,7.5,1.2s4.7,1.6,6.9,2.7c3.7,2,7.7,3.3,11.4,5c3.4,1.6,6.4,3.9,9.6,5.9
	c0.7,0.4,1.4,0.7,2.1,1.1c4.7,2.4,9.5,4.6,14,7.1c2.5,1.4,4.8,3.1,6.9,4.9c1.5,1.2,3.1,2.2,4.8,3c5.4,2.7,10,6.7,13.6,11.6
	c4.4,5.7,8.3,11.8,11.5,18.2c0.3,0.6,0.9,1,1.5,1.5v9.2c-1.1,0-1.9-0.9-1.9-1.9c0,0,0,0,0-0.1c-0.4-2.6-1.5-5.1-3-7.3
	c-3-4.8-5.9-9.6-9-14.2c-2.7-3.9-5.1-8.2-9.7-10.4c-4.8-5.5-11.7-8-17.4-12.3c-2.5-1.9-5.8-2.8-8.8-4c-4.8-1.9-9.1-4.7-13.4-7.4
	c-1.3-0.8-2.7-1.4-4.1-2c-1-0.4-2.3-0.5-3-1.2c-3-2.9-6.9-3.5-10.5-4.9c-1.2-0.4-2.2-1.1-3.8-1.9c-3.7,0.6-7.6-1.7-11.9-1.2
	c-1.2,0.1-2.5-1.1-4.2-1.9c-3.2,0.2-6.4-0.4-9.3-1.7c-2.4-1-5.3-1.1-8-1.3c-2.2-0.2-4.3-0.2-6.5,0c-5.6,0.6-11-1.3-16.6-1.1
	c-4.1,0.2-8,1.5-12.1,1.1c-4-0.3-8.1-0.7-12,0.1c-7.2,1.4-14.4,2.6-21.3,5.1c-4.5,1.5-8.9,3.4-13.1,5.7c-5.6,3.4-11.5,6.3-16.8,10.2
	c-3.3,2.5-6.3,5.2-9.1,8.1c-2,2.2-3.8,4.7-5.2,7.3c-1.2,2.5-2.2,5.1-3.1,7.7c-0.3,0.4-0.6,0.8-1,1.1v3.1l4.8,3.4
	c1.7,0.1,3.5,0.1,5.2,0c5.8-0.6,11.7-0.9,17.4-2.7c2.8-0.9,5.9-0.9,8.7-1.9c4.2-1.5,8.4-3.1,12.6-4.6c5.5-2,11.1-3.8,16.6-5.8
	c4.5-1.6,8.9-3.7,13.8-4c0.5,0,1.1-0.6,1.6-1c3.3-2.2,7.5-1.9,10.8-4c0.2-0.2,0.7,0,1,0c4.4,0.3,8.6-1.8,13.1-1
	c11.1-2.1,22.4-0.4,33.6-1c3.8-0.2,12.6,2.1,16.8,4c3.1,1.5,6.4,2.6,9.8,3.1c3.5,0.4,6.7,2.1,10.1,3.3c4.1,1.5,8.3,2.7,12.5,3.6
	c1.8,0.3,3.6,1,5.1,2.1c2.5,2.3,5.8,3.1,8.5,4.8c1.8,0.9,3.3,2.2,4.6,3.7c2.2,4.9,4.4,9.8,6.6,14.5c-0.4,0.4-0.6,0.6-0.6,0.6
	c-1-0.9-1.9-1.8-3.2-3l-9,1.2l-0.5-0.7l2.6-0.3l-1-1.3h6.4c-0.8-2.6-2.4-4.7-3-7.3c-0.8-2.9-2.9-5.1-5.8-6c-2.5-0.8-4.9-2-7.1-3.6
	c-2.4-1.8-5.5-1.9-8.2-3c-1.1-0.5-2.3-0.7-4.6-1.3c1.2,1.2,1.5,1.6,1.9,1.9c3.9,3.6,7.2,7.8,9.9,12.4c1.3,2.2,2.3,3,4.9,4.4
	c-1.1,2.4-1.1,2.4,1.4,6.9c-1.1-0.5-1.9-0.6-2.3-1c-0.7-0.8-1.4-1.7-1.9-2.7c-0.5-0.8-0.8-1.7-1.2-2.5l-3.1,1.6l1,2
	c-0.3,0.1-0.7,0.4-0.8,0.3c-3.9-2.9-5.5-7-6.2-12c3.4,1.2,3.2,5.6,7,6.1c0-0.7,0.2-1.3,0-1.8c-0.5-0.8-1.1-1.5-1.8-2.3
	c-3.6-4.7-6.7-9.8-12.6-12c-2.5-0.9-3.7-2.8-4.9-5.2c-3.7,1.2-6.7-2.2-10.7-1.8c2,2.3,3.9,3.6,6.7,4c3.5,0.5,6.2,2.8,8.9,4.9
	c2.3,1.9,4.4,4.1,6.4,6.3c0.3,0.3,0.2,0.9,0.4,2c-2-1.7-3.4-3.1-4.9-4.3s-3.2-1.9-4.7-3.1c-2.3-1.9-4.4-4.3-7.9-3.9
	c-1.5-1.4-3.3-2.5-5.2-3.2c-2-0.8-4.1-1.5-6.2-1.9c-5.5-1.2-11.1-1.7-16.5-3.6c-2.7-0.9-5.6-1-8.3-1.4l-1.9-1.9
	c-5.5,0-10.9-0.1-16.4,0c-2.2,0-4.4,0.7-6.6,0.9s-4.5-0.4-6.5,0.2c-2.9,0.9-5.9,1-8.7,1.9s-5.4,2.2-8.1,3.3
	c-3.5,1.3-6.9,3.2-9.7,2.8c-3.5,1.2-6,2.1-8.5,2.9c-4.1,1.3-8.4,2.3-12.3,4.1s-8.3,2.3-12.1,4.6c-1.5,0.9-3.4,1.2-5.1,2.1
	c-2.8,1.3-6,1.6-9,1.1c-4.4,4.6-9.2,8.8-14.3,12.5c-2,1.5-3.2,4.3-4.7,6.5c-1.8,2.5-3.3,5.3-4.2,8.2c-0.2,0.9-0.1,1.9-0.3,2.9
	c-0.3,0.7-0.6,1.4-1,2c2.5,3.8,4.9,7.5,7.1,10.9c7.4,0,12.9-2.4,18.4-7.9l2.1-0.1c1.2-2,3.5-2.6,5.6-3.7c4.7-2.4,9.3-5,13.8-7.7
	c3.6-2.2,7.5-3.9,10.8-6.6c1.3-1.1,2.9-2,4.2-3c3.9-3,8.7-4,13.1-5.9c5.6-2.3,11.1-4.6,16.3-7.8c5-3,10.6-5.2,16.4-6.3
	c2.5-0.5,5-1.4,7.6-1c0.5,0.1,1,0,1.4-0.2c3.2-2.1,6.8-1.8,10.3-1.8c4.5,0,9,0,13.5,0c3.5-0.1,7,0.5,10.2,1.8
	c3.5,1.5,7.4,2.1,11,4.2h4.1c2.3,1.2,4.4,2.5,6.5,4c1.9,1.7,3.8,3.5,5.5,5.4v4.4c-2.8,0.7-5.4,2-7.8,3.7c-2.3,1.7-4.3,3.8-7.1,5.2
	l0.8-2.4c-0.2-0.3-0.6-0.8-0.8-1.2l5.6-5.6c-2.9-1.3-4.3,0.5-6.1,1.4c-5.6,2.7-10.7,6.5-14.9,11c-1.9,2.1-3.1,4.7-3.7,7.5
	c-0.6,2.8-0.9,5.6-0.8,8.5l3.4-2.2C686.6,136,684.4,136.4,683.6,138z M696,78.2c1.2,0.9,1.2,0.9,2.8,0c-0.7,0.1-1.3,0-2-0.1
	c-1.8-1-3.8-1.7-5.8-2.2c-1.6-0.3-3.5-0.4-4.9-1.2c-1.9-1.1-4.2,0.2-5.7-0.8c-2-1.4-3.7-0.5-6.6-1c6.1,3.8,12.4,2.4,17.6,5.1
	C692.6,78.5,694.3,78,696,78.2L696,78.2z M708.8,109.6l-0.8-0.9l-3.6,3.3C707.1,112.2,707.6,110.3,708.8,109.6z"/>
<path d="M280.8,136c-2.2,0.3-2.8-1.4-3.5-3l-1.8,1.8l-4.8-4.8l-3.2,0.3c1.6,4.1,5.5,4.5,8.7,6.5l-5.8,2.8c-2.4-3.8-4.6-7.2-6.9-10.7
	l-1.5,1.4c-2.1-1.2-3.8-3-5.1-5c-1.4-2.4-2.7-4.9-3.7-7.4c-1.1-2.4-1.8-5-2.1-7.6c-0.5-4.2-1.2-8.9,3.4-12.2l3,4.3
	c1.1-0.8,2.1-1.6,3.1-2.3c1.9-0.6,2.7,0.9,3.8,1.9l1.2-1.1c-0.3-0.9-0.5-1.8-0.6-2.7c-0.1-0.9-0.1-1.9,0-2.8l-4-2.7l0.2-0.7l4.7,1.1
	l1.6,2.1h3.9l4.4,4.4c0.7-1.1-0.4-2.1-0.7-3.2c-0.3-1,0.5-2.4,0.9-4c-1.1-0.7-2.4-1.5-3.6-2.4c-0.3-0.2-0.3-0.8-0.6-1.6l3-0.2
	l3.5,3.8l6.1,1.7c2.5,3.5,5.3,7.5,8.1,11.5h2.2l4.4,5.2v-5.3l4.9,1.5l4.5,5.6l0.8-0.4c-0.4-2.1-0.9-4.2-1.3-6.2l-4.5-4.4l-2.1,0.3
	l0.7,3.4c-5.1-2.9-6.9-7.6-10.5-10.9c2.3-1,4.2-1.7,3.3-4.5c-2.4-1.4-4.5-3.9-7.8-3.3v-2.4c-0.8-0.5-1.6-1-2.4-1.4
	c-2.1-1.1-4.1-2.1-6.2-3.1c-0.8-0.1-1.6-0.1-2.4,0v1.9l2.4,3.1h3.6c2.1,2.2,4.8,4.5,6.9,7.2c2,2.6,3.2,5.7,4.9,8.8
	c-2.6-1.2-3.9-2-4.7-3.9c-1.7-3.6-4-6.9-7-9.6c-0.2-0.1-0.4-0.3-0.7-0.3c-0.5,1.4-0.9,2.9-3,2.9c-0.5-2.8-3.1-3.9-4.5-5.8l-6.8-1.3
	c1.2,3.1,2.2,5.8,2.8,7.2c-0.6,1.6-0.9,2.3-1.5,3.9c-0.7-4.8-1.6-8.3-5.9-9.9l3.8-2.7c-0.6-1.2-1.2-2.3-1.7-3.4l-1.1,0.9l-3.8-3.8
	h-3.1c0.9,2.5,2,4.6,2.3,6.8c0.4,2.2,1.5,4.2,3.2,5.7c1.2,1.2,2.4,2.3,3.5,3.6c0.4,0.4,0.3,1.2,0.4,1.8l-3.7-2.9
	c-1.7-0.5-3.5,0.2-4.4,1.6c0.3,2.1,0.6,4.7,1.2,8.3l-3.2-6.2v-5.3c-2.6,3.1-2.3,6.5-3.6,9.5v-8.7c1.8-1.6,2.8-3.9,2.8-6.3
	c0-1.3,0.7-2.7,1.1-4.2l-2.5-2.8l3-3.2l3.1,0.9l1.8-2.6c-0.2,0.1,0.1-0.1,0.4-0.2c2.2-0.7,4.2,0.5,6,1.1c2,0.5,3.8,1.4,5.5,2.6
	c3,2.6,6.9,4.1,10.4,6.2c5,2.8,9.6,6.2,13.7,10.2c1.5,1.5,3.1,3.1,4.8,4.8h3c5.7,5.7,7.4,10.7,5.5,15.8l3.2,0.6
	c-1,3.6,1.8,7,0.6,10.9c-1.1-1.9-2-3.6-3-5.2l-0.7,0.3c0.3,0.6,0.5,1.3,0.7,1.9c0.1,1,0.1,2,0,3l2.4,2.4c-0.5,4.4-3.7,7.9-3,12.6
	c3.8-2,6.9-1.5,9.9,1.1c1.8,1.6,4.3,2.3,6.8,3.6c4.4,0.3,9,0.1,13.1-3.2v-3.5l-1.6-1.6V130c3.5,2.4,5.9,6.1,6.8,10.3
	c-0.2,4.7-4.6,5.5-7.9,7.6c-3.2-0.3-6.5,1.5-10.2,1.1s-7.2-0.1-10.9-0.4c4.1-0.4,7.9-2,12.1-1.7c4.7,0.3,8.9-1.3,12.8-3.6
	c0-2.3-1.6-1.1-2.5-1.4l-1.9,1.9h-10.8l-11.2-5.6c-3.8,1.7-8.9-0.4-12,3.7h-4.1l0.4-0.4l-2.2-1.1c1.8-3.4,5-5.6,4.4-9.9l1.9,1.9
	c0.5,2.9-2.2,4.6-2.5,7.4h2.3c1.2-3,3.4-6,3.2-9.8c0-0.7-0.8-1.3-1.4-2.3l-1.8,2.5c-0.4-0.6-0.7-1-0.7-1.1c0.9-1.7,1.3-3.7,0.9-5.7
	l1.4-1.4c0.2,0.1,0.6,0.2,0.6,0.4c0.4,1.4,0.8,2.9,2.7,3.8c0.6-3.2,0.1-6.1,0.4-8.9l-2.2-2c-2.6,3.6-4.8,6.9-5,11.5h-2.9l1.3-5.7
	c0.4-0.6,1.1-1.4,1.6-2.3c0.1,0.1,0.3,0.2,0.4,0.3c0.9-1.2,1.7-2.4,2.6-3.7v-5.3c-1.3-0.7-1.8-3-4-2c0.8,1.8,1.9,3.5,2,5.2
	s-0.7,3.6-1,5.4c-3-2.7-3.8-6.9-6.3-10l-1.5,1.5v6.2l1.3,1.2l2.1-1c1.9,2.6-1,3.5-1.9,5.7c1.6,1.1,1,3.7,3.5,4.4l-4.1,6.7v6.2
	l-1.7,0.2v-3.2c-1.8-2.1-3.5-3.9-6.4-4.6c0.5,2.8,3.5,4.8,1.6,8l-1.7-2.4l-0.7,0.4c0,0.7,0.2,1.3,0.5,1.9c0.9,1,1.8,2,2.8,2.9
	l2.7,0.3l-3.8,2.6h-3.1l-11.1-4.9c1.5-1.9,3.4-1.1,5-0.4c1.8,0.7,3.6,1.8,6.1,3C283.9,140.9,282.5,138.3,280.8,136
	c0.7-0.1,1.3-0.1,2,0c0.8,0.2,1.5,0.5,2.2,0.9c-0.6-2.8-3.1-3.7-4.2-5.7l0.8-2.2l1.7,3.2c1.1-1.7,3-2.3,2.5-4.7
	c-1.5-2.7-4.8-3-7.2-5l-1.9,3.9C278.1,129.8,279.4,132.9,280.8,136z M279.7,103.7l-1.3,1.2c-3.4-2.7-5.6-6.8-10.5-8.1
	c0,3,0.1,5.6,0,8.2s0.9,5.2-0.8,7.6c1.4,1.1,1.2,3.8,3.8,4c0.3-2.2-0.4-4.5,0.6-7c0.7,0.6,1.5,1,2.3,1.3c1,0.1,2,0.1,3,0l4.4,4.7
	c-0.5-3.7-0.9-6.6-1.3-9.5l4.6-0.5c-0.4-0.6-0.8-1.3-1.1-1.9c-0.1-0.5-0.2-1.1-0.2-1.7l0.7-0.4l2.6,3.6c0.7-1.4,1.2-2.4,1.7-3.4
	c-2.3-3.8-4.6-7.5-9.9-8v6.5L279.7,103.7z M265.5,128.7l5.3-0.8c2.4,1.3,3.1,4,6.1,4.2l-2.3-4.1v-4.6c-4.3-2.7-6.4-7.5-10.8-10.3v8
	l4.2,4.3l-1.1-3l1.3-1.3c1.9,1.2,1.7,2.9,1.4,4.8h-4.5c-3.4-3.1-4.7-8.2-9.2-10.8v4.2c1.6,3.5,3.6,6.7,6.1,9.7
	c-0.5-2.3-0.8-3.5-1.3-5.8L265.5,128.7z M289.1,115.3c-2-4.2-3.4-5.4-7.3-6.8c0.4,2.4,0.9,4.7,1.1,6l2.8,6.4
	c-2.5-0.8-4.8-2.2-6.5-4.2c-1.7-2.1-3.7-3.4-6.1-5v7.1l2.3,3.2l4.9-1.1l8.8,7.3c-0.5-3.8-0.9-7.2-1.4-10.9c-0.4-0.9-1-2-2-4
	L289.1,115.3z M261.8,115.9c-0.4-2.2-0.8-4.2-1.3-6.7c-1.9-1.5-3.3-3.5-4-5.8c-0.2-0.6-1.1-1-1.9-1.8l-1.7,2.6v7.2
	C256.5,111.5,257.5,116,261.8,115.9z M295.8,126.8c-0.5-3.3-2.8-4.8-4.6-6.8c-2.1,3.1-2,3.3,0.4,7.6c0.4,2.3-0.2,4.4,0.6,6.7
	C293.5,131.6,294.7,129.2,295.8,126.8L295.8,126.8z M285.4,108.1c1.6,1.6,3.4,2.7,4.2,4.4s1.2,3.3,3,4.2c-0.1-1.4-0.8-2.7-0.8-3.9
	c0.1-1.5,0.4-3.1,0.8-4.6l-4-3.7L285.4,108.1z M263.7,73.5c2.9,2.5,5,5.8,9,7.5c0.5-1.1,0.9-2.3,1.3-3.2l-3.7-3.8
	C268.1,74.4,266.2,71.9,263.7,73.5z M308.3,100.4c-4.9-2.2-8.1-6.3-13.8-7.7c2,2.9,3.5,5.1,5.1,7.6l3.6-1.3
	C304.4,100,305.4,101.9,308.3,100.4z M261.2,102.2c-0.8,3.5,0.8,5.1,2.1,6.9l1.7-3.4L261.2,102.2z M308.9,130.6l0.5,0.4l1.4-3.2
	l-1.9,0.4V130.6z M300,113.8l0.9-0.1l-0.4-1.7l-0.5,0.1V113.8z"/>
<path d="M1018.8,138c-0.3,1.7-0.7,3.4-1,5.1l2.5,3.9c5.7-1.9,5.7-1.9,7.5-6.4l-1-1l3-2.5v4.6l2.6,2.4h4.2l1.2-3.9
	c2.3,0.5,2.9-2.5,4.4-2.4c-0.6-4.3-1.2-8.7-1.7-12.6c0.7-0.9,1.1-1.4,1.8-2.4l-2.4-1.3v-8l2.6-1.6c-0.7,3.6-1.6,6.8,0.2,9.9
	c0.2,0.4,0.1,1,0.1,1.5c0,2.3-0.2,4.7,0,6.9c0.3,2,0.7,4,1.3,5.9c0.8,0.7,2.5-0.7,2.7,1.6c0-0.2,0-0.3,0-0.5l-1.9,0.4l0.1,0.6
	c0.7,0,1.3-0.2,1.9-0.6c1.9-0.3,3.9-0.5,5.8-0.4c0.1-0.7,0.2-1,0.3-1.7l-4-0.6c0-0.5-0.1-0.8-0.1-1.4c2-0.7,4.1-0.1,6.7-0.4
	c0.2-0.5,0.6-1.4,1-2.2c4,1.3,6.4-1,9.4-2.1v-4.5h7.8c-0.4-1-0.7-1.8-1-2.5c2.6-1.8,4.6,0.9,7.2,1l-2.5,1.3l0.4,0.8l3.4,0.7
	c-4.6,1.8-9.8,1.3-12.2,6.4l4.8,0.5l-6.4,2.4c1.6,2.2,3.1,4.2,4.6,6.4h7.5c0.8,1.9-0.4,2.6-1.7,2.9c-4.6,1.5-9.6,1.5-14.2,0
	c-0.6-0.1-1.1-0.1-1.7,0c1.5,4.4,2.9,8.7,4.4,13c0.1,0.3,0.4,0.5,0.4,0.8c0.4,3.5,1,7.1,0.9,10.6c-0.1,2.7,1.3,5,1.1,7.6
	c-0.1,2.5-0.1,5,0,7.5c0.1,1.2,1,2.5,0.8,3.6s-0.9,2.2-0.9,3.6c-0.1,5.4,1.4,10.6,1.2,16.1c-0.1,2.3,1.4,4.7,2.4,7.3
	c0.6-0.3,1.2-0.7,1.8-1s1.4-0.6,3.1-1.3c1.3-0.3,3.9,1,6.1-0.8c1.1,0.9,2.1,2,1.2,3.7c-1,1.9-1.9,3.9-2.7,5.9c-1,2.9-2.6,5.8-1.8,10
	c-2.3-3-2.8-5.1-1.3-7.7c1.1-2,2-4.1,2.8-6.2c-0.8-1-1.6-1.9-2.4-2.9c-2.3,0.9-4.2,2.8-7.1,1.9l-3-4.2l-1.5-8.5h-0.5
	c-0.2,0.8-0.2,1.7-0.2,2.6c0.2,2.9-0.3,5.8-1.5,8.4c-0.3,0.7-0.5,1.5-0.5,2.3c0.5,4-1.2,6.9-4,9.1c-0.4,2.5-0.3,2.5-2.8,4.7
	c-0.7-2.5,0.8-4.4,1.5-6.3c1.1-2.7,1.9-5.6,2.3-8.6c0.1-0.9,0.7-1.7,0.8-2.6c0.2-2.2,1.6-4.2,1.2-6.5c-0.2-1.2,1.8-5.3,3-6.6
	c-0.8-1.8,0.6-3.6,0.2-5.9c-0.4-2.1,0.6-4.3,0.7-6.5c0.1-2,0.3-4.1-0.4-5.8c-0.8-2-0.4-3.9-0.6-5.8s0.4-4.1-0.1-6
	c-1.2-3.7-0.8-7.6-1.9-11.2c-1-3.4-1.9-6.9-3-10.2c-0.6-1.3-1.2-2.5-2-3.7c-0.7-1.3-1.4-2.6-2.6-4.7c4,2.7,6.5,3.3,11.6,3
	c0.2-2.8-2.7-4.1-3.1-6.1c-3-3.4-6.1-0.3-9.4-0.7l-2.4,2.9v2.8l2.6,2c0.6,2.6,0.7,4.4,1.5,5.9c1.8,3.6,2.1,7.5,2.9,11.3
	c0.4,2.3,0.6,4.8,1.4,6.9c0.4,1,0.5,2.1,0.5,3.2c0,6.7,0.1,13.3,0,20c0,2.2-1,4.4-0.9,6.6c0.1,2.3-0.8,4.4-1.1,6.6
	c0,0.3-0.6,0.5-1,0.8c-0.7-3.9,1.2-7.7,1-11.6s-0.1-7.7,0-11.5c0-1.4,1-2.7,0.9-4.1c-0.2-3.2-0.2-6.6-1.3-9.4
	c-0.9-2.3-0.2-4.6-1.5-6.9c-1-1.6-0.5-4.1-1.2-6c-0.8-2.4-1.1-4.9-0.9-7.4c-2.7,3.9-4.9,7-8.2,9c-2-1.5,0.2-2.3,0.3-3.5
	c0.1-0.9,1.3-1.7,2.3-3l-2.3-1c1.7-3.3,2.4-7,1.7-10.6c-3.8,0-6.6,2.3-9.7,4.2v12.7l-2.6,4c0.9-0.2,1.2-0.2,1.4-0.4c2-2,4-4,6-6
	c0.6-0.4,1.2-0.7,1.9-0.9c0.1,1.5-1,1.9-1.6,2.5c-0.7,0.9-1.6,1.7-2.4,2.5l-2.1,2.1c-0.7,0.7-1.4,1.4-2.1,2.1
	c-0.8,0.7-1.7,1.4-2.7,2c-0.9,0.5-1.8,0.9-2.7,1.3c-0.1-1-0.2-1.6-0.3-2.6c3.6-3.5,6.5-7.5,6.1-13.6c-0.8-0.3-2-1.2-2.8-1
	c-1.7,0.6-3.6,0.4-5.1,1c-2.4,1-4.8,0.7-7.1,0.8c0-0.5-0.1-1.1-0.1-1.9l-3.6,1.9c1.9,0,2.8,0,3.8,0.1c-0.4,0.7-0.8,1.3-1.3,2.1
	c-1.6,0-3.1,0-4.7,0c-0.8-1.3-1.7-2.6-2.6-3.9c-1.7-0.3-3,0.2-3.5,2.1c1.7,1.8,3.8,2.1,6.1,1.8c-1.2,2.2-3.3,2.1-5.8,2l-2.5-3h-6.3
	l-1.4-1.4v-3c-4.5-1.6-5-6.6-8.3-9.4c1.8-4.2,2.6-8.8,2.2-13.4l4.7-8.6c0.8,4-1.5,5.8-3.2,8.3l3.6,0.9l-2.9,3.1
	c2.5,3.8-0.8,6.1-2.6,9.2l3,0.4c1.2-2.2,1.7-4.8,4.3-5.9c-0.4,1.9-0.7,3.7-1.1,6.2l6.3-6.2c0.2,1-0.2,2-1,2.5
	c-0.8,0.5-1.2,1.5-0.8,2.3c-2,1-2.8,2.2-1.6,4.4c0.6-1.6,1.1-2.8,1.6-4.4c0.4,0.1,0.9,0.2,1.4,0.2c-0.2,1.8-0.5,3.6-0.8,5.4
	c0.8,0.7,1.5,1.3,2.5,2.1c0.7-1.9,1.2-3.5,1.7-4.9l3.7-2.5c0.1,0.4,0.4,1,0.2,1.3c-0.7,1-1.5,2-2.7,3.4l3.2,0.2L1018.8,138z
	 M1015,144.5c-3.7-0.5-5.2,0.3-6.1,3.6C1011.6,147.7,1014,147.5,1015,144.5z M1072.2,125.2c-1.8,0.1-3.2-0.1-4.4,0.4
	c-0.7,0.3-1,1.8-1.3,2.6l1.8,1.8C1069.5,128.6,1071.2,127.6,1072.2,125.2z M1025.5,146.9l3.5,1.7l2.9-2.1l-2.7-1.2L1025.5,146.9z
	 M1007.7,146.6l-2.5-4c-0.3,3.4-0.3,3.4,0.6,4.9c0.1,0.2,0.4,0.2,0.7,0.3L1007.7,146.6z M1053.1,144v6c0-2.1,2.7-3.7,1.3-6H1053.1z
	 M1039.7,143.5l-2.3,2.3h2.3V143.5z"/>
<path d="M945.8,163.2c-1.1-4.4-1.2-4.4,0-7.8c0.6-1.8,1.5-3.3,0.1-5.3c-0.7-1.4-0.7-3,0-4.4c1.7-3.3,1.3-7,2.7-10.4
	c1.1-2.6-0.4-5.6-1.8-8.1c0.9-2.3,1.3-4.8,1-7.2c-0.1-1.7-0.1-3.3,0-5c0.4-6.5-1.1-12.6-3-18.8c-1.3-4.3-2.8-8.5-4.2-12.8
	c-0.8-2.5-2.4-4.7-3.8-7.5v-2c-2.4-2.9-4.3-5.7-6.8-8.1c-4-4-8.7-7-13.2-10.3c-0.1-0.1-0.3-0.3-0.3-0.3c-3.4,0.7-5.4-2.3-8.1-3.4
	s-5.5-2.1-8.2-3.1c-4.1-1.5-8.4-2.3-12.5-3.5c-2.7-0.8-5.1-2.2-7.9-2.8c-1.8-0.4-3.4-1.8-5.1-2c-3.7-0.4-6.4-2.4-9.4-4.5
	c-6,0.7-12.1-1.4-18.3-1c-6.2,0.5-12.3,0.4-18.5-0.1c-4-0.4-8.6-0.6-11.5-4.4l1.5-1.5c2.1-0.2,4.2,0.1,6.1,0.9
	c1.9,0.7,4.2-0.7,6.1,1c0.6,0.5,1.9,0.1,2.9,0.1c5,0,10,0,15,0c3.7,0,7.3,0.6,10.7,1.8c1.1,0.2,2.3,0.3,3.4,0.2c1.3-0.1,2.7-0.1,4,0
	c1.1,0.2,2.1,0.5,3.1,1c4.3,2,9,2.3,13.3,4c0.3,0.1,0.7-0.1,1,0c4.9,3.1,10.4,4.7,15.8,6.5c4.4,1.5,8.5,3.5,13.1,4.7
	c3.9,1,7.5,3.5,11.1,5.6c2.3,1.3,4.5,2.9,6.6,4.6c4.5,3.8,6.8,9.1,9,14.3c1.4,3.4,3.1,6.7,4.6,10.1c1.6,4.2,2.9,8.6,3.8,13
	c0.8,3.9,0.7,7.7,0.9,11.6c0.2,1.4,0.6,2.7,0.9,4.1c0.2,1.4-0.5,3,1,4.1c-0.4,2.6,0.8,5.2-0.7,7.7c-0.3,0.7-0.4,1.6-0.3,2.3
	c0.7,6.1-1.1,12-1.1,18.1c0,0.7-0.6,1.4-1,2.3c2,3.1,2.7,6.8,1.8,10.4C949.1,159.3,948.2,161.9,945.8,163.2z"/>
<path d="M579.8,81c-0.4,1.2-1.2,1.5-2.3,2.1c-6,2.9-12.1,5-18.9,3.7l-3.8-4l1-5.8c1.5-1.3,2.9-2.3,4.1-3.5c5.8-5.9,6.1-5.5,14-8.4
	c0.3-0.1,0.8,0.1,1,0c3.3-3.8,9.1-2.5,12.5-6c3.4-0.6,6.4-2.5,9.8-2.9c2.1-0.2,3.9-1.2,5.8-1.7c2.3-0.6,4.5-1.1,6.9-1.5
	c4.1-0.7,8.4-1.2,12.4-2.7c0.4-0.2,0.9-0.2,1.4-0.2c6.1,0.8,12-1.4,18.1-1c1.3,0.3,2.6,0,3.7-0.8c0.8-0.7,2.7-0.5,3.8-0.2
	c4.6,1.6,9.8,0.6,14.3,2.9c0.3,0.1,0.7,0,1,0c9.9,0.8,14.3,2,25.7,6.7c0.9,0.3,1.8,0.5,2.7,0.7c4.6,1.4,8.9,3.6,12.8,6.4
	c4.7,3.2,10,5.5,15.1,8.1c2.5,1.2,4.8,2.5,6.1,5c-0.6,0-1.2-0.2-1.8-0.4c-5.3-2.6-10.5-5.1-15.8-7.8c-1.3-0.6-2.4-1.5-3.5-2.5
	c-2.7-2.6-6-4.6-9.7-5.7c-4.7-1.5-9.1-3.8-14-4.9c-3.6-0.8-6.9-2.9-10.8-2.8c-0.6,0-1.1-0.5-1.7-0.7c-2.5-0.6-4.8-1.4-7.5-1.4
	c-3,0.1-6.1-0.3-9-1.2c-3.3-1.3-6.5-0.2-9.7-0.7c-1.6,1.6-3.7,1.1-5.6,0.9c-5.9-0.6-11.7,1.3-17.6,1.1c-1.4-0.1-2.8,0.3-4,1
	c-2.4,1.6-5,1.8-7.7,2c-2,0.3-3.9,0.8-5.8,1.5c-3.1,1-6.3,1.9-9.5,2.4c-0.6,0.2-1.2,0.4-1.7,0.7c-3.1,1.4-6.2,2.7-9.5,3.6
	c-1.8,0.6-3.5,1.4-5,2.5c-1.8,1.3-3.8,2.1-6,2.3c-2.5,0.4-4.8,1.6-6.5,3.5c-1.3,1.4-2.8,2.6-4.7,4.2c-0.3,1.8-0.8,4.2-1.2,6.4
	l2.4,2.4c0.3,0.1,0.6,0.2,0.9,0.2c3.8,0,7.3-1.4,10.9-2.6C575.2,81.7,577.3,80.6,579.8,81z"/>
<path d="M770.8,229c0.4,1.2,1.2,1.6,2.3,2.1c2.1,1.1,4.1,2.3,5.9,3.7c0.5,0.3,0.6,1,1.4,2.3l-14.2-6.2c-1.5,0.5-2.6,1.1-2.5,2.7
	c0.1,2.8-1.6,4.7-4.1,7c0.6-2.2,0.7-4,1.5-5.3c0.7-1.1,0.5-2.2,0.6-3.2c1.9-0.5,0.6-2,1-3c0.3-0.3,1-0.5,1-0.8c-0.1-3,1.3-5.5,2.4-8
	c1.5-3.4,3.1-6.7,4.6-10.1c0.1-0.3,0.1-0.7,0-1l6.7-6.1c2.6,0,5.8-0.1,8.9,0s6,0.7,9.2,1.1c0.1,0.4,0.2,0.8,0.4,1.4
	c-3.2,0.5-6.3,1.1-9.4,1.4c-3.3,0.2-6.7,0.1-10.1,0.1c-3.6,2.6-4.1,7.2-6.6,10.6c2.4,1.6,4.6-0.2,6.9-0.6c5.2-0.9,10.3-2.2,15.3-4
	c2-0.7,3.9-1.8,5.9-2.6c0.6-0.2,1.2-0.3,1.8-0.4l-5.8,5.8c8.8,1.4,14.1-4.1,19.3-9.8h3.6c-0.2,2,2.1,3.8,0.6,5.9l-1.3,0.1
	c-0.1-1.2-0.3-2.4-0.4-3.8H813l-7.1,8.4c-3.3,0.8-6.4,1.1-9.4,2.1c-1.1,0.2-2.3,0.3-3.4,0.2c-3.5,0-7.2-0.7-10.4,0.2
	c-4.5,1.2-9,0.4-13.7,1l-2,3.3c2.2,1,4.8,1.6,6.7,3.1c3.3,2.6,7.2,3.6,11.4,5l-2,1.8c-0.6-0.4-1.1-1.1-1.6-1.1
	c-3.7,0.3-6.6-1.7-9.7-3.2c-0.3-0.1-0.7-0.1-1,0c-0.1-1.5-1.2-0.9-2.3-1c-1-0.8-2-1.6-2.9-2.5c0.5,1.5,1.1,2.8,2.9,2.5
	C768.9,229.5,770.1,228.9,770.8,229z"/>
<path d="M1081.1,108l3.6-1.4v-2.3c-1.4-1-3.9,0.9-4.6-2l3-0.6l-1.3-2.8c0.4-0.6,0.7-1.3,1.2-2.1c-1.7-2.5-4.3-3.1-7.6-2.8
	c0.6-1.4,1-2.2,1.4-3c-0.7-2.7-3.6-2.7-5.5-3.8s-4.3-0.8-6.5-1.2s-4.3-0.8-6.4-1.1l-3,4.9c-0.2-1.5-0.1-3.1,0.3-4.6l-1.5-0.3
	c-0.9,3-1.8,5.9-2.8,9h-1.7c0-3,1.5-5.7,2-8.8l-4.9,2.3v5.2l-2.5-3.9l-8.4,1.5c0,0.7-0.1,1.3-0.1,1.9l6.5,7.7h-3.5
	c-1.4-3.6-3.9-6.8-7.1-9l-3.4,2.9l2.6,1.6l-0.3,0.6l-5.7-1.4c4.8-5.1,10.8-7.6,18.2-7.6c4.1-2.7,8.9-4.1,13.8-4c2.5,0.1,5-0.1,7.5,0
	c5.4,0.3,10.2,1.8,14,6c2,2.2,4.2,4.3,6.4,6.4v6.8c1.1,0.7,2.1,1.4,3.3,2.2c-1.8,3.6-3.5,7-4.9,9.6l-7,1.9l-1.4-1.7l3.3-0.5l3.9-3.1
	C1081.9,110.1,1081.6,109.3,1081.1,108z"/>
<path d="M743.8,185c1.9,3.2,2.9,6.8,3,10.4c0.1,7.6,0,15.3,0,23.5l4.2,3.5c-0.7,2.5-0.9,4.9-3.8,5.8c-1.1,0.4-1.9,1.8-2.9,2.8
	c-4.8,0.3-8.5-1.3-10.7-6.2c2.9-3.2,6.8-5.3,11-6c-0.4-1.9-0.6-3.9-0.8-5.8C743.8,203.6,743.8,194.3,743.8,185z"/>
<path d="M565,116.3l-3.9-1.4l-7.2,4.4v2.6l3,0.4c-1.9,1.7-1.9,1.7-5.1,1.6l-1.3-3.5c2.4-1.9,4.6-3.5,6.7-5.3c0.7-0.6,1.6-1,2.5-1.2
	c3.8-1.4,7.3-3.4,10.5-5.9c3.6-2.6,7.5-4.5,11.1-7c7.8-5.6,17.2-7.6,25.9-11c1-0.4,2-0.7,3.2-1.1l0.8,1.5c-3.8,1.5-7.3,3.4-11.1,4.5
	c-7.5,2-14.4,5.6-21.2,9.2c-2.8,1.5-5.1,3.8-7.5,6C569.2,111.9,567.3,114,565,116.3z"/>
<path d="M810.7,167.6c0.1-1.1,0.2-1.8,0.3-3.1c2.1,1.4,3.8,2.5,5.4,3.7c3.2,2.5,6.3,5.2,10.6,5.8c6.5,4,14.1,5.2,20.9,8.5
	c2.2,1.1,4.4,2.3,6.6,3.6c0.1,0.5,0.2,0.9,0.2,1.4c0,0.6-0.1,1.1-0.2,1.6c-4.5-3.9-9.8-5.5-15.1-7c-4.5-1.2-8.9-2.6-13.2-4.3
	c-3.2-1.1-6.3-2.7-9.1-4.7C814.9,171.5,813.2,169.4,810.7,167.6z"/>
<path d="M815.3,203.1c-3.8-0.6-6.5,2.7-10.1,2.9c1.3-2.1,2.2-2.5,7-3.9c3.3-1,3.3-1,8.2,1.1c2.8,6.5,2.1,16.6-4.4,21.2
	c-0.5,3.8-1,7.5-1.5,11.5l-1.6,0.3v-9l-10.5,6.1l-0.7-1.2c2.7-2.8,6.3-4.1,9.3-6.3c3-2.3,5.6-5.2,7.7-8.4v-10
	C816.9,206.5,817,204.2,815.3,203.1z"/>
<path d="M659.7,228.8h-3.6c-0.9-0.9-2-2-3.1-3.1c-4.7-4.3-7.7-10.2-8.5-16.6c-0.3-2.4-0.7-4.7-0.9-7.1c-0.2-1.2-0.6-2.5-1-3.6
	l1.5-1.4l1.5,1.4c-0.7,7.1,2.2,13.8,4.1,20.6c0.5,1.8,2.2,3.4,4,4.8c-0.2-1-0.4-2-0.7-2.9c-1-2.6-2.3-5.1-3.3-7.6
	c-0.5-1.1-0.9-2.3-1-3.6c-0.2-2.5,0-5.1,0.5-7.6c0.5,1.1,1,2.2,1.4,3.4c0.5,1.3,0.8,2.7,1,4.1c0.9,5.1,2.7,9.9,5.4,14.3
	C658.1,225.5,658.9,227.1,659.7,228.8z"/>
<path d="M694.8,194c1.6-1.4,3.1-2.9,4.8-4.2c2.1-1.6,4.2-3,6.4-4.4c0.6-0.2,1.2-0.3,1.8-0.3c0.3,0.3,0.6,1,0.8,0.9
	c1.2-0.2,2.4-0.6,3.9-0.9c0.1,0.5,0.3,1,0.5,1.6l-10.1,2.5c0,0.7,0.1,1.2,0.1,1.6c0.4,0.1,0.7,0.4,1,0.3c6.6-2.3,13.1-3.1,19.6,0.2
	c0.8,0.4,1.5,0.9,2.9,1.8c-1.7,0-2.8,0.4-3.5-0.1c-2.1-1.3-4.4-0.9-6.6-0.9s-4.5-0.6-6.5,1c-0.1,0.1-0.3,0-0.5,0L694.8,194z"/>
<path d="M762.8,153l-3.2,4l1.2,1l-3.5,4.2l-2.9-1.4l-2.3,4.7l-3.7,4.1c-0.7,3-1.2,5.2-1.8,7.4l-0.8-0.1c0-1.4-0.4-3.1,0.1-4.3
	c1.4-3.6,1.6-7.7,4-10.8c2.9-3.8,3.9-9.1,8.9-11.8c0,0.6,0,1.2-0.1,1.8c-0.9,0.8-1.8,1.7-2.5,2.6l2.5,0.7c0-1.3,0-2.2,0.1-3.4
	c0.8-0.2,1.6-0.5,2.3-0.9L762.8,153z M757.1,160.2l2.5-2.5l-2.8,0.6C756.8,159,756.9,159.4,757.1,160.2z"/>
<path d="M275.8,169.8l-8.4,5.9c-3.6-1.9-3.6-1.9-4.5-4.7c0.6,0.4,1.1,0.9,1.5,0.9c1.3,0.1,2.6,0,3.8,0l4.2-3c0.5-5.6,1-10.9,1.4-16
	l5.7-5.7c0.1,0.5,0.2,1.2,0.3,1.8l-4,3.9V169.8z"/>
<path d="M696,221.8l-5.2-5.2l1.5-1.6c3.2,3.5,7.5,4.7,11.8,6.1c5.8,1.9,11.6,2,17.9,2.5l-1.8,0.6C712,225.7,703.7,224.8,696,221.8z"
	/>
<path d="M797.6,111c3.5,0.1,5,2.6,5.9,4.5c1.5,3.3,3.5,6.4,4.5,10.1c1.2,4.1,0.5,8.1,0.5,12.1c0,1.4-0.9,2.9-1.8,4.4
	c0-1.9-0.1-3.9,0-5.8c0.5-5.6-1.5-10.6-3.8-15.4c-1.1-2.4-3.1-4.4-4.5-6.6C798.1,113.2,797.8,112.1,797.6,111z"/>
<path d="M735.9,155c0.3,1.9,0.8,4.2,1.2,6.8c1.7,2.6,2.6,5.6,2.6,8.6c0.3,6.1,0.1,12.3,0.1,18.4c0,0.4-0.2,0.8-1,1.2
	c0-2.6-0.1-5.2,0-7.8c0.2-5.3-1.3-10.3-2.7-15.3c-0.2-0.4-0.3-0.9-0.3-1.4c0.1-6.8-3.5-11.9-7.7-16.7c-0.1-0.2-0.2-0.4-0.3-0.6h2.6
	L735.9,155z"/>
<path d="M878.8,106l-3.1-3.8c0.1-0.4,0.3-0.8,0.6-1.5c0.7,0.6,1.5,1.2,2.4,1.7c1,0.4,2,0.7,3,1l5.5,5.5h3.4l6.2,6.1l-0.5,1.2
	c-2.2-0.8-3.2-2.9-4.9-4.1c-2.8,2-5.7,0.5-8.5-0.1l-1-2.7l2.9,0.5C882.8,108.3,881.4,106.2,878.8,106z"/>
<path d="M261.6,135.4c1.2,0.7,1.1,1,1.2,1.1c2,1.8,8.1,4.3,11,4.5v1.5l5.2,1.9l-0.5,1.6c-4.1-1.7-8-3.4-12-5c-1.7-0.7-3.7-1-5.1-2.1
	c-1.9-1.6-3.8-3.4-5.4-5.3v-4.3c0.3,0,0.5,0,0.7,0.1c2.8,1.7,5.5,3.5,8.1,5.2C265,136.5,263.7,135.9,261.6,135.4
	c-0.5,0.2-0.3,0.6-0.2,0.6c0.5-0.1,0.9-0.3,1.4-0.4C262.2,135.4,261.6,135.2,261.6,135.4z"/>
<path d="M742.8,185.5c0,3.3-0.1,6.3,0,9.3c0.4,7.7-0.5,15.3-1.3,23.1l-1.7,0.2c-0.1-0.6-0.1-1.3,0-1.9c1.8-5.8,0.7-11.7,1-17.6
	c0.1-1.4-0.5-2.9,0.9-4.1c0.4-0.4,0-1.6,0.1-2.4c0.2-2-2.2-3.8-0.6-5.9c1.4-1.8-0.1-4,1.4-6c0.9-1.1,0.2-3.4,0.7-5.1
	C742.9,178.5,747.4,182.1,742.8,185.5z"/>
<path d="M1034.7,111.8h-3.5c-0.2-0.5-0.5-1.2-0.9-1.9l-8,2.6l0.1,0.5h-5.4c-0.1,0.6-0.2,1.1-0.4,1.9l-2.5,0.1
	c-0.2-0.7-0.3-1.2-0.4-1.6c-4.3,0.2-6.9,4.1-10.7,5.4c2.6-3.3,5.4-6.2,9.7-7.2c0.9-0.3,1.8-0.5,2.8-0.6c3.7,0,7.3-0.6,10.8-1.8
	C1029.1,108.4,1032.4,108.3,1034.7,111.8z"/>
<path d="M790.7,190.2c0.1,0.5,0.2,1.1,0.1,1.6c-2.7-1.1-5.2-2.2-7.9-3.1s-5.4-1.4-8.2-2.2c2.1-1.7,4-4,6.8-1.4
	c1.6-0.5,2.6-1.8,4.5-0.5c2.7,1.9,5.8,3.3,9.3,5.2c-0.9,0.5-1.5,1.1-2,1.1C792.5,190.9,791.6,190.4,790.7,190.2
	c-0.5-1.3-0.9-2.6-3.2-1.8C788.5,189.1,789.5,189.7,790.7,190.2z"/>
<path d="M799.1,123.1c-1.1-1.4-2.1-2.8-2.9-4.3c-0.9-2-2.5-3.7-4.4-4.8c-3.9-2.3-7.2-5.5-11.5-7.1c-1-0.4-1.7-1.5-2.6-2.3
	c3.2-2,5.5,0.6,7.6,1.6c3.1,1.6,5.9,3.7,8.3,6.2c2.4,2.4,4.2,5.5,6.2,8.4c0.3,0.4,0,1.2,0,1.9L799.1,123.1z"/>
<path d="M1005.9,110.7v-3.2l4-3.4c4.4,0.1,9.2-1.6,13.8-3.6c2.1-0.9,3.9,0.2,5.2-0.6l8,4.1c-1.6,0-3.2-0.2-4.8-0.5
	c-1.2-0.3-2.2-1.3-3.3-1.6c-1.4-0.2-2.8-0.2-4.2-0.1c-2.2,2.3-5.5,1.8-8.3,3c-1.8,0.9-3.7,1.5-5.7,1.8
	C1007.6,107,1006.5,108.3,1005.9,110.7z"/>
<path d="M766.8,193c1.2-1.8,3.7-0.9,5.3-3.1l-4.1,0.6c0-0.1-0.1-0.6-0.3-1.3h5l1.5,1.8h9.1c2.2,0,4.3,0.8,6,2.1
	c0.8,0.5,1.7,0.8,2.6,1c0.8,0.3,1.3,1.2,1.9,1.9c-3.5,0.7-6.2-1.9-9.5-2.1c-0.9-1.4-2.3-0.9-3.6-0.9C776.1,193,771.4,193,766.8,193z
	"/>
<path d="M688.8,193c0.5-0.4,1.3-0.6,1.5-1.1c1-2.3,2.9-4.2,5.2-5.2c1.1-0.5,1.9-1.8,2.9-2.8c3.4,1.3,5.8-3.4,9.7-1.3
	c-3.8,2.2-8.4,2.8-10.8,6.5h-2.1c-0.4,1-0.9,2-1.4,2.9c-0.5,0.8-1.4,1.3-2,2.1c-1,1.4-1.8,3.1-4,2.9v-2
	C689.3,194.9,688.7,193.8,688.8,193z"/>
<path d="M712.9,152l-0.2-1.7c2.5-0.7,5.1,0,8.2-0.5l1.3-1.8c1.7,0,5.6,4.1,12,12.4c-0.9-0.3-1.8-0.7-2.6-1.2c-1.1-1-2.2-2-3.2-3.1
	c-2.6-2.8-6-3.9-9.7-4.1C716.9,151.9,715.1,152,712.9,152z"/>
<path d="M778.3,179.5c2.5-0.9,4.6,0.2,6.3-1.4c0.5-0.5,2-0.3,2.8,0.1c2.9,1.5,5.7,3.2,8.3,4.7v3.4L778.3,179.5z M791.2,182.2
	c-0.7-0.8-0.9-1.1-1-1.1c-0.5,0.1-0.9,0.3-1.4,0.4c0.6,0.2,1.2,0.3-0.2-0.6c-1.2-0.9-1.2-0.9-2.8,0
	C787,180.9,787.9,180.9,791.2,182.2L791.2,182.2z"/>
<path d="M750.4,114l1.5,1.5c-0.5,0.2-1.1,0.5-1.2,0.4c-1.2-1.3-2.7-1-4.1-1c-3.8,0-7.6,0-11.5,0c-1.2-0.1-2.3-0.4-3.4-0.7
	c-4.6,0.9-9.5,2.2-14.7,1.4c3.6-0.6,7.1-1.4,10.8-1.8s7.4-0.5,11-0.9C742.8,112.5,746.5,114.2,750.4,114z"/>
<path d="M1077.2,120h-5.1c-3.7-5.3-10.4-4.6-15.8-7.7c5.2-0.8,9.4,0.1,13.3,3c1.6,1.1,3.4,2,5.2,2.7l4.6-1.2l0.3,0.6l-3,1.4
	C1076.9,119.2,1077.1,119.6,1077.2,120z"/>
<path d="M1052.4,103.9l4.1-3.8c4.7,2.9,8.5-1.8,13.4-1.4l1.1,1.1c2.7-1.4,5.6-0.5,8.6-0.1c-0.6,0.1-1.3,0.5-1.8,0.3
	c-2.4-0.6-4.3,1.1-6.6,1.1c-2.1-0.2-4.3-0.2-6.4,0c-1.4,0.2-2.7,0.7-3.9,1.3C1057.2,104,1057.2,104,1052.4,103.9z"/>
<path d="M726.8,78c0.8,0,1.9-0.3,2.4,0c6.2,4.1,13.7,6.2,18.6,12.4c0.7,0.7,1.1,1.6,1,2.6c-5.4-4.1-10.7-8.3-17-11.1
	C730,81.1,727.7,80.2,726.8,78z"/>
<path d="M913.8,207c0-1.9,1-3.2,2.1-4.6s2.1-2.4,3.4-3.8c0.4,1,0.6,1.6,1,2.7l1.5-2.4l-0.8-1.6l3.1-5.1l2.7,2.5
	c-0.1,0.4-0.2,0.7-0.4,1.1c-1.7,2.1-3.5,4.2-5.2,6.3c-0.3,0.4-0.3,1.2-0.4,1.8h-1v-2.2L913.8,207z"/>
<path d="M849.5,200.6c1.4,3.7-1.2,6.1-1.9,9c-0.8,3.4-2.9,6.4-4.6,9.9l-4.3,2C842.7,214.7,846.4,207.8,849.5,200.6z"/>
<path d="M951.9,159.4c-0.7,1.8-1.5,3.6-2.1,5.5s-1.7,3.6-2.2,5.6s-2.7,3.8-4.6,6.3v-5.1c1.4-2.2,2.9-4.5,4.3-6.8
	C948.6,162.9,949.7,160.8,951.9,159.4z"/>
<path d="M1059.8,205c0,2.1,0.6,4.5-0.1,6.4c-2.4,5.8-3,12.2-6.4,17.6c0,0.1-0.3,0-0.5,0c-0.1-1.9-0.3-4.1,1.1-5.4
	c1.7-1.6-0.1-4,1.9-5.2c-0.4-3.1,1.5-5.7,2.2-8.5c0.4-1.3,0.7-2.7,0.9-4.1C1058.9,205.5,1059.5,205.3,1059.8,205z"/>
<path d="M916.1,90.8l-1.2-1.2v-6.5h3.2L923,87h-4.2v3.9L916.1,90.8z"/>
<path d="M716.9,178.8V173l3.2-1.4l2.7,3.3c-0.1,1.1,0.5,2.7-1.4,3.9L716.9,178.8z"/>
<path d="M614.7,88.6c0.4-0.7,0.6-1.8,1.2-2.1c1.7-1.1,3.5-1.9,5.5-2.3c2.3-0.4,4.6-1,6.7-1.8c1.6-0.5,3.5-0.1,5.4,0.1
	c-2.9,0.8-5.5,2.8-8.7,2.6c-2.2-0.1-3.6,1.7-5.6,2.2c-1.4,0.5-2.7,1.2-4,2.1L614.7,88.6z"/>
<path d="M897.1,121.9c0.8,0.2,1.3,0.2,1.4,0.4c1.5,3.5,3,7,4.2,10.6c0.5,1.5,0.1,3.2-0.5,5c-0.7-1.6-1.3-3.3-2-4.9
	c-0.8-1.6-1.5-3.3-2-5.1C897.8,126,896.3,124.2,897.1,121.9z"/>
<path d="M764.8,174.5v2.9l-2.8,4.1l-2-1.9v-5.7l3.2-1.1L764.8,174.5z"/>
<path d="M1022.1,104c3-0.1,6.5-0.3,9.6,1.4c0.8,0.5,1,0,1.5-0.2c1.6-0.7,2.8-0.1,3.9,1.8c-3.1-0.5-6,1.1-8.7-1
	c-2.3,0.4-4.9-1-7.1,0.9c-0.4,0.4-1.5,0.1-3.2,0.1L1022.1,104z"/>
<path d="M900.8,221c0.2-0.4,0.5-0.8,0.7-1.2c0.1-0.3,0.2-0.7,0.3-1c-0.3-0.4-0.6-0.9-0.9-1.4l1.3-1.5l1,1.1l6.5-5
	c0,0.6-0.1,1.2-0.3,1.8c-1.9,2.8-3.9,5.6-5.7,8L900.8,221z"/>
<path d="M901.3,112.1l-0.8,2l-6.1-6.1l0.6-1c-1-1.1-2.1-2.3-3.3-3.7c2-0.8,3.1,1.1,4.9,1.6c0.1,1.2,0.2,2.3,0.3,3.9L901.3,112.1z"/>
<path d="M918.5,122.7c0.5,4.1,1,7.5,1.2,10.8c0.2,3.5,0.1,6.9-0.3,10.4c-1-3.1,0.2-6.5-0.9-9.3c-1.2-3.1,0.4-6.5-2.3-9.1
	L918.5,122.7z"/>
<path d="M890.8,200c-0.4-1.6,1.2-2.2,1.7-3.3c1.6-3.4,4.5-6,5.7-9.6c0.2-0.5,0.8-0.8,1.8-0.7c-1.3,2.6-2.6,5-3.8,7.7
	c-0.5,1.3-1.8,2.3-1.4,3.9L890.8,200z"/>
<path d="M721.9,231.4l-1.5,1.5c-4.9,0.1-9.7,0.5-14.3,2.9c-0.1-0.2-0.2-0.6-0.5-1.2c1.8-0.9,3.6-2.5,5.3-2.4
	C714.7,232.3,718.1,229.8,721.9,231.4z"/>
<path d="M904.5,123.6l-2.5-3.8c-0.2,1.1-0.3,2-0.4,3c-0.3-0.1-0.7-0.2-0.7-0.3c-0.7-1.7-1.4-3.3-2.2-5.1l1.5-0.5
	c0.3,0.7,0.7,1.4,1.2,2.5c0.3-1.3,0.5-2.3,0.7-3.5C904.3,117.8,905.2,120,904.5,123.6z"/>
<path d="M892.8,226l1-1l3-2.4l4-1.6v2l-3.8,3.1h-1.8c-0.2,0.6-0.5,1.2-0.7,1.9h-1.6V226z"/>
<path d="M781.3,158.6l-12.4,1.5v-1.8c1.4-0.4,2.7-0.8,4.1-1c1.2-0.3,2.5-0.4,3.8-0.3C778.3,157.4,779.8,158,781.3,158.6z"/>
<path d="M921.5,77.8h-3c0.4-1,0.7-1.6,1.2-2.7l-3.1-2.5l1.5-1.6l6.2,4.5l-3.3,0.6L921.5,77.8z"/>
<path d="M1037.1,140.7c-0.5-5.5-0.5-10.1,1.6-14.6C1038.6,130.8,1039.5,135.5,1037.1,140.7z"/>
<path d="M932.9,190.1c-2-0.6-2.5,1.3-4.1,2c0-4.4,3.4-7.3,4.4-12.1c1.1,3.7-0.5,5.8-1.5,8.1C932.1,188.6,932.5,189.3,932.9,190.1z"
	/>
<path d="M893.8,207.5l-1.1-1.2l6.1-3.2c-0.1,0.7-0.3,1.4-0.6,2c-1.9,2.4-3.8,4.7-5.9,7.1C890.8,209.8,894.4,209.4,893.8,207.5z"/>
<path d="M1049.8,100c1.4-2.4,2-5.3,4.1-6.6l2.2,1.3l-2.3,3.3v1l-1,1H1049.8z"/>
<path d="M723.9,201.9l-9.9-6.6c1.7-0.8,3.2-0.2,4.8,0.7C721.1,197.4,722.8,199.4,723.9,201.9z"/>
<path d="M1049.9,130.6c-2.4-3.4-4.8-7-3.8-11.8l1.2,1.1C1048.2,123.8,1049.1,127.2,1049.9,130.6z"/>
<path d="M194.9,163.1c0-0.8-0.1-1.6,0-1.6c2.1-0.9,4.3-1.7,6.5-2.4c0.7-0.2,1.6,0.7,3.2,1.5L194.9,163.1z"/>
<path d="M904.8,99.5l2.5-2.5l4.4,5.8C908.6,103.4,906.7,101.4,904.8,99.5z"/>
<path d="M767.7,192.8c-3.2,2.4-5.8,2.2-8.6,2.1c2-2.6,2-2.6,5.8-4.2c-0.4,1-0.6,1.5-0.9,2.1H767.7z"/>
<path d="M1056.8,118.1c3.6,0.3,7.3,2.5,7.8,4.7c-0.8-0.3-1.7-0.5-2.4-0.8c-1-0.3-2-0.7-3-1.1c-0.8-0.4-1.6-0.9-2.4-1.4V118.1z"/>
<path d="M894.8,198c1.2-1.3,2.4-2.6,3.6-3.9c-0.1,2.6-1.3,5-4,7.9c-1.1-0.4-2.8,1.2-3.6-0.9l4-1.3V198z"/>
<path d="M893,122c-0.3-1.8-0.7-3.7-1.3-5.5c-0.3-0.8-1.4-1.2-2.3-2c2.7-1.6,2.7,1.5,4,1.5c0.5,2.4,1,4.4,1.5,6.9L893,122z"/>
<path d="M738.3,208.2c1.1,4.1,0.1,7.9-1,12.4C736,215.9,737.5,212,738.3,208.2z"/>
<path d="M711.1,117.4l-8,3.9C703.5,117.5,705.1,116.8,711.1,117.4z"/>
<path d="M924.8,146.6l1.4-13.6C926.8,137.7,927.4,142.5,924.8,146.6z"/>
<path d="M559.3,126.2l-1.6-2.7c3.3,2.3,5.2-1.5,7.9-1.6C563.4,124.9,563.4,124.9,559.3,126.2z"/>
<path d="M909.6,96.7l1.4-1.4c2.3,0.9,5.3,0.9,5.9,4.7L909.6,96.7z"/>
<path d="M1046,102c-0.1-1.1-0.1-2.2-0.2-3.5l-2.3-2.5l1.7-1.8c0.9,1.2,1.8,2.4,2.8,3.9l-1.5,4L1046,102z"/>
<path d="M899.6,191.6l3.5-8.7l1.5,1.6C903,186.7,902.6,189.9,899.6,191.6z"/>
<path d="M908.6,133.9c-0.5,0-1,0.2-1.2,0.1c-0.9-0.7-1.7-1.5-2.5-2.3v-3.8c0.8,0.2,1.6,0.3,1.8,0.6C907.4,130.2,908,132,908.6,133.9
	z"/>
<path d="M1080.9,109.5c-3.8,1.8-7.2-1.3-10.9-0.6C1073,107.7,1073,107.7,1080.9,109.5z"/>
<path d="M926.6,72.2c-1.7-1.8-4.1-2.4-4.7-5.4l4.7,2.2V72.2z"/>
<path d="M599,73.7c1.9-1.5,4.1-2.4,6.5-2.5C603.3,73.8,602.8,74,599,73.7z"/>
<path d="M791.8,177.1l-4.8-1.5l-2.2-2.2c0.4-0.2,0.8-0.5,1.1-0.4C788.5,173.5,790.2,175.1,791.8,177.1z"/>
<path d="M572.6,116.1h2.8c0.4,0.4,0.4,0.4-1.9,2.8h-3.2L572.6,116.1z"/>
<path d="M1051.8,100h1c0.5,2.1-1.5,2.7-2.4,3.9l-3-1.8l2.4-2.1v2.7L1051.8,100z"/>
<path d="M930.5,155.5c1.1,3.7-1.2,5.8-2.3,9.3C927.6,160.8,929.4,158.4,930.5,155.5z"/>
<path d="M922.1,144.6V135h0.5v10L922.1,144.6z"/>
<path d="M638.5,81.7c4.1-1.9,4.1-1.9,8.3-0.9C644.1,80.3,641.7,82.8,638.5,81.7z"/>
<path d="M1039.2,112.3l-2.8,5.7c-1.5-1.5-0.1-2.6,0.6-4.1l-1.1-1.7H1039.2z"/>
<path d="M1020.2,137.9c1.6,2.1,2.6,3.4,3.5,4.6C1020.3,143,1020,142.7,1020.2,137.9z"/>
<path d="M1055.7,126.1v4.4l-3.1-5l0.5-0.6L1055.7,126.1z"/>
<path d="M1040.8,228c0-0.9,0-1.9,0-2.9c-0.1-1.6,0.4-2.7,2-3.1C1042.8,224.2,1043.2,226.6,1040.8,228z"/>
<path d="M760.8,158l2.4-3h2.6l-2.4,3H760.8z"/>
<path d="M1061.6,107.8h-6.3c1.2-0.9,1.9-1.8,2.5-1.8c1.4,0.3,2.7,0.7,4,1.2C1061.7,107.5,1061.7,107.7,1061.6,107.8z"/>
<path d="M751.8,98l-1.8-1.3l-1.2-0.8V93l1.8,1.3l1.2,0.8V98z"/>
<path d="M927.8,148v4.5l-1.4,1.4C925.1,153.3,925.6,151,927.8,148z"/>
<path d="M755.2,102l2.9,4.4l-1.8,0.7C755.9,105.5,754,104.3,755.2,102z"/>
<path d="M938.4,182.7c1-1.8,1.8-3.3,2.8-5.1C941.8,181,941.8,181,938.4,182.7z"/>
<path d="M913,137.4v-6.2l1.9,5.4L913,137.4z"/>
<path d="M708.9,158.6l2.5-2.6l2.2,0.1c-0.1,0.4,0,0.7-0.2,0.8c-1.3,0.8-2.6,1.6-4,2.4L708.9,158.6z"/>
<path d="M1060.8,94l-3.3,4h-1.7C1057.1,96.2,1058.1,94,1060.8,94z"/>
<path d="M881.8,214v2l-4.2,3.2C878.2,216.4,880,215.2,881.8,214z"/>
<path d="M930.4,174.1l-1.9-0.4c2.1-1.1,0.4-3.9,3-4.5C932.7,171.1,930.9,172.3,930.4,174.1z"/>
<path d="M896.6,101.1c2.5-0.2,3,1.6,4.3,2.5C898.1,103.9,898.1,103.9,896.6,101.1z"/>
<path d="M943.6,130.1v7.8c-0.4-0.2-0.8-0.3-0.8-0.4c0-2.4,0-4.9,0-7.3L943.6,130.1z"/>
<path d="M1029.8,116.9l-5,2.6C1027,116.3,1027,116.3,1029.8,116.9z"/>
<path d="M755.6,93.9c0.8,1.6,1.6,3.1,2.5,4.9l-3.3-3.1V94L755.6,93.9z"/>
<path d="M917.1,151.3l-2.6,4.8l-0.7-0.2c0.4-1.6,0.8-3.3,1.3-5L917.1,151.3z"/>
<path d="M909.8,212c0-2.7,2.2-3.7,4-5C913.8,209.7,911.6,210.7,909.8,212z"/>
<path d="M196.3,158.5l-2.5,1.7l-2-1.6C193.3,157.8,194.8,157.4,196.3,158.5z"/>
<path d="M930.8,139.9v-6.7l0.8-0.1c0.1,1.1,0.2,2.2,0.2,3.4s0,2.2,0,3.3L930.8,139.9z"/>
<path d="M163.9,166.8v-1.6c1.7-0.6,3-0.3,3.9,1.6H163.9z"/>
<path d="M909.9,163.8V157C911.2,160.2,911.1,161.8,909.9,163.8z"/>
<path d="M194.9,184.3c-3-1.6-3-1.6-2.7-4.3L194.9,184.3z"/>
<path d="M913,57.1c3-0.2,3.6,1.5,5.2,2.7C915.5,60.4,915.1,58.3,913,57.1z"/>
<path d="M912.8,195c0.1,1.7,0.2,3.4-2,4C910.7,197.3,910.6,195.6,912.8,195z"/>
<path d="M760.8,138c-2,2.4-2,2.4-3.8,2.8C758.9,138.5,758.9,138.5,760.8,138z"/>
<path d="M938.9,152.8V147C940.2,150.1,940.1,150.8,938.9,152.8z"/>
<path d="M1006.9,232.8v-1.7h2.9C1009.9,234,1008.1,232.7,1006.9,232.8z"/>
<path d="M576.9,241.4l-1.1,0.8l-3.2-2.9c0.8-0.1,1.4-0.5,1.6-0.3C575.1,239.8,576,240.6,576.9,241.4z"/>
<path d="M898.9,168.8V163C900.2,166.1,900.1,166.8,898.9,168.8z"/>
<path d="M913.9,202.8c-0.2-3,1.5-3.6,2.7-5.2C917.2,200.3,915.1,200.7,913.9,202.8z"/>
<path d="M763.6,146l1.8,3.2c-0.8-0.5-1.7-0.9-2.6-1.2c-0.9-0.1-1.7-0.1-2.6,0L763.6,146z"/>
<path d="M898.6,142.4c-0.6-0.6-1.2-1.3-1.8-2c-0.2-0.2,0-0.6,0-1.2l1.8-0.3L898.6,142.4z"/>
<path d="M934.7,110.2v5.8C933.4,113.3,934.1,111.7,934.7,110.2z"/>
<path d="M739,205.8V200C740.3,202.6,739.5,204.3,739,205.8z"/>
<path d="M1068.6,91.3c0.9-2.2,2.1-2.8,4.5-1.9L1068.6,91.3z"/>
<path d="M916.5,61.9l3,3.1C917.7,65.1,917.1,63.9,916.5,61.9z"/>
<path d="M614,67.3l3.6-1.1c0,0.3,0.2,0.8,0.3,1.6H614L614,67.3z"/>
<path d="M318.4,229.1h3.5l-0.7,2.5L318.4,229.1z"/>
<path d="M1028.2,114.9h-3c0.5-0.9,1.3-1.6,2.2-2.1L1028.2,114.9z"/>
<path d="M599.2,228.5l2.1,2.1C599.4,230.7,599.4,230.7,599.2,228.5z"/>
<path d="M937.8,158c-0.1-1.3-0.1-2.5,0-3.8c0-0.4,0.6-0.8,1-1.2c0.1,1.3,0.1,2.5,0,3.8C938.7,157.2,938.1,157.6,937.8,158z"/>
<path d="M942,124.8v-3.7h0.6l0.2,3.6L942,124.8z"/>
<path d="M771.6,154.6c-0.3,1.5-0.8,2.8-3.1,2L771.6,154.6z"/>
<path d="M899.7,201.5c0.5-0.9,1-1.7,1.5-2.7C902.7,200.6,900.9,201.1,899.7,201.5z"/>
<path d="M900.9,172.2v-4.1c0.3,0.1,0.5,0.2,0.8,0.3C901.5,169.6,902.5,171.2,900.9,172.2z"/>
<path d="M851.2,215.2l-2,3.1C848.4,216,849.7,215.6,851.2,215.2z"/>
<path d="M1007.1,123.3l-3,2.2C1004.9,123.4,1004.9,123.4,1007.1,123.3z"/>
<path d="M755.2,93.8c-1.5-0.3-2.8-0.8-2-3.1L755.2,93.8z"/>
<ellipse cx="915.3" cy="140" rx="0.3" ry="2.8"/>
<path d="M1018.4,137.8l2-3.1C1021.3,137,1019.9,137.4,1018.4,137.8z"/>
<path d="M712,116.2h3.7v0.6L712,117C712,116.8,712,116.5,712,116.2z"/>
<path d="M838.8,227c0.3,1.3-0.5,2.6-1.8,3c-0.1,0-0.1,0-0.2,0c-0.3-1.3,0.5-2.6,1.8-3C838.7,227,838.8,227,838.8,227z"/>
<path d="M652.6,79.8H649v-0.6l3.6-0.2L652.6,79.8z"/>
<path d="M885.4,207.8l2-3.1C888.3,207,886.9,207.4,885.4,207.8z"/>
<path d="M883.8,211c0.3,1.3-0.5,2.6-1.8,3c-0.1,0-0.1,0-0.2,0c-0.3-1.3,0.5-2.6,1.8-3C883.7,211,883.8,211,883.8,211z"/>
<ellipse cx="900.3" cy="145" rx="0.3" ry="2.8"/>
<path d="M765.8,151c-0.2,1.3-1.5,2.3-2.8,2c-0.1,0-0.1,0-0.2,0c0.2-1.3,1.5-2.3,2.8-2C765.7,151,765.8,151,765.8,151z"/>
<path d="M1005,112.5l-1.5,2.7C1002,113.4,1003.7,112.9,1005,112.5z"/>
<path d="M885.4,212.8l2-3.1C888.3,212,886.9,212.4,885.4,212.8z"/>
<path d="M902.6,162.2v3.6H902l-0.2-3.6L902.6,162.2z"/>
<path d="M918.6,111v3.9h-0.5V111H918.6z"/>
<path d="M900.8,210.6c0.8-0.8,1.2-2.2,3-1.2C903,210.2,902.6,211.6,900.8,210.6z"/>
<path d="M909,208.5c-0.5,0.9-1,1.7-1.5,2.7C905.9,209.4,907.7,208.9,909,208.5z"/>
<path d="M885.8,208c0.3,1.3-0.5,2.6-1.8,3c-0.1,0-0.1,0-0.2,0c-0.3-1.3,0.5-2.6,1.8-3C885.7,208,885.8,208,885.8,208z"/>
<path d="M164.1,169h1.4l0.4,1.8l-1.8,0.4L164.1,169z"/>
<path d="M751.4,98.2c1.5,0.3,2.8,0.8,2,3.1L751.4,98.2z"/>
<path d="M1044.7,98.2v3.7h-1.7C1043.4,100.9,1043.8,100,1044.7,98.2z"/>
<path d="M1005.3,128.7l2.2-3C1007.4,127.9,1007.4,127.9,1005.3,128.7z"/>
<path d="M904.7,148.2v2.7h-0.5c-0.1-0.9-0.2-1.8-0.4-2.6L904.7,148.2z"/>
<path d="M1010.8,129l-2,2v-2H1010.8z"/>
<path d="M914.9,190.9V188C915.9,189.7,915.9,189.7,914.9,190.9z"/>
<path d="M582.8,80c0.5-1.9,2-0.6,3-1C585.3,80.9,583.8,79.6,582.8,80z"/>
<path d="M908,110c0-1-0.1-2-0.1-2.9l0.7-0.1l0.4,2.9L908,110z"/>
<path d="M917,111c0-1-0.1-2-0.1-2.9l0.7-0.1c0.1,1,0.2,1.9,0.4,2.9L917,111z"/>
<path d="M1038.7,225.1v2.9C1037.8,226.3,1037.8,226.3,1038.7,225.1z"/>
<path d="M1030.9,133.9V131C1031.9,132.7,1031.9,132.7,1030.9,133.9z"/>
<path d="M1039.8,231c0.4-1-0.9-2.5,1-3C1040.4,229,1041.7,230.5,1039.8,231z"/>
<path d="M1010.3,128.5l2.4-1.5c0,0.7,0.1,1.2,0.1,1.9l-2,0.1L1010.3,128.5z"/>
<path d="M968.8,221c-1.9-0.5-0.6-2-1-3h1V221z"/>
<ellipse cx="901.3" cy="176.5" rx="0.3" ry="2.1"/>
<path d="M1051.4,115.7l-1.2-2.3C1051.6,113.1,1051.6,113.1,1051.4,115.7z"/>
<path d="M909.7,164.1v2.9C908.8,165.3,908.8,165.3,909.7,164.1z"/>
<path d="M1060.3,93.5l2.4-1.5c0,0.7,0.1,1.2,0.1,1.9l-2,0.1L1060.3,93.5z"/>
<path d="M1014.5,121.4l-2.3,1.2C1011.9,121.2,1011.9,121.2,1014.5,121.4z"/>
<path d="M579.8,81c0.5-1.9,2-0.6,3-1C582.3,81.9,580.8,80.6,579.8,81z"/>
<path d="M1039.9,221.9V219C1040.9,220.7,1040.9,220.7,1039.9,221.9z"/>
<path d="M898.7,169.1v2.9C897.8,170.3,897.8,170.3,898.7,169.1z"/>
<path d="M691.8,138c-0.4,1,0.9,2.5-1,3C691.2,140,689.9,138.5,691.8,138z"/>
<path d="M1038.8,225c0.4-1-0.9-2.5,1-3C1039.4,223,1040.7,224.5,1038.8,225z"/>
<path d="M1029.8,137c0.4-1-0.9-2.5,1-3C1030.4,135,1031.7,136.5,1029.8,137z"/>
<path d="M915.6,117c0,1,0.1,2,0.1,2.9l-0.7,0.1l-0.4-2.9L915.6,117z"/>
<path d="M937.7,158.1v2.9C936.8,159.3,936.8,159.3,937.7,158.1z"/>
<path d="M846.2,220.6l1.3-1.1C847.6,220.9,847.6,220.9,846.2,220.6z"/>
<path d="M1008.1,124.6l2.3-1.2C1010.8,124.8,1010.8,124.8,1008.1,124.6z"/>
<path d="M909.7,201.4l0.7-2.4c0.2,0.5,0.3,0.9,0.4,1.4C910.8,200.5,910.4,200.7,909.7,201.4z"/>
<path d="M851,198.5c-0.4,1.3-0.5,1.9-0.7,2.5c-0.2-0.5-0.3-0.9-0.4-1.4C849.8,199.4,850.2,199.2,851,198.5z"/>
<path d="M796.2,197.1l-2.4-0.7c0.5-0.2,0.9-0.3,1.4-0.4C795.4,196,795.6,196.4,796.2,197.1z"/>
<path d="M904,196.8v-1.7l0.5-0.1l0.4,1.6L904,196.8z"/>
<path d="M911,205.8v-1.7l0.5-0.1c0.1,0.6,0.2,1.1,0.4,1.7L911,205.8z"/>
<path d="M919.6,194.2v1.7l-0.5,0.1l-0.4-1.6L919.6,194.2z"/>
<path d="M694.8,194.8l-1.9,0.2l-0.1-0.6l2-0.4V194.8z"/>
<path d="M912.8,195c0.2-0.8-0.5-1.9,1-2C913.7,193.8,914.3,194.9,912.8,195z"/>
<path d="M913.8,193c0.2-0.8-0.5-1.9,1-2C914.7,191.8,915.3,192.9,913.8,193z"/>
<path d="M906.6,189.5c0.4-1.3,0.5-1.9,0.7-2.5c0.2,0.5,0.3,0.9,0.4,1.4C907.8,188.6,907.4,188.8,906.6,189.5z"/>
<path d="M916,186.8v-1.7l0.5-0.1l0.4,1.6L916,186.8z"/>
<path d="M909,184.6l-0.7,2.4c-0.2-0.5-0.3-0.9-0.4-1.4C907.8,185.5,908.2,185.3,909,184.6z"/>
<path d="M707.8,184.2l1.9-0.2l0.1,0.6l-2,0.4V184.2z"/>
<path d="M899,184.8v-1.7l0.5-0.1c0.1,0.6,0.2,1.1,0.4,1.7L899,184.8z"/>
<path d="M184,183.2h1.7l0.1,0.5l-1.7,0.4L184,183.2z"/>
<ellipse cx="920.3" cy="183" rx="0.3" ry="1.4"/>
<path d="M799.8,209.2l1.9-0.2l0.1,0.6l-2,0.4V209.2z"/>
<ellipse cx="909.3" cy="183" rx="0.3" ry="1.4"/>
<path d="M794.3,178.2l-2.5-0.7c0.5-0.2,0.9-0.3,1.4-0.4C793.4,177,793.6,177.4,794.3,178.2z"/>
<path d="M913,174.8v-1.7l0.5-0.1l0.4,1.6L913,174.8z"/>
<path d="M899.7,174.4l0.7-2.4c0.2,0.5,0.3,0.9,0.4,1.4C900.8,173.5,900.4,173.7,899.7,174.4z"/>
<path d="M852,212.6l-0.7,2.4c-0.2-0.5-0.3-0.9-0.4-1.4C850.8,213.5,851.2,213.3,852,212.6z"/>
<ellipse cx="904.3" cy="214" rx="0.3" ry="1.4"/>
<path d="M744.6,168.2v1.7l-0.5,0.1l-0.4-1.7L744.6,168.2z"/>
<path d="M944.7,165.4l0.7-2.4c0.2,0.5,0.3,0.9,0.4,1.4C945.8,164.5,945.4,164.7,944.7,165.4z"/>
<path d="M189,156.8v-1.7l0.5-0.1l0.4,1.7L189,156.8z"/>
<path d="M888,217.5c-0.4,1.3-0.5,1.9-0.7,2.5c-0.2-0.5-0.3-0.9-0.4-1.4C886.8,218.4,887.2,218.2,888,217.5z"/>
<path d="M932,153.6l-0.7,2.4c-0.2-0.5-0.3-0.9-0.4-1.4C930.8,154.5,931.2,154.3,932,153.6z"/>
<path d="M771.8,154.2l1.9-0.2l0.1,0.6l-2,0.4V154.2z"/>
<path d="M765.8,154.2l1.9-0.2l0.1,0.6l-2,0.4V154.2z"/>
<path d="M910.6,153.2v1.7l-0.5,0.1l-0.4-1.6L910.6,153.2z"/>
<path d="M1044,219.5c-0.4,1.3-0.5,1.9-0.7,2.5c-0.2-0.5-0.3-0.9-0.4-1.4C1042.8,220.4,1043.2,220.2,1044,219.5z"/>
<ellipse cx="905.3" cy="153" rx="0.3" ry="1.4"/>
<path d="M765.8,150.2l1.9-0.2l0.1,0.6l-2,0.4V150.2z"/>
<path d="M929,145.5c-0.4,1.3-0.5,1.9-0.7,2.5c-0.2-0.5-0.3-0.9-0.4-1.4C927.8,146.4,928.2,146.2,929,145.5z"/>
<path d="M756.7,138.8H755l-0.1-0.5l1.6-0.4L756.7,138.8z"/>
<path d="M760.8,137.2l1.9-0.2l0.1,0.6l-2,0.4V137.2z"/>
<path d="M693,135.6l-0.7,2.4c-0.2-0.5-0.3-0.9-0.4-1.4C691.8,136.5,692.2,136.3,693,135.6z"/>
<path d="M754.8,135.2l1.9-0.2l0.1,0.6l-2,0.4V135.2z"/>
<path d="M1023.6,130.2v1.7l-0.5,0.1c-0.1-0.6-0.2-1.1-0.4-1.7L1023.6,130.2z"/>
<path d="M840,224.6l-0.7,2.4c-0.2-0.5-0.3-0.9-0.4-1.4C838.8,225.5,839.2,225.3,840,224.6z"/>
<path d="M1008,121.2h1.7c0,0.2,0.1,0.3,0.1,0.5l-1.7,0.4L1008,121.2z"/>
<path d="M1005.7,121.8h-1.7l-0.1-0.5l1.6-0.4L1005.7,121.8z"/>
<path d="M1023.6,115.8h-1.7c0-0.2-0.1-0.3-0.1-0.5l1.7-0.4L1023.6,115.8z"/>
<path d="M914,117l-0.2-1.9l0.7-0.1l0.4,2H914z"/>
<ellipse cx="910.3" cy="116" rx="0.3" ry="1.4"/>
<path d="M909.6,110l0.2,1.9l-0.7,0.1l-0.4-2H909.6z"/>
<path d="M933,107.8v-1.7l0.5-0.1l0.4,1.6L933,107.8z"/>
<path d="M1037,230.8v-1.7l0.5-0.1l0.4,1.6L1037,230.8z"/>
<path d="M1051.6,231.5c0.4-1.3,0.5-1.9,0.7-2.5c0.2,0.5,0.3,0.9,0.4,1.4C1052.8,230.6,1052.4,230.8,1051.6,231.5z"/>
<path d="M1015,99.2h1.7c0,0.2,0.1,0.3,0.1,0.5l-1.7,0.4L1015,99.2z"/>
<path d="M1059,98.2h1.7l0.1,0.5l-1.6,0.4L1059,98.2z"/>
<path d="M1053.8,99v-1h2C1055.7,99.5,1054.6,98.8,1053.8,99z"/>
<path d="M1019.8,97.8l-1.9,0.2l-0.1-0.7l2-0.4C1019.8,97.2,1019.8,97.5,1019.8,97.8z"/>
<path d="M1038.7,233.4l0.7-2.4c0.2,0.5,0.3,0.9,0.4,1.4C1039.8,232.5,1039.4,232.7,1038.7,233.4z"/>
<path d="M1019.8,96.2l1.9-0.2l0.1,0.7l-2,0.4C1019.8,96.8,1019.8,96.5,1019.8,96.2z"/>
<path d="M899.6,95.2v1.7l-0.5,0.1l-0.4-1.6L899.6,95.2z"/>
<path d="M1068.8,91.8l-1.9,0.2l-0.1-0.7l2-0.4C1068.8,91.2,1068.8,91.5,1068.8,91.8z"/>
<path d="M1058,89.2h1.7l0.1,0.5l-1.6,0.4L1058,89.2z"/>
<ellipse cx="879.3" cy="87" rx="0.3" ry="1.4"/>
<ellipse cx="635.8" cy="81.5" rx="1.4" ry="0.3"/>
<path d="M857.6,78l0.2,1.9l-0.7,0.1l-0.4-2H857.6z"/>
<path d="M585.8,78.2l1.9-0.2l0.1,0.7l-2,0.4V78.2z"/>
<path d="M856,78l-0.2-1.9l0.7-0.1c0.1,0.7,0.2,1.3,0.4,2H856z"/>
<path d="M296.8,227.5c0-0.8-0.1-1.3,0-1.5c3.6-4.1,7.2-8.3,10.9-12.4c0.6-0.5,1.3-0.8,2.1-1.1c-0.9,3.9-3.7,5.6-5.8,7.8
	C301.7,222.7,299.4,225,296.8,227.5z"/>
<path d="M297.4,234.3c3.6-4.8,8.7-6.5,12.5-10.1c-0.1,0.7-0.4,1.3-0.7,1.9c-2.6,3-5.8,5.6-9.4,7.4
	C299,233.9,298.2,234.1,297.4,234.3z"/>
<path d="M287.6,230.2v3.7H287l-0.3-3.7L287.6,230.2z"/>
<path d="M252.8,201.9c-2.1-1.8-3.3-4.5-3-7.3l3,2.9V201.9z"/>
<path d="M253.1,226.2l-1.7,1.6c-0.2-0.1-0.5-0.2-0.6-0.4c-0.4-1.7-0.7-3.5-1.1-5.2l1.6-0.3L253.1,226.2z"/>
<path d="M273.7,232H272c-0.5-2.3-0.2-4.6-0.2-7.4l1.8,1.7V232z"/>
<path d="M241.9,189.5v-6.2l0.5-0.4l0.5,1.9l0.7-0.5v4.8l2.4,1.6C244.1,191.5,242.8,191,241.9,189.5z"/>
<path d="M924.8,239v-3.6l2.4-1.9c1.1,3.2,2.3,5.9,1.4,9.2l-1.5,1.5c-0.1-1.5-0.2-2.7-0.4-3.9l-0.5,0.5l-0.9-2.4L924.8,239z"/>
<path d="M932.3,234.9c1.9,2.8-1.3,4.7-0.5,7c-2,0.4-2.2-0.7-1.9-1.6C930.5,238.5,931.4,236.8,932.3,234.9z"/>
<path d="M905.8,244c-2.1-0.6-2.2-2.8-3.4-4.6l2.4-0.4C905.1,240.7,905.5,242.3,905.8,244z"/>
<path d="M904.4,238.8c0.5-0.9,0.9-1.4,1.1-2s0.4-1.1,1-2.9c0.2,2.7,0.2,4.2,0.3,6L904.4,238.8z"/>
<path d="M909.7,216.5l1.5-2.7C912.7,215.6,911,216.1,909.7,216.5z"/>
<ellipse cx="914.3" cy="211" rx="0.3" ry="1.4"/>
<path d="M879,227.5c-0.5,0.9-1,1.7-1.5,2.7C875.9,228.4,877.7,227.9,879,227.5z"/>
<path d="M273.3,108.9l-3.6-3.4C273.4,105,273.8,105.5,273.3,108.9z"/>
</svg>
