<svg id="foxrabbit_Image" data-name="foxrabbit Image" xmlns="http://www.w3.org/2000/svg" viewBox="0 0 1332 308"><defs><style>.cls-1{fill:#fff;}</style></defs><title>foxrabbit</title><rect class="cls-1" x="1" width="1331" height="308"/><path d="M782,136l-6.56,7.34c-1.25-4.52.18-8.25,2-12.83a20.46,20.46,0,0,1-3.11,1.45,8.62,8.62,0,0,1-2.14,0c.89,4.52,2.39,8.56,1.3,12.93-.29-2.28-1.61-4.19-1.67-6.65s-1.25-4.74-2-7.17h-2.68a3.64,3.64,0,0,0-.19,1.35c.61,2.24,1,4.64,2.07,6.62s.71,3.69,1,6.13c-6-4.66-13-6.9-17.09-13l-5,1.17,7.12,5.88-.31.63c-.73-.27-1.46-.56-2.2-.81a27.54,27.54,0,0,1-8.25-5.12c-5.11-.36-9.31,2.31-14.38,5.43,7.24,1.63,13.95-1,20.32,2-5.78.93-9.47.77-12.26-.5-1.48.88-3,1.94-4.47.17l-5.82,1.1c-1.24,1.23-2.38,2.37-4,4,1.2-.46,2-.54,2.44-1a8,8,0,0,1,6.56-2.31c3,.16,6.17-.38,9.06,1a4.43,4.43,0,0,1,2.07,1.93c-1.46-.32-2.9-.69-4.37-.92s-3,.5-3.9-.78l-7.49,1.08-1.5,2.42c2.43-.29,4.38-.6,6.35-.72a16.63,16.63,0,0,1,5.94.6l-16.06,3.3,2.38-2.81c-2.36-.41-2.94,1.54-4,2.25v10.52c4.1-1.75,7.59-4.89,12.53-3.73l.52,1.57H727.4l.12.65L720,162.63c0,.24.12.81.26,1.79,3.16-2,6.23-3,9.9-2.17-.9.71-1.55,1.23-2.22,1.82-2.37.51-5.14.15-7.1,2.66,3.18.94,4.82-1.64,7.1-2.66,1.64-.07,3.27-.07,4.89-.07l.57.93a16.48,16.48,0,0,1-1.7.81,77.88,77.88,0,0,1-9.14,3.18,7.56,7.56,0,0,0-5.52,4.52c-.78,1.67-1,3.84-2.23,5-1.58,1.51-.71,3.35-1.43,5-.91,2-.22,4.79,0,7.29.83-2.26,2.32-4.35,1.46-6.84,4.57-5.21,8.13-11.13,14.52-14,.34.34.55.45.56.58.07.65.08,1.3.13,2.16l-9.75,9.75a16.16,16.16,0,0,0,2.84-1c1.54-1,2.26-3.19,5.5-3.46-3.68,3.68-6.74,6.76-9.82,9.81-1.5,1.49-2.74,3.09-2.81,5.32-1.5.09-.85,1.24-1,2l-1,.76,1,1.24,2.91,4.68c2.67.53,4.67,1.09,6.69,1.28a43.8,43.8,0,0,0,6.48,0,27.67,27.67,0,0,0,5.64-.72c2.15-.59,4.84.74,7.28,1.26.76.16,1.5.42,2.79.78A30.27,30.27,0,0,1,755.38,218a16.66,16.66,0,0,1,.66,6.42,23.36,23.36,0,0,0,0,5.48,41.6,41.6,0,0,0,1.34,5.23c.41-.86.71-1.48,1-2.13,2.72.07,4.16,2.13,5.92,3.79a15.78,15.78,0,0,0,10.75-2c2.3,3,4.85-.3,7.38.14,4.78-4,6.34-9.34,6.51-15.25.11-4.06,0-4.07,2.07-7.74-.74-1.1-1.5-2.24-2.38-3.53,2.47-.14,2.47-.14,4.33,3.81-1,5.56-3.06,11-3,16.71-1.93.47-.62,2-1,3-2.8,2.05-5.13,4.78-9.28,6a17,17,0,0,0-10.7,2.5c-2.6,1.54-4.47-.25-6.64-1.36l-.59,1.37,7.81,3.21,9.19,1.26.37.69-1.86.48c-5.71.83-12,1.67-19-2.21l-5.22-5.79c-.51-7.17,1.11-14-2.38-20.39-2.25.87-4.14,2.18-6.43.36-1-.76-2.86-.18-4.22-.59-4-1.18-7.94-2.54-11.9-3.85-.58-.19-1.17-.67-1.72-.62-4.3.39-8.06-1.18-11.63-3.18A13.87,13.87,0,0,0,709,222.15c2,4.73,6.11,6.69,9.79,9.15a63.68,63.68,0,0,1,7.17,5.33c-3.85-.34-7-2.53-10.85-3.32.25,3.53,2.69,5.4,5.62,6.61,1.24.52,2.93-.26,4,1.08,4.55-.38,8.78,1.41,13.18,1.91,3.61.42,7.32.09,11,.09h3.88c-3.25,1.26-6.43,2.4-9.94,2s-7.17.57-11.07-.83c-3.53,1.41-5.26,1.24-9.33-1.2-2.77,0-5.61.16-8.42-.05-2.53-.18-5-.77-8.21-1.3l-1.42-1.89-4.22,2.17a17.44,17.44,0,0,1-7.69-.86,9.41,9.41,0,0,0-7.64-.06c-2.08,1-4.34.41-6.11-.2a23.23,23.23,0,0,0-4.65-.84c-1.38-.19-2.71-.85-4.09-.93-4.37-.24-8.73.19-13.11-.9-2-.49-4.35.66-6.55.82s-4.64,0-6.8,0c-2.36,1.44-1.34,3.64-1.56,5.37-2.38,3-5.86,5-7.56,8.85-1.21-1.65-2.33-3.16-3.72-5a15.06,15.06,0,0,1-2.46-.21,21.75,21.75,0,0,1-2.89-1.15c-1.84,3.07-3.69,6.13-5.83,9.69l-3.47-6.08-3.37-1c-1,1-2.12,2.14-3.47,3.52l.94,4-3.83-4h-6.57L591,245.71v-3.92c-.83-1.14-1.55-2.14-3-4.13l4.56,1.41c1.17,7.68,7.84,9.3,13.84,12.06L610.2,246l-1.79-2.1c-.3.81-.52,1.39-.73,2L604,241c-.32-1.18-.65-2.37-1.08-3.94l2.28,1.06,1.32-1.08L609,239.5v2l1.73,1.73c.14-1.31.26-2.35.35-3.21l-8-11.75c2.28-.88,3.62.81,5,1.3l4.88,8.16v7.56L619.1,249l3.86-2.71c.87-1.63-.46-3.43-1.39-5.18-.68-1.28-.8-3.33-3.21-3.14.23,1.23.47,2.46.85,4.43-3.26-2.49-4.43-5.47-5.71-8.59l4.32,2.63c-.13-1.16,0-1.95-.31-2.39a32.1,32.1,0,0,0-3-3c4,1,4,1,8.05,5,.52,2.52,1,4.66,1.58,7.72l1.64-2.84a34.35,34.35,0,0,0-1-3.64c-1.4-3.63-3.09-5.87-7.41-8.21-1.56-.84-2.38-2-4.44-3.41l3.63-1.38,5,2.4,1.42-.93,2.17,1.77-2,.71c3.05,4.89,7.81,9.28,4.63,16,2.34,2.67,5.54,3,8.64,3.95l2.28-2.85c-2.56-2.47.77-5.35.07-9.1l-1.26,2.87L634.57,235l-.54.2,1,3.54-.74.32q-2.22-3.78-4.45-7.56a21,21,0,0,0,7,3.43c-.18-.79-.37-1.58-.6-2.54l1.87-.89c-1.44-3.62-5.23-4.26-7.89-6.61-.15.69-.26,1.14-.44,1.95l-2.36.28c-2.47-4.23-7.41-4.13-11.31-6-2.38-1.14-5.28,0-7.47,1-4.09,1.9-8.29,3.8-11.55,7.16a23,23,0,0,1-2.73,1.8c-1.7,1.31-3.75,2-4.71,4.46-.59,1.53-2.81,2.43-4.1,3.45a20.09,20.09,0,0,0-3.91-1c-3.83-.11-7.66,0-11.49-.07-2.38-.06-4.7.18-7.16-.79-1.7-.67-4.06-.15-6.2.28a30.91,30.91,0,0,1-9.65.07A25.61,25.61,0,0,0,544,237q-23.49,0-47,0c-8.8,1.91-17.8,0-26.55,1.17-9.89,1.32-19.81-.22-29.57,1-8.9,1.11-17.73.6-26.59.79s-18,0-27,.06c-1.23,0-2.44-.26-3.73.71a4,4,0,0,1-3.77.16c-2-1.39-4.11-.72-6.16-.87-25.66-1.94-51.36-.8-77-1s-51.64,0-77.46,0c-14.49,1.87-29,.79-43.56,1s-29,0-43.48,0h-44c-9.63,1.95-19.37.76-29.07,1s-19.32,0-29,0c-4.89,0-9.62-1.49-14.58-1.09-4.8.38-9.66.08-14.49.08v-2q32,0,64,0c4.89,0,9.62-1.49,14.58-1.09s9.79.78,14.47-.07c8.22-1.5,16.42-.76,24.61-.79,40.32-.13,80.64-.05,121-.07,4.89,0,9.65,1.65,14.58,1a22.67,22.67,0,0,1,2.62,0v-2.7l2.12-.38c-.43,1.06-.74,1.8-1.19,2.89h5.13c.66-8.62-1.24-17.29,1.91-25.7a107.16,107.16,0,0,0-13.69,17.66v3.45l-2.37,2.58h-3.8c.14-.67.09-1.24.35-1.53.87-1,1.85-1.9,2.51-2.56l1.36-5.45-1.69-.34c-1.59-4-1.14-8.54-3.4-12.5-2.05-3.6-2.7-7.92-5.62-11.85-.53,2.51-.41,4.8-1.92,6.36s-3.13,2.73-4.6,4c-4.77.28-9-.68-13.42-1.69-4.17-.95-8.57-2.06-13.23-1l-3,3-8.92-1.07L188,203.37c-.49-10.44,4.6-18.24,12.41-25.16h-8.75L184,183c-2.19.46-5.27-.94-7.91,1-2.18-.47-4.37.6-6.69-.83-1.45-.89-3.89-.17-6.31-.17-1.84-1.59-3.92-3.38-5.65-4.89L156,173.54a4.22,4.22,0,0,1,.27-1.24c.89-1.8,1.83-3.58,2.78-5.35a7.41,7.41,0,0,0,1.05-3.59,14.17,14.17,0,0,1,3.88-9.89,64,64,0,0,0,4.62-6.33h8.79c3.9,2.68,7.67,5.28,11.45,7.86A29.45,29.45,0,0,0,208,159.93c1.34-3.92,2.58-7.89,4.09-11.76a18.35,18.35,0,0,1,3-5.23c2.11-2.47,4.53-4.67,6.87-6.93,3.49-3.38,7.84-3.33,12.8-2.87.58.76,1.79,1.75,2.21,3,1.46,4.38,5.2,6.08,8.95,6.68a11.73,11.73,0,0,1,9.2,6.7,9.46,9.46,0,0,0,1.83,1.88v6.38l-7.21,6.1c-4.67-.15-9,1.83-13.49,3.15s-8.87,2.41-13.64,5.82c3.2-4.2,3.2-4.2,8.74-6.9l1.17.95c6.69-4.62,15.71-5,21.5-11.4v-4c-1.74-1.54-2.71-3.84-4.91-4.88a22,22,0,0,0-3.85-1.56c-3.93-1-7.47-2.39-9.27-6.5a18.64,18.64,0,0,0-2.67-3.51h-6.17c-10.74,5.63-13.66,16-17.74,26.15-1.73.53-3.33,3.4-6,.85-.18-.16-.65-.06-1,0-5.78.71-10.51-2.12-14.85-5.12A120.1,120.1,0,0,0,173.07,148c-5.82,2.34-8.62,7.44-11.08,13.14,2.1,2.39.79,4.72-.68,7.09-1.31,2.1-2.51,4.27-3.79,6.47l4.35,5.19A33.47,33.47,0,0,0,176.55,182a23,23,0,0,0,10.63-3.38c3.45-2.18,7.18-4.39,11.22-5.35,2.64-.63,5.54-.12,8.46-.12v3.77c-9.88,5.46-16,13.74-17,25a16,16,0,0,0,7,7h4.65l6.21-3.86A12,12,0,0,0,211,206c3.26-.12,6.21,1,9.28,1.75a103.11,103.11,0,0,0,10.74,1.58l4.17-4.56c.41-1.06-1.19-3.34.65-5.24.35-.37-.23-1.76-.54-2.63-2-5.6-5.73-10.09-9.51-14.56-1.74-2-3.33-4.24-5.34-6.81,1.13-.22,1.83-.35,2.13-.87,3.72,5,7,9.7,10.67,14.07a37.89,37.89,0,0,1,6,9c2.12,4.78,4.46,9.47,6.76,14.17,1.34,2.74,2.68,5.45,2.25,7.17l1.09,3.12a19.39,19.39,0,0,0-1.35-9.5c-1-2.74-2.54-5.43-2.86-8.25-.39-3.45-2.78-5.58-4.25-8.25s-2.8-5.59-5-7.94c-2.06-2.14-3.37-5-5.42-7.17s-4.08-5.12-7.82-6.44a3.33,3.33,0,0,0,1.69-1.55,79.18,79.18,0,0,1,18.35,22.11c4.36,7.88,7.35,16.35,10,25.81,1.9-3.37,4.46-5.07,5.44-8,2.92-1.5,4.07-4.58,6-7l-2.61-4.37-4.34,9.88a11.72,11.72,0,0,1,.91,1.52h-1.7c-.19-.54-.39-1.13-.68-2l-2.81,2.28c-2.36-2.28.56-3.94.25-6-.27-1.74.66-3.67,1.19-6.12,1.18-.82,2-3,4.53-3.45v-6.14L263,187.5a30.72,30.72,0,0,1,.05-4.39,24.88,24.88,0,0,1,1.47-4.13l2-2h3l2.71,2.87h5.09c5.57,4.8,13.81,5.7,18.5,13a30,30,0,0,0,4.71,9.25c2.18,3.06,4,6.37,6.45,10.27a45.5,45.5,0,0,0-1,5.13,27,27,0,0,0,.3,6.49c4.29-7.12,11.16-11.58,16.76-17.66v-4.22l1.69-.1c.14,1,.28,1.9.43,2.92.57-.06,1.17.07,1.44-.18,1.12-1,2.15-2.09,3.33-3.27.28-4.57-3.58-7.36-5.27-11.34h-3.5c-2.44,2.77-2.8,7.3-7,9.76l-2.77.15c-1.58,1.59-1.85,4.54-.71,7.13.8,1.83,1.55,3.69,2.28,5.55.1.25-.1.61-.28,1.57-1-1.57-2.38-2-2.83-3.81-.35-1.41-1.79-2.56-2.79-3.89v-5.15c1.57-1.75,3.3-3.64,6.4-3.46,1.81-3.33,3.64-6.72,5.39-10h6.55c2.88,1.73,3.28,5.29,5.8,8.61-.63-3.34.75-6-1.2-8.31-.16-.2-.06-.65,0-1,.74-4.93-1.27-9.67-1.07-14.58.06-1.68-.74-3.38-.9-5.09s.22-3.71-.12-5.48a19.83,19.83,0,0,0-1.94-4.67,22.91,22.91,0,0,0-1.38-2.28l-6.47.91-4.46-2.49c-2,2.16-3.9,4.27-5.67,6.21,0,3.43-.12,6.41,0,9.39a8.49,8.49,0,0,1-2.71,6.9c-1.92,1.91-4,3.18-6.84,2.81a6.56,6.56,0,0,0-1,0l-1.6-1.6c3.11-1.06,6.49-1.31,9.1-3.87,0-3,.16-6.13-.05-9.25s2-5.64,2.08-8.7c3.23-4.08,7.72-6.58,12.12-9.14a15,15,0,0,1,8-2.45c.49,0,1.16.15,1.44-.11,2.42-2.26,4.32-.07,7.07.54a61.56,61.56,0,0,0-19.53,6.93l3.81,2.76a71.84,71.84,0,0,1,7.32-4.74c3.43-1.7,7.1-3,10.68-4.35.44-.17,1.29-.22,1.45,0,1.17,1.7,3.13.45,5.08,1.57l-4.41,2v3.64l-8.2,2.3c.79,2.66,1.56,5.46,2.45,8.23.47,1.46,1.39,2.81,1.67,4.29a46.15,46.15,0,0,1,1,8.57c0,5.4,1.77,10.66,1.08,16.09a23.7,23.7,0,0,0,0,3l-2,.41a61.42,61.42,0,0,1,.06-7.45c.43-3.49-1.25-6.73-1-10.08s-1-6.35-1.21-9.58a11.49,11.49,0,0,0-2.43-5.91c-.78-1,.65-2.93-1.44-3.15-.15-.76.5-1.91-1.39-2l.48,0c-.13-.65-.26-1.3-.38-1.95l-.65.09a3.49,3.49,0,0,0,.55,1.89c.54.75-.11,1.9,1.39,2,.33,5.35-.09,10.89,1.18,16,1.8,7.22,1.81,14.41,1.79,21.67a19,19,0,0,1-.66,3.36c4.5-.41,7.41-3.19,9.84-6.68.14-.13.25-.33.38-.33.66,0,1.32,0,2.18,0L346.6,196h4a16.08,16.08,0,0,1,3.41,9.69l3.93,3.84v7c-2.29,2.23-4.22,5-9,4.43l5.28,2.72L364.51,225l5.37,5.5v5.29h-2.45l-1.34-6.31-4.65-2.24-10.31-1.47-2.7-3.41c-.41,2.81-2.56,4.25-2.43,6.63l-2.18,2.78,3.4,2.5-.46.74-2.44-.84-1.18,1.18V238h4.54c13.66,0,27.32-.15,41,.07,6.25.1,12.31-1.52,18.59-1.15s12.43.82,18.46-.09c9.22-1.39,18.47.13,27.58-1,13.2-1.55,26.39-.44,39.58-.88,6.94-2,14.05-.6,21.07-1,4.6,1.62,9.38.88,14.08,1s9.33.14,14,0c2.87-.1,5.72-.75,8.59-.92s5.67.11,8.49-.08c3.93-.25,7.72.68,11.59,1s7.66,0,11.48.11a17.79,17.79,0,0,1,4,1c1.84-.88,2.23-2.89,4-3.86s3.08-3,4.67-4.46A41.84,41.84,0,0,1,599.2,224a50,50,0,0,1,5.23-3c1.64-.86,3.35-1.61,4.93-2.61,2-.92,4.4.35,6.48-1.3.58-.46,2.24,0,3.17.49,2.34,1.2,5,1.68,7.11,3.38,2.66,2.13,6.1,2.19,9.56,3.29,4.48,3.48,6.72,8,6.43,12.35.11.11.23.33.35.33.66,0,1.32,0,2.34,0l8.93-10.05,1.72.65L648.32,236h16.47c3.56,0,7.18-.39,10.57,1,3,1.24,6,.95,9.09,1,3.46,0,6.92,0,11,0l-5.23-5.26a13.49,13.49,0,0,1,2.06-.71c1.85,3.25,5.25,3.92,8.32,5.14.29.11.48.45.72.69a6.38,6.38,0,0,1,6.36-.48c2.15,1,4.08.3,6.54.77-.89-3.29-3.58-4.38-5.15-6.73v-2.76c-1.11-.91-2.26-1.83-2.73-2.21-1.77-8,2.41-13,5.87-18.35h4.13a42.9,42.9,0,0,0,8.39,3.44c1.85.64,4-.65,5.48,1.21a95.4,95.4,0,0,1,14.28,4.13,6.64,6.64,0,0,0,6.3-1.22,17.46,17.46,0,0,0-6.58-8.51c-6.52-1.12-13.53-2-21.28-.22-5.26-1.77-9.37-5.68-12-12.06,0-2.6,0-5.92,0-9.24a13.62,13.62,0,0,1,1-6.11c1.71-3.61,3.09-7.38,4.79-11a14,14,0,0,0-.67-7c-1.61-4.68-1.2-6.78-.21-13.16.34-2.19.8-4.37,1.18-6.56.05-.31.63-.53,1-.8-.41,6.51-.82,13-1.23,19.58l1.49.48c.3-.29.71-.5.71-.71,0-3.5,0-7,0-10.49,2.57-4.45,6.52-7.68,10-11.37s7.31-6.54,12.38-7.53a14.4,14.4,0,0,0,2.47-1.26c2.17-.92,4.31-1.83,6.79-1.73,3.66.13,7.33,0,11,0,3.07,0,6-1.7,9.07-1,3.54.8,7.2.71,10.75,1.76,2.14.62,4.6.24,6.91.21,4.51-.07,8.66,1.35,12.74,3a13.65,13.65,0,0,1,4.69,3.18c2.64,2.7,5.48,5.21,8,7.92a17.49,17.49,0,0,0,1.81,3.21c.83-2.32-.51-2.75-1.81-3.21.56-1.73-.67-2.8-1.28-4-1.33-2.63-3-5.11-4.67-7.94l2.78-.21a63.52,63.52,0,0,1,8.83,17.08c.83,2.51,1.86,5.1,1.5,7.86a21.59,21.59,0,0,1-.9,3.22c1,2.57,2,5.29,3.19,8.37.69-1.35,1.11-2.18,1.7-3.32.65-2.76-1.12-6.18,1.13-9.14-.38-.74-1.12-1.48-1-2.1.59-3.8-1.08-7.35-1.11-11.08a10,10,0,0,0-1-3.08c-1.24-3.47-2.52-6.93-3.87-10.66l2.59-.18c.28,3.72,2.82,6.71,3.33,10.44.07.56.83,1,.92,1.59a57.28,57.28,0,0,1,1,7.57c.15,5.11,0,10.23.38,15.37a48.08,48.08,0,0,0,2.71-15.71l1.45-.23c.19.34.47.61.48.88,0,2,.49,4.15-.11,6s-.54,3.78-1,5.6-1.3,3.54-1.7,5.23-.35,3.76-1.41,4.91c-2.86,3.1-2.14,6.54-.37,9.17,3.64,5.4,2.34,11.23,2.52,16.95a8.6,8.6,0,0,1-1.17,4c-.37.71-1.41,1.06-2.33,1.69.78-6.52,1.46-12.62-1.43-18.46a62.68,62.68,0,0,1-2.89-6.3,5.56,5.56,0,0,0-3.44-3.62c-1.72-.68-3.11-2.21-5.19-1.95-1.38-2.08-3.8-.18-5.9-1.71l7-.54L809,166.66c1.94-.47,3.8-1.41,5.56.28.44.41,1.61.06,3.68.64.51-.2.31-.57.16-.55a8.09,8.09,0,0,0-1.4.44c.6.17,1.21.34,1.24.11-1.24-1.08-1.45-1.8-1.21-2,1.53-1.46,1.14-2.7,0-4.22a23.7,23.7,0,0,1-1.95-4.21v-4.3l2.67,1c.07-.36.37-1.07.19-1.23-.92-.81-2.38-1.27-2.86-2.25a7,7,0,0,0-2.46-2.48c-1.75-1.39-3.16-3.28-5-4.73-2.26-1.81-4.32-3.9-6.69-5.55a24.89,24.89,0,0,0-5.06-2.17c-2.13-.86-4.53-.9-6.53-2.33-.6-.42-2,.27-3.2.48l-.37-1.35a11.69,11.69,0,0,1-2-.25,8.54,8.54,0,0,1-1.73-1L779.57,136ZM607.78,241l-.87.05.38,1.95.65-.09c-.05-.63-.11-1.27-1.72-1.85l.87-.05-.38-1.95-.65.09C606.11,239.75,606.17,240.39,607.78,241Zm218.34-72.72c1.6-1.08.59-2.61.77-3.83a4.56,4.56,0,0,0-.77-.26c0,1.34,0,2.59-1.27,6.26.76-.68,1.14-.88,1.12-1a8.09,8.09,0,0,0-.44-1.4C825.36,168.6,825.19,169.21,826.12,168.25ZM298.38,235.84l7-9c-2.1-1.91-3.91-3.88-4.69-6.57-.2-.71-1.1-1.21-1.72-1.78a2.09,2.09,0,0,0-.68-.29l-3,2c.36,1.07.58,1.74.81,2.41l-.55.4-3.35-3.34c-.34,3.29-.57,6,1.38,8.27l1-2.08,1.7.56c-.82,1.48-1.94,2.75-2.18,4.18s.48,2.85.79,4.36h-1.7c-.14-1.3-.28-2.64-.47-4.5-.76,1.51-1.21,2.5-1.74,3.43s-1.21,1.91-1.87,3h7.6c.25-.72.45-1.3.67-1.92Zm-18.15-34.6,3-1.52c-1.07-3.67.74-6.3,3.27-8.88-4-3-6.08-7.81-11.54-8.85.11,2.93,2,3,3.84,3.2.84,1.56,3.18,2.18,3.2,4.52-1.68.24-2.07-3-4.32-.93l4.55,5.36c-1.18,1.47-1.81.66-2.61,0-2-1.58-2.05-1.53-4.82.43v6.91l-5.41-3.4-1.31,1.31a12.51,12.51,0,0,0,.72,5.43c.61,1.48-.67,3.64-.76,5.51a7.17,7.17,0,0,1-1.77,4.89c-.45,3.83-.82,7.35-1.29,10.86-.51,3.78,1.31,7.22,1.14,10.73h6.11c-1.49-3.33-3.31-6.27-4.12-9.47s-.71-6.87-1-10.05c3.4-1.48,3.72,2.59,6.45,2.71.89-2.28,1.84-4.67,2.81-7.14l4.23,5.42c.63-3.8,1.16-7.07,1.71-10.41l1.69.35v5.33l1.43,1.32c4.2-5.35-1.07-8.1-3.15-11.88-2.37,2.57-.9,6.74-4.13,9.2-.09-1-.16-1.74-.24-2.69-1-.85-1.66-2.6-4-2.51v8l-1.88-.17V209l-2.35-1.48c.51-1,.82-1.6,1.08-2.11l-1.37-1.93,3.82,1.59,2.14-1.32a13.11,13.11,0,0,0,1.51,1.63,10.7,10.7,0,0,0,1.81.92C279.29,204.35,279.78,202.71,280.23,201.24Zm44.06,25c-.76,3.57-2.84,5.41-4.17,7.44V237c3.24,0,6.37-.16,9.49.05s6,.77,8.95,1.18c.94-1.49,2.16-2.61,2.35-3.89.56-3.8,2.45-7,4.13-10.29a8.42,8.42,0,0,0,1-4.11c-.06-2.66-.07-5.33,0-8s-1.65-5.22-1.05-8.08c.45-2.11-.27-4.09-1.61-6.09a12.21,12.21,0,0,0-2.54.95c-2.64,1.7-5.19,3.53-7.81,5.26-5.75,3.8-11.64,7.4-16.24,12.7-2.34,2.7-5,5.08-7.1,8-2.77,3.87-5.84,7.51-7.39,12.15H312.7c.24-.7.45-1.28.73-2.07l.94,2h3.33c.56-2,1.06-3.79,1.56-5.58C320.68,229.83,322.09,228.41,324.29,226.21Zm-38.55,3.39c-.43-1.22-.86-2.46-1.34-3.81l-2.09,1.06a31.17,31.17,0,0,1-2.24-5.19,7.55,7.55,0,0,0-2.55-4.57L273.27,225l-4-4a20.77,20.77,0,0,1,.65,3.78c.05,3.06,1.34,5.64,2.48,8.07,2.1.89,1-3.2,3.28-1.64a8.79,8.79,0,0,0-.53,5.75c1.9,0,3.65.46,4.7-1.43.11-1.83.22-3.71.34-5.75l1.5.45c.77,2-.37,4,.94,6.19l4.05-3.39c.28.83.48,1.4.77,2.28l2.24-3.51c.33-2.19.62-4,1-6.27-1.36-1.76-.75-4.3-.61-6.66a46.18,46.18,0,0,1,1.41-6.94l1.52.27v5.32l1.6,1.5,3.25-4.71c-3-6.85-3.15-7-6.55-7.14-1.75,3.1-1,7.31-4.46,9.39a21.51,21.51,0,0,0,.43,2.18,19.53,19.53,0,0,0,.81,1.89l-.82.45-4-5.91s-.2.1-.2.22c0,2,0,4,0,6,3.93,4.16,3.93,4.16,3.79,9.18-.6.31-.78,1.36-2.08,1ZM352.6,219a10.89,10.89,0,0,0,.93-1c3.46-4.81,3.46-5.19,0-9.9-.78-1.06-1.95-1.83-1.5-3.38-1.95-1.8-.17-5.15-2.81-6.7l-2.16.11c0,2.54-.75,5.32.16,7.37,1.84,4.18,1.77,8.41,1.83,12.72,0,.27.3.54.47.81Zm-85.27-23.88,5.61,2.24c-.44-3.7,1.56-6.18,2.73-8.51L270.22,180l-2.91-1.19c-.9,1.52-1.68,2.85-2.09,3.53C266,186.89,266.61,190.74,267.33,195.11Zm17.43,2.32c2.36,1.23,2.85,1.67,3.24,2.85.26.82.5,1.64.57,1.87l-.92,1.9L286.31,203c-.09,3.05.44,4,1.62,4l3.37-2.68c-.52-2.71-1-5.18-1.56-8.13l-3-2.57Zm-18.92,7.79v-8l-3.31-.6,2.73-2.24-2.32-4.31-1.24,2.87-.62-.56v5.84Zm30.73-1.61.83,3.5c2.35-.51,2.87-1.82,2.53-3.76-1.9-1.25-2.85-3.84-5.82-4.56a32.45,32.45,0,0,0,.31,8.15ZM303,218.8v-5.52l2.29-.75-5.35-6.43c.53,4.91.95,8.8,1.38,12.7.13.07.27.19.41.19C302,219,302.34,218.9,303,218.8Zm-7.81-22.93c-3.6-5.94-3.6-5.94-7.21-7.91-.07,3.39,1.94,5.6,3.29,7.91Zm466.53-63,4.64,7.11a16.15,16.15,0,0,0-2.48-10Zm1,4.46-2.86-5.45-3,.37C758.92,135.74,758.92,135.74,762.69,137.37ZM336.23,149.62c-2.52-1.6-4.3,0-6.22.86,1.81,1.42,1.81,1.42,4.79,1.37C335.25,151.17,335.73,150.4,336.23,149.62Zm-80.05,52.7v5.54a27.44,27.44,0,0,0,2.79-6.62c.1-.35-.23-.83-.38-1.32ZM819.91,169c-1.67.19-3.26-.27-4.76.73a14.13,14.13,0,0,0,2.31.36,13.09,13.09,0,0,1,2.45,1.16Zm-61.56,67.53c.21,2.24.21,2.25,2.09,2.09ZM780,132.26l-2.05-.39c.16,1.24.28,2.13.46,3.47ZM298.17,210.82l.86,0-.37-1.69-.49.07Zm-49,12.35.06.86,1.67-.37-.07-.49Zm528.65-86-.86,0,.37,1.69.49-.07Z"/><path d="M864,230l1,3.34-2.81,3.13,4.71-1.68c-.42,1-.65,1.61-1,2.21s-.61,1.05-.91,1.57c.26.14.53.41.8.41,3.66,0,7.33.14,11,0,2.54-.12,5-.76,7.58-.92s5.52.58,7.95-.18c3.74-1.17,7.42-.6,11.31-.91a7.36,7.36,0,0,0-2.4-4.16c-3.36-2.88-4.8-6.82-6.41-10.82a126.06,126.06,0,0,0-7.42-14.9c-2.31-4.07-5.18-7.81-5.63-12.68,0-.4-.62-.73-.83-1.15s0-.65,0-1.49l2.49-2.76,1.41,1.41-.77,1.06c1.59,3.3,3.33,6.67,4.83,10.15a28.37,28.37,0,0,0,2.5,4.47,22.74,22.74,0,0,1,3.53,9,7.82,7.82,0,0,0,2.72,5.06c.18-1.07.34-2,.5-2.94l3.21-.53L899,215.55v-1.34l4-.37L901.76,212a45,45,0,0,1,3.21-4.4c4.72-5.17,8-11.35,12-17,0-3.21,2.36-5.79,2.13-9.15-.2-2.85-.74-5.85.87-8.6a2.83,2.83,0,0,0,0-2c-2-6.61-.7-13.38-.92-20.08a28.47,28.47,0,0,0-4.91-15,38.29,38.29,0,0,1-5-12.41,10.56,10.56,0,0,0-3.39-6.1c-3.34-2.74-6.76-5.44-10.21-8a34.38,34.38,0,0,1-10.59-12.61c-2-3.94-4-8-7.55-10.66l-3.06-9.18L851.09,53.59V51.17h5.39l2.54,1.3-1.17-2.88c-3.78-1.83-7.55-4-11.57-5.51-4.57-1.68-6.74-5.86-11-8.89h5.43c.12.67.28,1.58.42,2.4,5.88,3.22,11.78,6.32,17.51,9.69,1.23.73,3.07,1.77,2,4.49l-2.92,2.46c2.39,2.39,4.61,4.42,6.6,6.66s4.76,3.59,5.68,6.62c5.31,2.93,6.66,8.85,9.93,13.31a77.75,77.75,0,0,1,8.4,15c2.38,5.45,7.52,7.34,12.59,9.15a34,34,0,0,0,5.07,1l1.19,2.06-4-.72-.94,1,4.54,3.65H910c1.43,2.06,3,4,5.36,5.06.72.33,1,1.45,1.65,2.1,1,1,2,1.9,3,2.84-.47,2.43,2.18,2.92,3.11,5.26l-5.14-2.1c.27,3.28,3.7,5.33,2.88,8.8-2.42-1-1.88-3.9-3.9-4.71a6.23,6.23,0,0,0-.79-3.88c-.51-.86.47-2.59.57-3l-1.3-2.91-2.2,1.67-1.79-2.37c-.3,3.28-.3,3.28,5.51,10.5.17.7.17,1.68.42,2.59.54,1.94,1.43,3.73,1.7,5.8.4,3,2.22,5.41,3.46,7.34-.4,3.6-1.28,6.83-1,9.93.34,3.39.8,6.61-.39,10.18a14.43,14.43,0,0,1,.78,3.23c.11,3.65,0,7.31,0,11a6.88,6.88,0,0,1-.76,3.18c-.86,1.76-.59,4.05-1.3,5.94a40.06,40.06,0,0,1-3.81,7.88c-2.91,4.47-6.15,8.73-8.94,12.64.43,1.49.73,2.51,1,3.32-3.46,3.93-7.44,6.94-10.79,11.45,1.49.09,2.88.51,3.15.13,1-1.45,1.57.09,2.76.23.71-.66,2.28-1.43,2.43-2.41.37-2.43,3.82-2.88,3.3-5.65l4-3c0,.33.14.79,0,.95-1.56,1.58-1.83,3.83-3,5.62-.64,1-1.2,2.06-2,3.53a10.28,10.28,0,0,0,2.14-.74c1.27-.83,1.85-2.8,3.9-2.36v3l7.5-9.42c.54,2.2.44,2.48-2.8,6.24a13.62,13.62,0,0,0,1.6.91A9.3,9.3,0,0,0,922,221v-4.31l1.43,1.15,1.61-1a7.21,7.21,0,0,1-3,5.53,2.6,2.6,0,0,0-1,2.57l-1,1c-2,.27-1.79,2.45-3,3.49-1.36,1.21-2.61,2.56-3.89,3.86a.56.56,0,0,0-.15.43c.11.43.28.85.54,1.6l3-2.18c2,1.54,4.12.47,6.41.92.81-2.23,1.55-4.25,2.29-6.27.49-1.84,3.16-2.36,2.73-4.85h3.2l3.69-2.56c.11-.7.23-1.56.49-3.22l1.08,3.09,9.35-10.61V207l-1.71,1a2.37,2.37,0,0,1,1.9-3c.09,1.5,1.24.85,3.21,1.58.53-.19.33-.57.19-.55a8.09,8.09,0,0,0-1.4.44c.6.17,1.21.34,1.21.11A3.13,3.13,0,0,1,948,204l3.75-1.45A57.53,57.53,0,0,1,960,190c2.44.52,2.86-2.31,4.84-2.87v3.53L960,195.48c.17,2.94-1.63,5.11-3.25,7.12A28.19,28.19,0,0,1,947.9,210c-1.72.9-1.7,1-3,3.8,2.53.5,4-1.52,5.91-2.29,2.3-.94,4.51-.15,6.21-.5,7.72,3.5,15.22,6.45,20.56,11.94a17.62,17.62,0,0,1,1.32,8.86c2.9.15,5.74.75,8.5-1,2.63,1,5,3.09,8.64,1.86.21-.58,1.16-1.9.83-2.55-1.55-3-.6-6.1-.9-9.13.33,0,.67,0,1.33,0l-.47.05,1.44,11.78c1.6,1,1.6,1,4,.6-1.54-4.18-3.07-8.32-4.93-12.43-.71-.95.6-2.5-1.33-3l-.34-1.9-.66.07V218a5.68,5.68,0,0,1-2.8-6.66c0-.16.52-.23.8-.34.15.76-.5,1.91,1.39,2l-.48,0,.38,1.95.65-.09a3.49,3.49,0,0,0-.55-1.89c-.54-.75.11-1.9-1.39-2l-2.39-5c4.1,3,4,3,5.42,7.07,1.65,4.64,3.57,9.19,5.33,13.79,1,2.72,2,5.47,3,8.14l1.3-.06c-.21-1-.44-1.93-.61-2.9s-.34-2.18-.54-3.24c-.79-4.32-3.41-8.1-3.51-12.59a8.07,8.07,0,0,0-1-2.58,13.06,13.06,0,0,1-1-2.1,4.42,4.42,0,0,1,.25-2.41c3.34,6.62,4.76,13.85,7.14,20.88,2,.06,2.49-1.74,3.56-2.58.18-4.13-3.45-5.77-5.43-8.68a4,4,0,0,1,4.3-.36,13.68,13.68,0,0,0,8.71,1.39c2.67-1.54,2.67-1.54,4.43-4.51-2.34-5.64-3.32-12-9.4-15.79l7.34-5.23a25.9,25.9,0,0,0,2.88-16.19l3.07,1.29a19.69,19.69,0,0,0,5.52,14.67h9.45c.08,1.56.32,2.89-.66,4.53a9.33,9.33,0,0,0-1.13,3.48c-.24,2.47-.07,5-.07,7.53l4.28,1.41,9.56-5.82c-.35,1.91-.67,3.7-1,5.49,2.83,1.12,4.32-1.35,6.79-1.69.82,2.12.12,4.4.35,6.07-2.47,5.95-7.56,10.12-8.07,16.81h3.78c2.36-2.08,3.28-2.5,6.15-2.65v4.48l-1.53,1.53c-.17-1.08-.32-2-.47-2.87l-7.1,2-2.8-3.21a22.73,22.73,0,0,1,4.09-9.6,30.44,30.44,0,0,0,3.81-6.93,7.19,7.19,0,0,0,.19-2.36c-2.17.25-3.51,2.49-6.09,1.41v-4.82l-3.22,4.39-1-1c-5.34,1.33-5.51,1.29-9.63-2.62-.25-4.48-.38-9,2.38-13.34h-8l-6.47-6.56a6.08,6.08,0,0,0-1.93,5l-6,4.89c.92,1.24,1.82,2.63,2.9,3.86a4.79,4.79,0,0,1,1.14,2.56,20.07,20.07,0,0,0,2,6.15c1.75,3.09.77,5.41-1.35,7.67-.34.37-.7.71-1.23,1.24h-9.69c.8,2.27,1.49,4.25,2.3,6.54l-2.49,1.7c1.22,1,2.08,1.76,3.19,2.7h2.68l3.6,3.94H1039c.25-2.63-1-4.9-2.08-7-.71-1.35-2.5-2.13-3.73-3.1l-1.94,1.13c-.1-.5-.2-1-.35-1.69l3.81-.38c.12-.36.38-.71.3-.93-1.4-3.59-2.45-7.4-4.44-10.63-1.07-1.75-1.24-3.59-1.93-5.5.52.3,1.27.46,1.54.91A102.56,102.56,0,0,1,1041.26,236c6,0,12.19.63,18.19-.22,3.91-.56,7.82-.15,11.6-.86,9.18-1.71,18.4-.68,27.59-.88s18.33,0,27.49,0h28c13.33,0,26.67.15,40-.06,7.57-.12,15,1.49,22.58,1.14,7.82-.36,15.66-.08,23.49-.08,7.67,0,15.38-.54,23,.18,5.55.53,11.14,1.41,16.58.69,12.53-1.66,25.07-.38,37.59-.89.92,0,1.83-.42,2.76-.55,1.27-.19,2.81-.82,3.77-.33,3,1.52,6.11.6,9.14.9v4c-2.67,0-5.42.43-8-.08-7.51-1.51-15.06-.76-22.59-.89s-15.07.62-22.47-.22c-6.73-.77-13.4-.68-20.1-.79s-13.33,0-20-.07c-1.86,0-3.71-.75-5.58-.91a38.77,38.77,0,0,0-6,0c-6,.44-12,1.25-18.08,1s-12.33-.05-18.49-.05h-18.49c-6.17,0-12.43-.7-18.47.15-10.89,1.54-21.74.55-32.6.8s-21.67.34-32.48,0c-9.42-.32-18.7,1.27-28.08,1.12s-19-.18-28.49,0c-5.41.11-10.64-1.5-16.09-1.14-5.3.36-10.65.08-16,.08-.33,0-.81.14-1,0-1.71-1.72-4.06-.48-6-1.34a7.29,7.29,0,0,0-2.73-.61,52,52,0,0,0-7.49,0c-4.3.49-8.31-1.32-12.53-1.24-.23,0-.47-.44-.85-.82-4.31,4.87-7.82,10.64-14.39,13.43-.05.59-.12,1.38-.18,2.16-1.22,1.22-2.9.25-4.49-2.55h-2.3c-.82,1.54-1.69,3.18-2.56,4.84-6-1.78-6-1.78-10.23-6-.14.74-.29,1.27-.33,1.8s-.92,3.38-.92,4.23c-2.19,0-3.34,0-5.56-2.07l-5.46-7.46v-4.71l-1.65-1.73-6.25,1.43-2.4,2.4c-3.37.44-6.53,1.11-9.72,1.21-6,.2-12-.06-18,.12-2.18.07-4.39-.72-6.67.81-1.56,1-4.23-.79-6,1.13-4.22-.41-8.44.53-12.71-.65-2.78-.76-5.91-.23-8.87-.37-1.55-.08-3.09-.36-5-.6a27.83,27.83,0,0,1-4.17.59c-8.5.06-17,0-25.49.06-1.55,0-3.32-.68-4.63.9-.14.17-.64.11-.95.06-1.8-.31-3.55-1.93-5.41-.6s-3.52.41-5.26.57a31.54,31.54,0,0,1-6,0,60,60,0,0,1-5.91-1.18v-1.25c.24-.17.5-.51.75-.51,9.71.16,19.34-1.58,29.07-1.08,5.82.31,11.79.82,17.46-.15s11.42-.44,17.12-.74c1.19-.06,2.41.5,4.14.9a26.57,26.57,0,0,0,4.35-6.62C862.46,231.26,862.82,230.36,864,230Zm47.41-6.34L907.6,225l-1.39-1.18c-1.56,2.1-3.05,4.13-4.62,6.25l3.16,2.64a73.93,73.93,0,0,0,6.22-9.53l0,.87,2-.38-.09-.65C912.25,223.11,911.61,223.17,911.41,223.66ZM933,244c2.07-.16.13-2.44,1.46-2.91l1.69,1.19a16.51,16.51,0,0,1,2.31-11.17c1.86-3.1,3.23-6.76,7.85-8.46l-6.51,9.56c2.11,1.88,1.41,4.32,1,6.41s1.07,4,.56,5.13l1.07,2.38c.33-2.32-.86-4.65-.18-6.13.93-2,.31-4.12,1.12-6.06l1.67.27v8.18l2.27,1.2-2.32.8c.09.55.17,1,.25,1.44,2.35-.12,2.35-.12,3.81-2-2.58-9,.77-16.55,8.25-17.63-1.59,1.59-3,2.86-4.27,4.31-2.21,2.58-2.94,6.2-1,8.44v4.51l2.25,2.21L958,244.6l3.72-4.36.88.88,4.43-5.4-1.53-2.12,2.37-1.19-.4-.57h8.27c.13-.31.27-.5.23-.59a27.22,27.22,0,0,1-2-4.18c-1.32-4.89-5.12-7.14-9.34-8.77-1.73-.67-3.42-1.37-5.13-2.09a15,15,0,0,0-8.46-1.17c-1.2.21-2.15,1.4-3.58,1-1.76-.52-3.2.54-4.37,1.43-5.5,4.15-11.69,7.47-16,12.91v3.37l1.93.67c-.1.55-.17,1-.24,1.39l-2,.68C928,240.75,929,245,933,248.37Zm-24.74-8.15,6.61-6.61c.28-1.05.56-2.13.86-3.24h-2.25c-2.77,2.78-5.57,5.55-8.31,8.38-.23.24-.07.87-.1,1.47Zm109.23.08c-.94-.91-1.45-1.8-1.89-1.76-3.24.24-5.59-2.13-8.5-2.87-.16,1.89-.57,3.76,1.46,4.63Zm-78.32,1.89.87,0-.25-3.67-.62,0Zm-21.44-17.07-2.47,2.54,2.84-.6C918,222,917.89,221.59,917.73,220.75Z"/><path d="M710.79,138c1.09,2.75,1.72,5.32.37,8.28a5.67,5.67,0,0,0,.55,5.15c1.15,1.8-.11,4.29,1.18,6.5,1.45,2.49,2.06,5.46,3.14,8.52-6,9.68-16.34,14.47-26,20.55-6.11-.35-11.6,2.79-17.14,5.72-1.93,1-3.73,2.29-5.67,3.5-.38,5.91-2,11.38-5.85,16.05a9.17,9.17,0,0,0-1.31,2.95c-1.57,4.86-4.77,8.52-8.83,11.92-.09-.82-.16-1.44-.26-2.23a54.21,54.21,0,0,0,8.5-12.85c2.07-4.67,4.26-9.35,4.94-14.89a8.69,8.69,0,0,0,1.4-2.47c.65-2.75,3-3.84,5.06-4.58,5.69-2,11.07-4.68,16.64-6.91,6.23-2.51,11.81-6.12,17.66-9.24,2.23-1.19,4.06-3.1,6.09-4.64.88-.66,1.82-1.21,3.09-2.05-.53-1.3-1-2.77-1.71-4.13a38.18,38.18,0,0,1-2.75-8.39c-.92-3.74-.7-7.41-.83-11.12a6.58,6.58,0,0,0-.9-3.15,18,18,0,0,1-2-11.57c4.57-12.1,14.49-18.55,25.46-23.95,3,1.86,5.72,1.15,8.35-1.33-2.55-3.65-7.23-3.94-10.44-6.58a30,30,0,0,1-5.55-.87c-3.58-1-7.06-2.32-10.61-3.41A29.89,29.89,0,0,0,704.56,91c-3.38,0-6.71.16-10.12-.84s-6.91.8-10.37,1.31a19.44,19.44,0,0,1-2.76.53c-4.35,0-8.25,1.65-12.27,3-7.36,2.46-14.08,6.28-21.08,9.5-5.3,2.44-10.86,4.34-16.27,6.57a8.92,8.92,0,0,0-3.15,2c-3.31,3.57-7.69,5.51-11.74,7.94q-7.75,4.65-15.9,8.66c-2.08,1-4,2.76-6.14,3.24-2.61.57-3.76,2.81-5.86,4a86.27,86.27,0,0,1-12.11,5.81,17.28,17.28,0,0,1-4.24.46c-2.45-2.12-4.81-4.1-7.09-6.17a7.87,7.87,0,0,1-2.52-6c-.22-6.38,2.52-11.48,6-16.57,2.63-3.84,6.16-6.5,9.56-9.44,2-1.68,3.68-3.63,5.86-5.81H567.75c-4.47-2.8-5.75-5.41-5.75-11.34,2.81-3.56,5.89-7,7.37-11.67,2.66-2.66,5.51-5.46,8.31-8.32C582.41,63,588.2,59.66,593.77,56c7.29-4.84,15.87-6.8,23.54-10.78,4.15-.09,7.77-3.07,12.09-2.19,7.46-1.88,15.11-.22,22.56-1.17a80.84,80.84,0,0,1,12.11-.78c2.2.05,4.38.75,6.59.91a62.69,62.69,0,0,0,7,0c1.25,0,2.5.38,3.75-.69a3.29,3.29,0,0,1,3.19,0c1.24,1.07,2.53.82,3.73.68,4.28-.49,8.08,1.62,12.18,2,1,1.93,3,.6,4.46,1.31s3.12.53,4.71.68c.82.07,1.92-.33,2.45.07,2.37,1.79,5.33,0,7.5,1.23s4.7,1.59,6.87,2.74c3.69,2,7.66,3.29,11.41,5,3.36,1.59,6.38,3.91,9.57,5.88.66.4,1.37.72,2.06,1.07,4.69,2.35,9.45,4.58,14,7.12a41.45,41.45,0,0,1,6.93,4.95A21.56,21.56,0,0,0,775.3,77a38.24,38.24,0,0,1,13.59,11.6,104.39,104.39,0,0,1,11.49,18.2c.27.57.92,1,1.5,1.54v9.25a1.93,1.93,0,0,1-1.92-2,17.34,17.34,0,0,0-3-7.26c-3-4.75-5.86-9.61-9-14.24-2.7-3.92-5.07-8.25-9.71-10.41-4.82-5.48-11.73-8-17.44-12.27-2.53-1.88-5.82-2.77-8.83-4-4.79-1.92-9.08-4.71-13.42-7.42A35.59,35.59,0,0,0,734.42,58c-1-.44-2.28-.48-3-1.17-3-2.89-6.9-3.48-10.51-4.86-1.16-.44-2.22-1.11-3.84-1.94-3.66.56-7.62-1.68-11.94-1.15-1.16.14-2.5-1.1-4.17-1.9a19.73,19.73,0,0,1-9.3-1.65c-2.4-1-5.27-1.06-7.95-1.3a32,32,0,0,0-6.49,0c-5.61.63-11-1.34-16.59-1.1-4.06.17-7.95,1.49-12.09,1.13-4-.34-8.11-.67-12,.06-7.18,1.36-14.42,2.64-21.34,5.14A72.14,72.14,0,0,0,602.12,55c-5.6,3.39-11.52,6.28-16.75,10.22a74.09,74.09,0,0,0-9.11,8.14,34.92,34.92,0,0,0-5.19,7.32A72.22,72.22,0,0,0,568,88.4a5.05,5.05,0,0,1-1,1.13V92.6l4.77,3.4A51.78,51.78,0,0,0,577,96c5.83-.56,11.65-.92,17.36-2.68,2.78-.86,5.89-.94,8.72-1.93,4.22-1.47,8.39-3.08,12.6-4.57,5.52-2,11.08-3.82,16.6-5.8,4.53-1.63,8.92-3.7,13.84-4,.55,0,1.07-.62,1.59-1,3.3-2.19,7.51-1.9,10.85-4,.25-.15.66,0,1,0,4.42.34,8.64-1.77,13.09-1,11.14-2.14,22.39-.44,33.58-1,3.77-.19,12.59,2.1,16.83,4a32.62,32.62,0,0,0,9.75,3.12c3.45.44,6.74,2.13,10.09,3.29a98.48,98.48,0,0,0,12.52,3.62,11,11,0,0,1,5.07,2.11c2.53,2.29,5.75,3.14,8.54,4.84a15.45,15.45,0,0,1,4.59,3.74c2.2,4.89,4.41,9.78,6.56,14.54-.41.41-.63.64-.64.63-1-.87-1.91-1.77-3.23-3l-9,1.23-.46-.69,2.59-.27-1-1.3h6.41c-.83-2.63-2.37-4.69-3.05-7.3a8.55,8.55,0,0,0-5.75-6A22.45,22.45,0,0,1,759,89c-2.43-1.81-5.54-1.86-8.25-3-1.1-.46-2.29-.67-4.57-1.32,1.16,1.16,1.52,1.57,1.92,1.92A52.7,52.7,0,0,1,758,99c1.35,2.2,2.34,3,4.9,4.38-1.14,2.45-1.14,2.45,1.38,6.86-1.14-.49-1.86-.6-2.26-1a16.64,16.64,0,0,1-1.94-2.68c-.48-.79-.81-1.67-1.22-2.52l-3.08,1.62,1.05,2c-.29.11-.71.4-.85.3-3.93-2.87-5.46-7-6.18-12,3.4,1.2,3.22,5.62,7,6.14,0-.68.19-1.35-.05-1.78A19.93,19.93,0,0,0,755,98.06c-3.57-4.66-6.71-9.83-12.6-12-2.49-.93-3.73-2.84-4.93-5.15-3.66,1.24-6.7-2.24-10.73-1.76,2,2.28,3.9,3.59,6.69,4,3.47.46,6.24,2.8,8.93,4.88a61.37,61.37,0,0,1,6.38,6.32c.26.27.18.87.37,2-2-1.71-3.37-3.1-4.94-4.3s-3.25-1.91-4.69-3.1c-2.35-1.93-4.41-4.31-7.89-3.92a15.35,15.35,0,0,0-5.18-3.19,36.43,36.43,0,0,0-6.23-1.9c-5.48-1.24-11.11-1.74-16.48-3.6-2.65-.92-5.59-1-8.34-1.45L693.5,73c-5.45,0-10.94-.09-16.43,0-2.21,0-4.39.74-6.59.91s-4.49-.45-6.46.16c-2.88.88-5.89,1-8.7,1.92s-5.41,2.22-8.14,3.27c-3.5,1.34-6.88,3.19-9.67,2.81-3.52,1.2-6,2.06-8.47,2.88-4.11,1.35-8.38,2.33-12.3,4.1s-8.32,2.32-12.12,4.6c-1.5.9-3.41,1.25-5.11,2.12a15.59,15.59,0,0,1-9,1.12,103.26,103.26,0,0,1-14.31,12.54c-2.05,1.48-3.19,4.26-4.67,6.49a29.52,29.52,0,0,0-4.23,8.24c-.25.92-.11,1.94-.35,2.86a10.26,10.26,0,0,1-1,2c2.45,3.78,4.86,7.46,7.11,10.92,7.37,0,12.86-2.42,18.38-7.94l2.13-.1c1.19-2,3.49-2.64,5.61-3.72q7-3.6,13.85-7.66c3.61-2.15,7.45-3.91,10.77-6.57,1.35-1.08,2.86-2,4.24-3,3.89-3,8.67-4,13.06-5.89,5.57-2.34,11.1-4.56,16.3-7.78A50.61,50.61,0,0,1,673.76,91c2.5-.52,5-1.41,7.58-1a2.14,2.14,0,0,0,1.39-.24C685.91,87.64,689.49,88,693,88c4.5,0,9,0,13.5,0a25.13,25.13,0,0,1,10.24,1.85c3.52,1.48,7.44,2.06,11,4.17h4.09A60.09,60.09,0,0,1,738.36,98a67.58,67.58,0,0,1,5.49,5.39v4.42a23.23,23.23,0,0,0-7.77,3.73c-2.28,1.7-4.29,3.77-7.12,5.24l.84-2.37c-.25-.35-.62-.85-.85-1.18l5.59-5.59c-2.87-1.3-4.3.46-6.07,1.37a51.49,51.49,0,0,0-14.92,11,16.27,16.27,0,0,0-3.69,7.49,31.76,31.76,0,0,0-.8,8.48l3.43-2.24C713.81,136,711.56,136.37,710.79,138Zm12.36-59.85c1.16.93,1.16.93,2.82,0a5.89,5.89,0,0,1-2-.12,20.4,20.4,0,0,0-5.8-2.17c-1.62-.33-3.51-.37-4.94-1.21-1.91-1.13-4.21.22-5.65-.76-2-1.36-3.66-.53-6.59-1,6.1,3.81,12.36,2.41,17.57,5.07C719.74,78.52,721.5,78,723.15,78.12ZM736,109.55l-.82-.92-3.64,3.27C734.32,112.16,734.79,110.34,736,109.55Z"/><path d="M308,136c-2.2.34-2.76-1.44-3.47-3l-1.77,1.77-4.83-4.84-3.22.31c1.65,4.09,5.5,4.46,8.7,6.47l-5.78,2.75c-2.42-3.78-4.62-7.2-6.85-10.66l-1.54,1.39a15.34,15.34,0,0,1-5.14-5,50.75,50.75,0,0,1-3.74-7.44,28.65,28.65,0,0,1-2.14-7.56c-.52-4.23-1.21-8.95,3.43-12.15l3,4.26c1.11-.82,2.1-1.57,3.07-2.28,1.87-.55,2.67.91,3.75,1.92l1.21-1.09a21.57,21.57,0,0,1-.64-2.74,22.37,22.37,0,0,1,0-2.83l-4-2.71.22-.65L293,93l1.57,2.13h3.9l4.39,4.41c.68-1.12-.38-2.07-.73-3.25-.31-1,.48-2.36.9-4-1.09-.71-2.42-1.52-3.65-2.45-.31-.23-.34-.84-.62-1.63l3-.23,3.45,3.75,6.12,1.74c2.46,3.5,5.29,7.52,8.13,11.54h2.21l4.39,5.22v-5.32l4.89,1.5,4.48,5.63.75-.37c-.43-2.11-.86-4.22-1.28-6.25L330.45,101l-2.12.3.69,3.37c-5.06-2.91-6.94-7.56-10.52-10.93,2.3-1,4.21-1.69,3.33-4.48-2.43-1.41-4.47-3.9-7.83-3.32V83.5c-.8-.47-1.59-1-2.41-1.4C309.53,81,307.48,80,305.36,79A6.45,6.45,0,0,0,303,79v1.9l2.42,3.1H309c2.12,2.18,4.84,4.46,6.91,7.23,1.95,2.61,3.21,5.73,4.85,8.76-2.6-1.16-3.86-2-4.74-3.92a29.71,29.71,0,0,0-7-9.57,2.86,2.86,0,0,0-.68-.33c-.51,1.39-.87,2.87-3,2.86-.45-2.79-3.11-3.91-4.5-5.79L294,81.9c1.2,3.11,2.23,5.8,2.76,7.18-.59,1.62-.86,2.35-1.45,3.93-.74-4.85-1.58-8.3-5.87-9.86l3.75-2.74c-.62-1.23-1.16-2.32-1.69-3.4l-1.08.94-3.79-3.79h-3.07c.88,2.47,2,4.56,2.32,6.77a9.56,9.56,0,0,0,3.2,5.69c1.2,1.16,2.43,2.3,3.5,3.56.35.42.27,1.2.39,1.82l-3.68-2.91a3.91,3.91,0,0,0-4.43,1.64c.3,2.12.65,4.68,1.16,8.34l-3.19-6.21V87.53c-2.64,3.08-2.29,6.53-3.61,9.49V88.33A8.53,8.53,0,0,0,282.07,82c-.05-1.33.68-2.69,1.09-4.16l-2.46-2.76,3-3.25,3.1.93,1.83-2.56c-.17.07.1-.07.39-.17,2.2-.69,4.16.52,6,1.14a14.62,14.62,0,0,1,5.46,2.6c3,2.6,6.91,4.13,10.39,6.16a64.72,64.72,0,0,1,13.74,10.21c1.52,1.54,3.06,3.06,4.77,4.77h3c5.67,5.67,7.44,10.67,5.53,15.8l3.16.55c-1,3.6,1.75,7,.64,10.93-1.1-1.9-2-3.57-3-5.23l-.74.33a11.15,11.15,0,0,1,.68,1.91,21.73,21.73,0,0,1,0,3l2.44,2.45c-.54,4.37-3.66,7.91-3,12.64,3.83-2,6.85-1.47,9.89,1.13,1.84,1.56,4.34,2.34,6.75,3.58,4.42.3,9,.06,13.06-3.17v-3.46l-1.59-1.59V130A16.77,16.77,0,0,1,373,140.29c-.25,4.73-4.56,5.54-7.89,7.65-3.19-.34-6.5,1.53-10.17,1.14s-7.22-.08-10.85-.45c4.08-.36,7.94-2,12.11-1.67,4.67.33,8.88-1.26,12.81-3.55,0-2.29-1.62-1.11-2.52-1.4l-1.88,1.88H353.77l-11.2-5.6c-3.78,1.67-8.9-.43-12,3.71h-4.07l.41-.42-2.2-1.09c1.76-3.43,5-5.59,4.35-9.94l1.9,1.9c.49,2.94-2.21,4.64-2.53,7.35h2.28c1.18-3,3.4-6,3.24-9.76,0-.68-.8-1.33-1.42-2.27l-1.83,2.55c-.36-.59-.73-1-.66-1.11a8.83,8.83,0,0,0,.92-5.66l1.4-1.4c.22.13.57.22.63.41.42,1.43.77,2.9,2.72,3.82.63-3.23.07-6.14.35-8.86l-2.18-2c-2.63,3.61-4.81,6.92-5,11.53H326l1.3-5.68c.41-.57,1.06-1.44,1.61-2.34a2.91,2.91,0,0,0,.41.27q1.31-1.83,2.58-3.65v-5.27c-1.32-.72-1.77-3-4-2,.75,1.85,1.86,3.49,2,5.21s-.66,3.62-1,5.45c-3-2.69-3.79-6.88-6.29-10l-1.54,1.47v6.2l1.3,1.23,2.06-1c1.86,2.62-1,3.54-1.9,5.72,1.57,1.07.95,3.69,3.46,4.41l-4.06,6.67v6.16l-1.74.18v-3.2c-1.84-2.08-3.48-3.94-6.36-4.64.55,2.76,3.45,4.76,1.61,8l-1.67-2.45-.67.36a4.93,4.93,0,0,0,.47,1.92,34.5,34.5,0,0,0,2.81,2.87l2.74.32-3.84,2.64h-3.15L301,141c1.51-1.94,3.35-1.09,5-.44,1.84.73,3.56,1.75,6.09,3A30.2,30.2,0,0,0,308,136a10.5,10.5,0,0,1,2,0,13.77,13.77,0,0,1,2.19.89c-.57-2.84-3.11-3.7-4.24-5.74l.84-2.17,1.68,3.25c1.08-1.66,3-2.33,2.48-4.65-1.49-2.68-4.77-3-7.25-5l-1.85,3.9C305.27,129.8,306.6,132.91,308,136Zm-1.1-32.34-1.31,1.25c-3.4-2.66-5.57-6.82-10.55-8.11,0,3,.13,5.6,0,8.21s.86,5.21-.82,7.62c1.36,1.11,1.23,3.83,3.79,4,.32-2.24-.37-4.54.57-7a9.1,9.1,0,0,0,2.27,1.34,14.77,14.77,0,0,0,3,0l4.36,4.69c-.49-3.67-.87-6.56-1.26-9.49l4.56-.48a14.82,14.82,0,0,1-1.11-1.94,7.47,7.47,0,0,1-.25-1.65l.67-.36,2.64,3.57c.7-1.39,1.18-2.36,1.72-3.45-2.26-3.81-4.61-7.5-9.94-8v6.52Zm-14.19,25,5.31-.81c2.37,1.26,3.08,4,6.13,4.25L301.89,128v-4.63c-4.28-2.68-6.42-7.47-10.77-10.32v8l4.19,4.27-1.13-3,1.28-1.28c1.87,1.16,1.74,2.89,1.35,4.83h-4.47c-3.44-3.12-4.68-8.23-9.23-10.83v4.15a45.07,45.07,0,0,0,6.06,9.66c-.52-2.35-.78-3.53-1.27-5.77Zm23.61-13.39c-2-4.15-3.39-5.38-7.3-6.85.43,2.36.86,4.7,1.1,6l2.78,6.36a14.92,14.92,0,0,1-6.55-4.18c-1.67-2.1-3.69-3.38-6.15-5v7.11l2.28,3.2,4.88-1.08,8.76,7.33c-.49-3.77-.93-7.22-1.4-10.91-.42-.86-1-2-2-4ZM289,115.9c-.4-2.15-.8-4.24-1.28-6.74a11.45,11.45,0,0,1-4-5.84c-.23-.64-1.1-1-1.92-1.78l-1.66,2.58v7.22C283.72,111.49,284.73,116,289,115.9Zm34,10.87c-.49-3.35-2.78-4.84-4.59-6.83-2.07,3.12-2.05,3.31.37,7.62.41,2.3-.19,4.4.57,6.73C320.73,131.56,321.88,129.2,323.06,126.77ZM312.6,108.14c1.58,1.57,3.35,2.73,4.24,4.38s1.21,3.3,3,4.23c-.06-1.41-.76-2.66-.79-3.94a21.59,21.59,0,0,1,.78-4.55l-4-3.66ZM290.93,73.51c2.93,2.48,5,5.84,9,7.52.46-1.13.91-2.27,1.29-3.2L297.5,74C295.3,74.41,293.39,71.87,290.93,73.51Zm44.57,26.85c-4.92-2.16-8.12-6.35-13.81-7.72,2,2.91,3.49,5.14,5.15,7.58l3.61-1.29C331.59,100,332.58,101.89,335.5,100.36Zm-47.15,1.79c-.78,3.48.76,5.1,2.11,6.94l1.72-3.45Zm47.73,28.5.5.38,1.39-3.21-1.89.4Zm-8.91-16.83.86-.06-.37-1.67-.49.07Z"/><path d="M1046,138c-.34,1.68-.67,3.36-1,5.07l2.53,3.88c5.65-1.95,5.65-1.95,7.48-6.45l-1-1,3-2.5v4.55l2.64,2.37h4.15L1065,140c2.3.51,2.88-2.47,4.45-2.43-.59-4.31-1.18-8.67-1.72-12.6.7-.93,1.08-1.42,1.81-2.4l-2.45-1.29v-8l2.6-1.63c-.66,3.61-1.59,6.78.24,9.88.22.37.07,1,.07,1.46,0,2.31-.17,4.65,0,6.95a49.15,49.15,0,0,0,1.26,5.92c.76.7,2.46-.72,2.7,1.58a3.92,3.92,0,0,1,0-.48l-1.94.38.09.65a3.49,3.49,0,0,0,1.89-.55,29.27,29.27,0,0,1,5.79-.39c.1-.67.15-1,.26-1.67l-4-.59c0-.47-.08-.79-.13-1.41,2-.69,4.14-.11,6.72-.45.21-.5.63-1.45,1-2.23,4,1.26,6.45-1,9.38-2.07v-4.47h7.85c-.41-1-.72-1.76-1-2.51,2.6-1.85,4.58.9,7.23,1l-2.47,1.28.44.82,3.4.73c-4.58,1.85-9.84,1.26-12.21,6.38l4.81.53-6.41,2.36c1.58,2.21,3.06,4.25,4.57,6.36h7.5c.75,1.89-.4,2.56-1.69,2.95a23.06,23.06,0,0,1-14.16,0,6.72,6.72,0,0,0-1.71,0c1.49,4.45,2.93,8.74,4.38,13,.1.29.41.53.44.82.36,3.52,1,7.06.91,10.57-.11,2.69,1.27,5,1.14,7.59a67,67,0,0,0,0,7.5c.07,1.21,1,2.46.84,3.56s-.92,2.24-.94,3.61c-.08,5.39,1.44,10.64,1.2,16.09-.1,2.29,1.45,4.66,2.37,7.34.58-.31,1.2-.67,1.85-1s1.41-.59,3.1-1.29c1.28-.28,3.88,1,6.07-.78,1.14.93,2.08,2,1.22,3.68a52.76,52.76,0,0,0-2.72,5.87c-1,2.94-2.58,5.79-1.81,10-2.34-3-2.84-5.1-1.28-7.7a55.7,55.7,0,0,0,2.83-6.22c-.79-1-1.59-1.91-2.38-2.86-2.34.93-4.2,2.8-7.13,1.94l-3-4.2-1.52-8.51-.49,0a13.2,13.2,0,0,0-.24,2.56,18,18,0,0,1-1.52,8.39,4.75,4.75,0,0,0-.47,2.28c.53,4-1.18,6.89-4,9.13-.38,2.46-.33,2.49-2.83,4.69-.68-2.51.76-4.37,1.53-6.3a34.42,34.42,0,0,0,2.3-8.56c.11-.9.73-1.74.81-2.64.21-2.21,1.59-4.17,1.21-6.54-.2-1.19,1.78-5.27,3-6.64-.85-1.78.63-3.63.24-5.85-.36-2.06.59-4.32.7-6.51.1-2,.32-4.11-.38-5.82-.8-2-.42-3.85-.55-5.76s.44-4.15-.13-6c-1.15-3.68-.76-7.55-1.89-11.2-1-3.4-1.93-6.86-3-10.24a22.67,22.67,0,0,0-2-3.66c-.73-1.3-1.45-2.62-2.58-4.68,4,2.72,6.46,3.31,11.6,3,.23-2.83-2.71-4.12-3.12-6.1-3-3.43-6.14-.26-9.39-.71l-2.37,2.93v2.8l2.59,2c.62,2.57.72,4.39,1.47,5.89,1.81,3.59,2.14,7.49,2.86,11.31.44,2.32.59,4.76,1.44,6.91A8.49,8.49,0,0,1,1090,171c0,6.67.1,13.33,0,20,0,2.2-1,4.4-.86,6.58.12,2.34-.75,4.39-1.13,6.58,0,.31-.63.54-1,.8-.74-3.95,1.16-7.66,1-11.57s-.12-7.67,0-11.49c0-1.37,1-2.74.88-4.08-.17-3.18-.16-6.55-1.26-9.45-.86-2.27-.25-4.65-1.54-6.87-1-1.65-.5-4.09-1.21-6a20.22,20.22,0,0,1-.94-7.39c-2.68,3.94-4.92,7-8.17,9-2-1.53.21-2.34.32-3.47.08-.91,1.28-1.72,2.32-3l-2.34-1A16.53,16.53,0,0,0,1077.8,139c-3.81,0-6.62,2.27-9.71,4.23v12.7l-2.58,4c.94-.23,1.24-.21,1.39-.36,2-2,4-4,6-6a7.7,7.7,0,0,1,1.86-.89c.06,1.54-1,1.86-1.55,2.5-.73.89-1.62,1.66-2.45,2.49l-2.12,2.12c-.7.7-1.37,1.45-2.13,2.11a23.91,23.91,0,0,1-2.65,2,24.36,24.36,0,0,1-2.7,1.33c-.11-1-.18-1.65-.29-2.65,3.57-3.47,6.54-7.54,6.06-13.58-.81-.31-2-1.24-2.76-1-1.7.59-3.61.41-5.06,1-2.41,1-4.75.72-7.13.8,0-.54-.07-1.14-.13-1.91l-3.62,1.85c1.91,0,2.82,0,3.75.06-.42.69-.84,1.32-1.33,2.06-1.56,0-3.12,0-4.67,0-.81-1.28-1.66-2.56-2.56-3.92-1.7-.32-3,.16-3.5,2.11,1.7,1.83,3.8,2.1,6.06,1.81-1.23,2.2-3.32,2.05-5.76,2l-2.52-3h-6.26l-1.45-1.45v-3c-4.53-1.62-5-6.62-8.27-9.38a29.1,29.1,0,0,0,2.23-13.42l4.7-8.56c.84,4-1.51,5.79-3.2,8.3l3.57.87-2.94,3.09c2.52,3.78-.8,6.11-2.63,9.21l3,.39c1.18-2.24,1.71-4.76,4.33-5.91-.36,1.94-.68,3.72-1.13,6.18L1036,131a2.29,2.29,0,0,1-1,2.5,1.84,1.84,0,0,0-.82,2.34c-2,1-2.78,2.16-1.63,4.35.62-1.55,1.13-2.83,1.63-4.35a3.41,3.41,0,0,0,1.37.16c-.25,1.77-.5,3.55-.75,5.37.82.7,1.53,1.29,2.5,2.1.69-1.94,1.25-3.49,1.73-4.86l3.68-2.53c.09.4.42,1,.25,1.27-.66,1-1.49,2-2.65,3.45l3.19.25Zm-3.84,6.5c-3.68-.49-5.15.34-6.06,3.57C1038.75,147.74,1041.15,147.51,1042.16,144.5Zm57.25-19.27c-1.76.11-3.23-.13-4.36.38-.73.34-1,1.78-1.35,2.59l1.82,1.82C1096.69,128.57,1098.42,127.6,1099.41,125.23Zm-46.68,21.65,3.47,1.72,2.94-2.12-2.72-1.22Zm-17.83-.28-2.47-4c-.33,3.43-.34,3.44.61,4.9.12.17.45.2.66.28Zm45.35-2.6v6c0-2.1,2.74-3.68,1.35-6Zm-13.33-.5-2.31,2.32h2.31Z"/><path d="M973,163.17c-1.09-4.35-1.16-4.38,0-7.83.6-1.79,1.47-3.26.09-5.27a5.11,5.11,0,0,1,0-4.36c1.65-3.29,1.27-7,2.73-10.38,1.11-2.57-.44-5.55-1.82-8.11a15.12,15.12,0,0,0,1-7.25,37.92,37.92,0,0,1,0-5c.39-6.48-1.07-12.63-3-18.77-1.32-4.29-2.82-8.51-4.22-12.77-.82-2.47-2.37-4.69-3.83-7.5v-2c-2.36-2.86-4.35-5.66-6.75-8.06-4-4-8.66-7-13.21-10.3-.13-.1-.26-.35-.35-.33-3.42.68-5.38-2.33-8.12-3.38s-5.45-2.09-8.21-3.1c-4.09-1.48-8.37-2.26-12.51-3.53-2.67-.82-5.14-2.16-7.88-2.79-1.77-.41-3.38-1.8-5.14-2-3.66-.37-6.39-2.4-9.43-4.47-6,.66-12.08-1.43-18.35-1a120,120,0,0,1-18.48-.07c-4.05-.38-8.59-.61-11.55-4.38L845.46,29a14,14,0,0,1,6.1.89c1.91.68,4.18-.72,6.12,1,.57.5,1.94.08,2.94.08,5,0,10,.05,15,0a33.27,33.27,0,0,1,10.74,1.82,11.8,11.8,0,0,0,3.43.19,37.87,37.87,0,0,1,4,0,10.7,10.7,0,0,1,3.09,1c4.26,2,9,2.28,13.35,4,.29.11.74-.12,1,0,4.9,3.09,10.41,4.65,15.81,6.52,4.37,1.51,8.51,3.53,13.1,4.66,3.94,1,7.52,3.54,11.14,5.61a46.71,46.71,0,0,1,6.59,4.58c4.51,3.76,6.82,9.13,8.95,14.28,1.41,3.42,3.14,6.7,4.58,10.1a74.84,74.84,0,0,1,3.75,13c.82,3.89.74,7.73.92,11.61a38.22,38.22,0,0,0,.94,4.09c.23,1.39-.53,3,1,4.08-.44,2.55.84,5.23-.68,7.73a4,4,0,0,0-.3,2.35c.68,6.1-1.09,12-1.06,18.09,0,.7-.59,1.41-1,2.31a13.34,13.34,0,0,1,1.83,10.4C976.31,159.32,975.43,161.94,973,163.17Z"/><path d="M607,81c-.36,1.18-1.24,1.54-2.33,2.08-6,2.92-12.08,5-18.94,3.69l-3.81-4,1-5.75c1.51-1.29,2.91-2.32,4.1-3.54,5.76-5.9,6.06-5.46,14-8.44.3-.11.83.13,1,0,3.34-3.77,9.07-2.48,12.52-6,3.37-.62,6.38-2.53,9.75-2.91,2.1-.24,3.87-1.18,5.83-1.68,2.28-.59,4.54-1.14,6.87-1.55,4.13-.73,8.37-1.18,12.36-2.65a3.06,3.06,0,0,1,1.4-.19c6.09.75,12-1.41,18.07-1.05a4.91,4.91,0,0,0,3.71-.75c.84-.65,2.66-.55,3.84-.16,4.64,1.56,9.79.61,14.26,2.92.27.14.66,0,1,0,9.86.85,14.31,2,25.67,6.73a24.36,24.36,0,0,0,2.7.72,44.9,44.9,0,0,1,12.85,6.43c4.7,3.18,10,5.53,15.09,8.09,2.47,1.22,4.78,2.49,6.11,5a7.7,7.7,0,0,1-1.84-.37c-5.27-2.56-10.54-5.12-15.76-7.77a14.36,14.36,0,0,1-3.46-2.47,24,24,0,0,0-9.65-5.72c-4.68-1.5-9.11-3.76-14-4.86-3.63-.82-6.94-2.88-10.82-2.84-.57,0-1.12-.51-1.71-.65-2.46-.59-4.81-1.43-7.45-1.41a25.08,25.08,0,0,1-9-1.21c-3.3-1.28-6.5-.21-9.69-.7-1.63,1.62-3.72,1.13-5.58.94-5.93-.58-11.67,1.35-17.57,1.12a7.17,7.17,0,0,0-4,1c-2.4,1.56-5,1.82-7.71,2A26.16,26.16,0,0,0,630,56.56,70.06,70.06,0,0,1,620.49,59a7.17,7.17,0,0,0-1.71.7,67.13,67.13,0,0,1-9.5,3.62,17.93,17.93,0,0,0-5,2.49,13.31,13.31,0,0,1-6,2.34,10.83,10.83,0,0,0-6.49,3.53c-1.32,1.37-2.81,2.58-4.65,4.25-.34,1.76-.82,4.2-1.25,6.42l2.4,2.4a3.77,3.77,0,0,0,.91.22c3.84,0,7.34-1.44,10.92-2.56C602.34,81.72,604.52,80.6,607,81Z"/><path d="M798,229c.36,1.18,1.19,1.59,2.32,2.09a37.89,37.89,0,0,1,5.93,3.71c.45.31.64,1,1.42,2.27l-14.15-6.23c-1.52.53-2.6,1.07-2.53,2.72.13,2.84-1.58,4.69-4.14,7,.6-2.22.73-4,1.54-5.28.71-1.14.46-2.17.61-3.25,1.93-.47.62-2,1-3,.33-.26,1-.54,1-.79-.11-3,1.28-5.46,2.39-8,1.47-3.39,3.12-6.7,4.63-10.06a1.86,1.86,0,0,0,0-1l6.69-6.1c2.62,0,5.75-.15,8.87,0s6,.71,9.18,1.1c.1.37.22.82.38,1.45-3.19.48-6.29,1.14-9.41,1.36-3.31.23-6.66.05-10.08.05-3.59,2.59-4.11,7.19-6.58,10.55,2.43,1.59,4.62-.19,6.88-.6a93.5,93.5,0,0,0,15.32-4c2-.72,3.92-1.76,5.91-2.6A9.09,9.09,0,0,1,827,210l-5.84,5.78c8.75,1.38,14.08-4.14,19.26-9.78H844c-.19,2,2.08,3.76.59,5.91l-1.32.13c-.13-1.21-.26-2.42-.41-3.84h-2.69l-7.1,8.44c-3.31.78-6.41,1.11-9.39,2.12a11.25,11.25,0,0,1-3.4.23c-3.49,0-7.15-.66-10.43.17-4.53,1.16-9,.45-13.68,1l-1.95,3.31c2.25,1,4.78,1.64,6.66,3.1,3.32,2.57,7.17,3.62,11.36,5l-2,1.8c-.61-.43-1.13-1.12-1.6-1.08-3.71.33-6.59-1.71-9.67-3.19a2.51,2.51,0,0,0-1,0c-.09-1.5-1.24-.85-2.27-1a22.11,22.11,0,0,1-2.86-2.53c.46,1.52,1.07,2.75,2.86,2.53C796.09,229.5,797.24,228.85,798,229Z"/><path d="M1108.28,108l3.6-1.39V104.3c-1.39-1-3.91.92-4.62-2l3-.63L1109,98.92c.36-.61.74-1.27,1.21-2.09-1.74-2.47-4.27-3.07-7.58-2.76.64-1.37,1-2.17,1.41-3-.73-2.73-3.63-2.74-5.53-3.85s-4.28-.83-6.46-1.2-4.34-.77-6.37-1.14l-3,4.92a12.48,12.48,0,0,1,.3-4.55l-1.47-.32c-.93,3-1.85,5.94-2.79,9H1077c0-3,1.47-5.68,2-8.83l-4.93,2.31v5.25l-2.54-3.88-8.44,1.5c0,.69-.07,1.33-.1,1.89l6.54,7.69H1066a20,20,0,0,0-7.06-9l-3.41,2.87,2.55,1.64-.33.57-5.72-1.36c4.81-5.12,10.75-7.6,18.16-7.6a24.41,24.41,0,0,1,13.83-4c2.49.07,5-.11,7.48,0,5.37.31,10.24,1.78,14,6,2,2.23,4.22,4.26,6.4,6.44v6.83c1.08.72,2.1,1.41,3.33,2.22-1.79,3.55-3.53,7-4.87,9.63l-7,1.86-1.36-1.67,3.35-.49,3.93-3.08C1109.1,110.11,1108.79,109.31,1108.28,108Z"/><path d="M771,185a20.83,20.83,0,0,1,3,10.44c.12,7.64,0,15.29,0,23.52l4.21,3.49c-.73,2.52-.89,4.86-3.79,5.76-1.13.35-1.91,1.78-2.9,2.77-4.78.28-8.5-1.34-10.73-6.22a18.77,18.77,0,0,1,11-6,46.57,46.57,0,0,1-.77-5.83C771,203.62,771,194.31,771,185Z"/><path d="M592.22,116.28l-3.9-1.44-7.23,4.4v2.55l2.95.43c-1.86,1.67-1.86,1.67-5.09,1.64l-1.33-3.46c2.4-1.87,4.59-3.51,6.7-5.26a7.13,7.13,0,0,1,2.5-1.23A39.79,39.79,0,0,0,597.33,108c3.57-2.58,7.53-4.5,11.08-7,7.82-5.62,17.15-7.61,25.91-11,1-.39,2-.68,3.18-1.06l.75,1.51c-3.76,1.54-7.3,3.43-11.08,4.46-7.52,2-14.38,5.55-21.17,9.17-2.77,1.48-5.11,3.84-7.51,6C596.39,111.93,594.48,114,592.22,116.28Z"/><path d="M837.93,167.6c.09-1.06.16-1.83.27-3.15,2.11,1.43,3.84,2.49,5.43,3.71,3.23,2.5,6.34,5.17,10.56,5.84,6.5,4,14.14,5.16,20.94,8.47,2.25,1.1,4.36,2.33,6.6,3.55a8.38,8.38,0,0,1,.25,1.41,11.3,11.3,0,0,1-.18,1.65c-4.49-3.87-9.83-5.54-15.11-7-4.49-1.2-8.89-2.64-13.21-4.26a37,37,0,0,1-9.09-4.68C842.12,171.52,840.42,169.37,837.93,167.6Z"/><path d="M842.53,203.05c-3.77-.6-6.5,2.67-10.09,2.89,1.34-2.06,2.16-2.53,7-3.94,3.29-1,3.29-1,8.18,1.09,2.85,6.47,2.09,16.59-4.36,21.23-.49,3.83-1,7.49-1.48,11.46l-1.62.28v-9l-10.51,6.09-.74-1.21c2.72-2.79,6.32-4.1,9.32-6.32a34.14,34.14,0,0,0,7.68-8.36V207.3C844.09,206.52,844.14,204.2,842.53,203.05Z"/><path d="M686.93,228.84h-3.59c-.94-.94-2-2-3.07-3.06a26.69,26.69,0,0,1-8.45-16.55c-.32-2.36-.66-4.72-.86-7.11a20.49,20.49,0,0,0-1-3.64l1.52-1.4,1.51,1.4c-.66,7.12,2.16,13.76,4.07,20.55.52,1.84,2.19,3.35,3.95,4.79a20.76,20.76,0,0,0-.7-2.95c-1.05-2.56-2.27-5.06-3.32-7.62a12,12,0,0,1-1-3.58,27.12,27.12,0,0,1,.54-7.59c.48,1.14,1,2.25,1.4,3.43a24.05,24.05,0,0,1,1,4.08,40.74,40.74,0,0,0,5.36,14.29A55.8,55.8,0,0,1,686.93,228.84Z"/><path d="M722,194c1.58-1.42,3.09-2.94,4.77-4.23,2.06-1.58,4.25-3,6.43-4.43A5.15,5.15,0,0,1,735,185c.26.33.58,1,.77.95,1.21-.21,2.4-.57,3.86-.95.14.46.31,1,.5,1.63L730,189.11c0,.71.06,1.16.08,1.57.39.13.73.38,1,.3,6.58-2.3,13.13-3.14,19.63.24.76.39,1.47.9,2.89,1.78-1.65,0-2.8.35-3.49-.07-2.12-1.27-4.36-.94-6.58-.91s-4.55-.57-6.55,1c-.1.08-.32,0-.49,0Z"/><path d="M790,153l-3.22,4,1.22,1-3.52,4.24-2.91-1.44-2.3,4.7-3.66,4.11c-.71,3-1.24,5.2-1.76,7.39l-.85-.1c0-1.45-.42-3.07.08-4.32,1.43-3.58,1.61-7.71,4-10.8C780,158,781,152.67,786,150a14.62,14.62,0,0,1-.06,1.8,21.47,21.47,0,0,0-2.54,2.62l2.48.73c0-1.31,0-2.22.06-3.35a10.56,10.56,0,0,0,2.35-.92Zm-5.73,7.25,2.47-2.54-2.84.6C784,159,784.11,159.41,784.27,160.25Z"/><path d="M303,169.81l-8.44,5.95c-3.6-1.94-3.6-1.94-4.45-4.74.64.4,1.07.9,1.55.94,1.3.12,2.62,0,3.81,0l4.19-3c.5-5.63,1-10.94,1.41-16l5.72-5.72c.07.46.17,1.18.26,1.75L303,152.9Z"/><path d="M723.15,221.83l-5.2-5.2,1.5-1.62c3.17,3.52,7.46,4.68,11.79,6.1,5.78,1.91,11.64,2,17.91,2.53l-1.81.6A45.13,45.13,0,0,1,723.15,221.83Z"/><path d="M824.82,111c3.54.07,5,2.57,5.89,4.48,1.53,3.32,3.5,6.43,4.54,10.09,1.17,4.11.55,8.07.55,12.08,0,1.45-.86,2.9-1.8,4.38,0-1.94-.14-3.89,0-5.81.46-5.57-1.51-10.55-3.82-15.38-1.14-2.38-3.06-4.37-4.47-6.63A13.23,13.23,0,0,1,824.82,111Z"/><path d="M763.07,155c.35,1.93.78,4.25,1.23,6.75a15.69,15.69,0,0,1,2.6,8.63c.32,6.12.11,12.28.08,18.42,0,.41-.25.81-1,1.2,0-2.6-.07-5.21,0-7.8.18-5.31-1.28-10.31-2.67-15.34a5.09,5.09,0,0,1-.32-1.35c.08-6.81-3.47-11.93-7.74-16.72a3.55,3.55,0,0,1-.32-.56h2.61Z"/><path d="M906,106l-3.06-3.82c.14-.37.31-.79.61-1.54a17.79,17.79,0,0,0,2.38,1.74,19.72,19.72,0,0,0,3,1l5.53,5.53h3.43l6.15,6.14-.53,1.15c-2.24-.77-3.21-2.87-4.93-4.07-2.83,2-5.67.46-8.53-.13l-1-2.69,2.9.53C910,108.27,908.54,106.17,906,106Z"/><path d="M288.79,135.42c1.21.74,1.14,1,1.22,1.06,1.95,1.77,8.14,4.3,11,4.52v1.5l5.17,1.91-.53,1.6c-4.07-1.7-8-3.37-12-5-1.7-.71-3.66-1-5.1-2.1a52.1,52.1,0,0,1-5.44-5.31v-4.33a2.27,2.27,0,0,1,.75.1c2.75,1.74,5.48,3.5,8.13,5.2.19,1.88-1.08,1.36-3.19.85-.53.19-.33.57-.19.55a8.09,8.09,0,0,0,1.4-.44C289.4,135.36,288.79,135.19,288.79,135.42Z"/><path d="M770,185.46c0,3.33-.12,6.33,0,9.31.36,7.7-.52,15.32-1.27,23.07L767,218a7.31,7.31,0,0,1,0-1.94c1.83-5.77.65-11.71,1-17.56.08-1.41-.46-2.9.93-4.15.41-.37,0-1.6.07-2.42.15-2-2.21-3.81-.56-5.89,1.4-1.75-.11-4,1.4-6,.86-1.11.24-3.37.69-5.09C770.08,178.46,774.57,182.08,770,185.46Z"/><path d="M1061.89,111.81h-3.51c-.21-.47-.54-1.15-.88-1.88l-8,2.55.12.54h-5.43c-.12.61-.22,1.07-.39,1.87l-2.54.13c-.18-.72-.29-1.18-.4-1.63-4.34.2-6.86,4.1-10.66,5.42,2.6-3.29,5.41-6.23,9.65-7.19a10.9,10.9,0,0,1,2.75-.58,33.28,33.28,0,0,0,10.76-1.76C1056.29,108.44,1059.62,108.32,1061.89,111.81Z"/><path d="M817.88,190.2a5.21,5.21,0,0,1,.12,1.61c-2.68-1.08-5.22-2.25-7.86-3.12s-5.38-1.45-8.21-2.19c2.14-1.7,4-4,6.82-1.43,1.57-.54,2.63-1.81,4.51-.46,2.71,1.95,5.84,3.33,9.28,5.22-.87.52-1.45,1.15-2,1.1-.89-.08-1.73-.58-2.7-.73-.46-1.31-.89-2.65-3.21-1.82A18.22,18.22,0,0,0,817.88,190.2Z"/><path d="M826.26,123.13a29.76,29.76,0,0,1-2.89-4.34,10.2,10.2,0,0,0-4.44-4.8c-3.88-2.28-7.19-5.47-11.49-7.13-1-.38-1.72-1.47-2.62-2.28,3.21-2,5.45.56,7.6,1.58a30.9,30.9,0,0,1,8.34,6.25c2.41,2.45,4.22,5.5,6.2,8.36.3.43,0,1.25,0,1.89Z"/><path d="M1033.1,110.7v-3.17l4-3.42c4.41.08,9.19-1.57,13.76-3.59,2.06-.91,3.9.18,5.22-.55l8,4.12a30.87,30.87,0,0,1-4.85-.46c-1.17-.33-2.17-1.31-3.34-1.57a20.46,20.46,0,0,0-4.17-.06c-2.18,2.27-5.52,1.78-8.29,3a19,19,0,0,1-5.73,1.77C1034.82,107,1033.66,108.31,1033.1,110.7Z"/><path d="M794,193c1.17-1.77,3.68-.95,5.3-3.05l-4.11.57c0-.05-.12-.59-.28-1.34h5l1.5,1.82h9.14a9.81,9.81,0,0,1,6,2.13,7.28,7.28,0,0,0,2.6,1c.76.26,1.26,1.25,1.88,1.92-3.48.69-6.24-1.95-9.55-2.05-.9-1.44-2.34-.92-3.58-.93C803.25,193,798.62,193,794,193Z"/><path d="M716,193c.52-.35,1.26-.58,1.51-1.07a10.53,10.53,0,0,1,5.21-5.25c1.12-.5,1.89-1.79,2.91-2.81,3.36,1.34,5.81-3.43,9.71-1.27-3.79,2.25-8.36,2.76-10.82,6.46h-2.11A23.62,23.62,0,0,1,721,192c-.52.78-1.4,1.32-2,2.09-1,1.45-1.81,3.14-4,2.91v-2C716.5,194.91,715.85,193.76,716,193Z"/><path d="M740.13,152l-.17-1.71c2.49-.7,5.1,0,8.15-.49l1.28-1.8c1.71,0,5.61,4.12,12,12.41a12.86,12.86,0,0,1-2.58-1.18,42.55,42.55,0,0,1-3.17-3.13c-2.64-2.83-6-3.88-9.73-4.08C744.07,151.92,742.26,152,740.13,152Z"/><path d="M805.49,179.46c2.52-.91,4.59.18,6.29-1.38.51-.47,2-.29,2.83.11,2.9,1.5,5.68,3.22,8.26,4.72v3.35Zm12.93,2.69c-.68-.76-.88-1.14-1-1.12a8.09,8.09,0,0,0-1.4.44c.6.17,1.21.34-.15-.59-1.16-.93-1.16-.93-2.82,0C814.15,180.88,815.08,180.88,818.42,182.15Z"/><path d="M777.54,114l1.53,1.53c-.48.16-1.13.52-1.24.4-1.17-1.29-2.68-1-4.1-1-3.82,0-7.63,0-11.45,0a19.77,19.77,0,0,1-3.42-.73c-4.58.89-9.48,2.24-14.65,1.37,3.58-.61,7.11-1.38,10.76-1.82s7.38-.49,11-.86C770,112.53,773.66,114.17,777.54,114Z"/><path d="M1104.42,120h-5.08c-3.67-5.34-10.36-4.57-15.77-7.65,5.17-.83,9.41.06,13.31,3a35.29,35.29,0,0,0,5.17,2.74l4.58-1.21.33.59-3,1.45C1104.13,119.24,1104.27,119.61,1104.42,120Z"/><path d="M1079.56,103.88l4.13-3.84c4.67,2.86,8.48-1.8,13.41-1.44l1.14,1.14c2.68-1.42,5.62-.48,8.64-.12-.62.13-1.29.48-1.83.34-2.36-.63-4.29,1.14-6.55,1.06a46.26,46.26,0,0,0-6.45,0,14.22,14.22,0,0,0-3.91,1.32C1084.37,104,1084.38,104,1079.56,103.88Z"/><path d="M754,78c.82,0,1.86-.33,2.43,0,6.23,4.06,13.74,6.2,18.58,12.39A3.21,3.21,0,0,1,776,93c-5.42-4.09-10.74-8.27-17-11.11C757.18,81.07,754.9,80.24,754,78Z"/><path d="M941,207c0-1.88,1-3.25,2.12-4.59s2.14-2.39,3.4-3.77c.37,1,.59,1.6,1,2.71L949,199l-.77-1.56,3.11-5.13L954,194.8a3.41,3.41,0,0,1-.44,1.07c-1.72,2.12-3.54,4.16-5.22,6.31-.34.44-.26,1.2-.38,1.82h-1v-2.17Z"/><path d="M876.69,200.57c1.39,3.71-1.24,6.1-1.93,9-.8,3.35-2.89,6.38-4.58,9.88l-4.34,2A170.87,170.87,0,0,0,876.69,200.57Z"/><path d="M979.12,159.38c-.71,1.82-1.48,3.61-2.1,5.46s-1.68,3.59-2.22,5.61-2.67,3.8-4.59,6.33v-5.06c1.44-2.25,2.91-4.48,4.31-6.76C975.77,162.93,976.88,160.82,979.12,159.38Z"/><path d="M1087,205c0,2.14.63,4.54-.12,6.38-2.37,5.79-3,12.23-6.4,17.61,0,.08-.32,0-.48,0-.12-1.92-.27-4.14,1.1-5.42,1.66-1.56-.14-4,1.9-5.2-.45-3.12,1.51-5.67,2.18-8.53a35.8,35.8,0,0,0,.86-4.07C1086.08,205.49,1086.67,205.26,1087,205Z"/><path d="M943.32,90.83l-1.2-1.22V83.13h3.22L950.23,87H946v3.87Z"/><path d="M744.1,178.82V173l3.15-1.4,2.73,3.27c-.07,1.14.45,2.74-1.41,3.91Z"/><path d="M641.9,88.58c.4-.73.63-1.78,1.25-2.13a16.32,16.32,0,0,1,5.47-2.34,34.94,34.94,0,0,0,6.74-1.83c1.6-.54,3.53-.11,5.38.09-2.94.78-5.49,2.8-8.71,2.61-2.23-.13-3.62,1.68-5.6,2.18a18.4,18.4,0,0,0-3.95,2.06Z"/><path d="M924.28,121.86c.84.21,1.34.21,1.41.37,1.47,3.52,3,7,4.23,10.6.48,1.47.08,3.22-.51,5-.67-1.65-1.33-3.3-2-4.95a37.76,37.76,0,0,1-2-5.08C925,126,923.44,124.23,924.28,121.86Z"/><path d="M792,174.5v2.94l-2.85,4.12-2-1.94v-5.71l3.19-1.12Z"/><path d="M1049.32,104c3-.07,6.5-.34,9.55,1.44.85.5,1,0,1.46-.24,1.57-.68,2.76-.07,3.88,1.84-3.1-.54-6,1.06-8.69-1-2.34.43-4.89-1-7.12.92-.44.39-1.51.06-3.18.06Z"/><path d="M928,221c.23-.4.49-.79.7-1.21a9.21,9.21,0,0,0,.34-1c-.28-.43-.6-.92-.9-1.36l1.34-1.46,1,1.05,6.47-5a4.81,4.81,0,0,1-.35,1.8c-1.93,2.81-3.94,5.57-5.69,8Z"/><path d="M928.48,112.09l-.85,2L921.55,108l.64-1c-1-1.11-2.06-2.31-3.26-3.66,2.05-.77,3.09,1.07,4.88,1.56.09,1.19.18,2.28.31,3.88Z"/><path d="M945.72,122.65c.49,4.12,1,7.46,1.24,10.81a69.28,69.28,0,0,1-.29,10.38c-1-3.08.21-6.52-.86-9.31-1.17-3.08.41-6.52-2.35-9.09Z"/><path d="M918,200c-.44-1.64,1.19-2.18,1.69-3.28,1.57-3.39,4.49-6,5.7-9.56.16-.48.77-.81,1.81-.7-1.27,2.55-2.64,5-3.76,7.66-.54,1.26-1.8,2.29-1.44,3.88Z"/><path d="M749.07,231.43l-1.47,1.47c-4.9.13-9.74.54-14.28,2.92-.08-.22-.24-.65-.47-1.25,1.83-.88,3.63-2.49,5.35-2.41C741.86,232.34,745.31,229.76,749.07,231.43Z"/><path d="M931.71,123.63l-2.47-3.78c-.16,1.12-.3,2-.44,3-.31-.13-.67-.16-.74-.32-.74-1.66-1.43-3.34-2.17-5.12l1.53-.54c.35.72.66,1.37,1.18,2.47.28-1.35.47-2.32.71-3.48C931.53,117.8,932.36,120,931.71,123.63Z"/><path d="M920,226l1-1,3-2.43,4-1.57v2l-3.82,3.06h-1.84c-.23.62-.45,1.19-.69,1.85H920Z"/><path d="M808.48,158.61l-12.38,1.51v-1.75c1.38-.35,2.7-.76,4.06-1a12.43,12.43,0,0,1,3.78-.31A27.46,27.46,0,0,1,808.48,158.61Z"/><path d="M948.73,77.83h-3c.41-1,.7-1.63,1.15-2.67l-3.07-2.48,1.55-1.55,6.17,4.52-3.33.56Z"/><path d="M1064.24,140.74c-.5-5.46-.48-10.12,1.55-14.62C1065.82,130.78,1066.68,135.51,1064.24,140.74Z"/><path d="M960.13,190.05c-2-.65-2.49,1.29-4.1,2,0-4.43,3.38-7.32,4.42-12.13,1.08,3.72-.51,5.79-1.49,8.11C959.31,188.63,959.69,189.29,960.13,190.05Z"/><path d="M921,207.53l-1.1-1.19L926,203.1a5.93,5.93,0,0,1-.62,2c-1.86,2.38-3.83,4.68-5.87,7.14C917.94,209.75,921.62,209.38,921,207.53Z"/><path d="M1077,100c1.37-2.42,2-5.34,4.09-6.6l2.18,1.31L1081,98v1l-1,1h-3Z"/><path d="M751.07,201.88l-9.87-6.6c1.68-.84,3.25-.17,4.8.72A12.72,12.72,0,0,1,751.07,201.88Z"/><path d="M1077.09,130.64c-2.38-3.44-4.85-7-3.84-11.79l1.2,1.1C1075.4,123.78,1076.24,127.21,1077.09,130.64Z"/><path d="M222.09,163.1c0-.79-.14-1.58,0-1.64a48.31,48.31,0,0,1,6.47-2.37c.69-.17,1.64.73,3.24,1.51Z"/><path d="M932,99.5l2.5-2.5,4.44,5.75C935.79,103.4,933.91,101.44,932,99.5Z"/><path d="M794.84,192.84c-3.16,2.43-5.82,2.24-8.58,2.11,2-2.58,2-2.58,5.79-4.22-.42,1-.64,1.46-.94,2.11Z"/><path d="M1084,118.12c3.63.27,7.26,2.47,7.85,4.65-.85-.27-1.66-.5-2.45-.77a31.83,31.83,0,0,1-3-1.13,26.1,26.1,0,0,1-2.4-1.38Z"/><path d="M922,198c1.19-1.31,2.39-2.61,3.58-3.93-.06,2.58-1.31,5-4,7.85-1.14-.4-2.81,1.2-3.58-.92l4-1.31Z"/><path d="M920.19,122a39.94,39.94,0,0,0-1.27-5.46c-.28-.78-1.4-1.25-2.3-2,2.7-1.56,2.73,1.52,4,1.47.52,2.38,1,4.45,1.54,6.94Z"/><path d="M765.49,208.17c1.12,4.05.08,7.87-1,12.43C763.17,215.85,764.69,212,765.49,208.17Z"/><path d="M738.29,117.38l-8,3.92C730.73,117.53,732.24,116.83,738.29,117.38Z"/><path d="M952,146.63,953.39,133C954,137.73,954.61,142.46,952,146.63Z"/><path d="M586.46,126.2l-1.63-2.66c3.29,2.3,5.21-1.51,7.88-1.58C590.63,124.94,590.63,124.94,586.46,126.2Z"/><path d="M936.77,96.74l1.44-1.45c2.3.89,5.3.9,5.88,4.68Z"/><path d="M1073.14,102c-.07-1.09-.13-2.18-.21-3.49L1070.66,96l1.67-1.84c.89,1.2,1.76,2.39,2.85,3.88l-1.5,4Z"/><path d="M926.81,191.59l3.54-8.74,1.55,1.55C930.17,186.74,929.77,189.91,926.81,191.59Z"/><path d="M935.81,133.9c-.54,0-1,.22-1.16.07-.89-.73-1.71-1.54-2.53-2.3v-3.8c.75.23,1.62.26,1.77.6C934.62,130.21,935.17,132,935.81,133.9Z"/><path d="M1108.12,109.53c-3.85,1.77-7.23-1.32-10.88-.61C1100.23,107.66,1100.23,107.66,1108.12,109.53Z"/><path d="M953.82,72.17c-1.73-1.76-4.11-2.4-4.72-5.41l4.72,2.15Z"/><path d="M626.15,73.65a11.2,11.2,0,0,1,6.53-2.47C630.44,73.77,630,74,626.15,73.65Z"/><path d="M819,177.14l-4.82-1.5-2.15-2.2c.41-.16.8-.47,1.13-.41C815.64,173.5,817.41,175.13,819,177.14Z"/><path d="M599.77,116.06h2.79c.44.44.44.44-1.91,2.79H597.5Z"/><path d="M1079,100h1c.46,2.08-1.53,2.66-2.39,3.9l-3-1.77L1077,100v2.74Z"/><path d="M957.72,155.46c1.11,3.67-1.21,5.84-2.33,9.26C954.83,160.79,956.54,158.43,957.72,155.46Z"/><path d="M949.25,144.64V135l.5,0v10Z"/><path d="M665.68,81.65c4.06-1.89,4.06-1.89,8.35-.94C671.27,80.29,668.88,82.85,665.68,81.65Z"/><path d="M1066.36,112.28l-2.82,5.72c-1.46-1.5-.14-2.62.57-4.06l-1.13-1.66Z"/><path d="M1047.38,137.92c1.59,2.11,2.55,3.37,3.48,4.62C1047.53,143,1047.16,142.68,1047.38,137.92Z"/><path d="M1082.93,126.09v4.41l-3.09-5,.53-.62Z"/><path d="M1068,228c0-.95,0-1.9,0-2.85-.1-1.57.36-2.73,2-3.15C1070,224.21,1070.39,226.58,1068,228Z"/><path d="M788,158l2.39-3H793l-2.39,3Z"/><path d="M1088.81,107.84h-6.34c1.21-.87,1.92-1.81,2.53-1.75a19.54,19.54,0,0,1,4,1.23C1088.92,107.5,1088.86,107.67,1088.81,107.84Z"/><path d="M779,98l-1.8-1.3-1.2-.84V93l1.8,1.3,1.2.84Z"/><path d="M955,148v4.52l-1.43,1.36C952.27,153.34,952.83,151,955,148Z"/><path d="M782.39,102l2.91,4.45-1.85.74C783.09,105.46,781.2,104.28,782.39,102Z"/><path d="M965.6,182.7c1-1.82,1.81-3.31,2.79-5.11C969,181,969,181,965.6,182.7Z"/><path d="M940.22,137.44V131.2l1.91,5.36Z"/><path d="M736.06,158.56l2.47-2.59,2.23.1c-.06.35,0,.71-.16.79-1.3.83-2.64,1.6-4,2.4Z"/><path d="M1088,94l-3.32,4H1083C1084.3,96.21,1085.27,94,1088,94Z"/><path d="M909,214v2l-4.16,3.25C905.39,216.35,907.18,215.16,909,214Z"/><path d="M957.61,174.07l-1.91-.35c2.11-1.08.37-3.91,3-4.52C959.84,171.08,958.06,172.31,957.61,174.07Z"/><path d="M923.77,101.06c2.5-.2,3,1.6,4.28,2.47C925.27,103.9,925.27,103.9,923.77,101.06Z"/><path d="M970.83,130.15v7.76c-.37-.19-.8-.3-.8-.41,0-2.44,0-4.87,0-7.31Z"/><path d="M1057,116.88l-5,2.57C1054.2,116.26,1054.2,116.26,1057,116.88Z"/><path d="M782.76,93.86c.8,1.56,1.61,3.12,2.51,4.89L782,95.65V94Z"/><path d="M944.33,151.3l-2.59,4.81-.69-.24c.43-1.63.85-3.27,1.3-5Z"/><path d="M937,212c0-2.73,2.21-3.7,4-5C941,209.73,938.79,210.7,937,212Z"/><path d="M223.52,158.5,221,160.16l-2-1.64C220.5,157.8,222,157.43,223.52,158.5Z"/><path d="M958,139.85v-6.68l.77-.06c.08,1.12.18,2.24.22,3.37s0,2.22,0,3.33Z"/><path d="M191.09,166.84v-1.59c1.7-.6,3-.31,3.86,1.59Z"/><path d="M937.12,163.81V157C938.37,160.17,938.31,161.82,937.12,163.81Z"/><path d="M222.13,184.33c-3-1.6-3-1.6-2.67-4.29Z"/><path d="M940.23,57.09c3-.21,3.57,1.55,5.21,2.66C942.69,60.36,942.3,58.3,940.23,57.09Z"/><path d="M940,195c.08,1.71.21,3.44-2,4C937.92,197.29,937.79,195.56,940,195Z"/><path d="M788,138c-2,2.36-2,2.36-3.75,2.75C786.12,138.53,786.12,138.53,788,138Z"/><path d="M966.12,152.81V147C967.35,150.11,967.32,150.82,966.12,152.81Z"/><path d="M1034.09,232.83v-1.66H1037C1037.07,234,1035.32,232.74,1034.09,232.83Z"/><path d="M604.08,241.44l-1.12.75-3.21-2.86c.76-.15,1.37-.47,1.62-.29A33.72,33.72,0,0,1,604.08,241.44Z"/><path d="M926.12,168.81V163C927.35,166.11,927.32,166.82,926.12,168.81Z"/><path d="M941.09,202.77c-.21-3,1.55-3.57,2.66-5.21C944.36,200.31,942.3,200.7,941.09,202.77Z"/><path d="M790.77,146l1.75,3.25a18.58,18.58,0,0,0-2.59-1.2,14.35,14.35,0,0,0-2.62,0Z"/><path d="M925.83,142.36a23.83,23.83,0,0,1-1.81-2c-.15-.21,0-.62,0-1.17l1.83-.27Z"/><path d="M961.84,110.17V116C960.56,113.35,961.3,111.74,961.84,110.17Z"/><path d="M766.16,205.83V200C767.44,202.65,766.7,204.26,766.16,205.83Z"/><path d="M1095.8,91.33c.87-2.17,2.09-2.81,4.46-1.88Z"/><path d="M943.66,61.89l3,3.1C944.87,65.1,944.32,63.93,943.66,61.89Z"/><path d="M641.15,67.35l3.63-1.1c.05.27.15.82.3,1.59h-3.89Z"/><path d="M345.59,229.12h3.55l-.73,2.48Z"/><path d="M1055.36,114.92h-3a5,5,0,0,1,2.2-2.07Z"/><path d="M626.35,228.48l2.09,2.09C626.56,230.73,626.56,230.72,626.35,228.48Z"/><path d="M965,158a37,37,0,0,1,0-3.8c0-.43.62-.8,1-1.2a37,37,0,0,1,0,3.8C965.91,157.23,965.33,157.6,965,158Z"/><path d="M969.17,124.83v-3.65l.62,0,.24,3.64Z"/><path d="M798.75,154.62c-.33,1.49-.76,2.83-3.08,2Z"/><path d="M926.85,201.49c.48-.87,1-1.73,1.51-2.69C929.91,200.58,928.12,201.09,926.85,201.49Z"/><path d="M928.12,172.25v-4.09a4.56,4.56,0,0,1,.77.26C928.71,169.64,929.72,171.17,928.12,172.25Z"/><path d="M878.38,215.25l-2,3.08C875.55,216,876.89,215.58,878.38,215.25Z"/><path d="M1034.33,123.3l-3,2.21C1032.1,123.42,1032.1,123.42,1034.33,123.3Z"/><path d="M782.38,93.75c-1.49-.33-2.83-.76-2-3.08Z"/><ellipse cx="942.5" cy="140" rx="0.35" ry="2.83"/><path d="M1045.62,137.75l2-3.08C1048.45,137,1047.11,137.42,1045.62,137.75Z"/><path d="M739.19,116.17h3.66l0,.61-3.7.26C739.19,116.75,739.19,116.46,739.19,116.17Z"/><path d="M866,227a2.46,2.46,0,0,1-2,3A2.46,2.46,0,0,1,866,227Z"/><path d="M679.82,79.83h-3.65l0-.62L679.8,79Z"/><path d="M912.62,207.75l2-3.08C915.45,207,914.11,207.42,912.62,207.75Z"/><path d="M911,211a2.46,2.46,0,0,1-2,3A2.46,2.46,0,0,1,911,211Z"/><ellipse cx="927.5" cy="145" rx="0.35" ry="2.83"/><path d="M793,151a2.46,2.46,0,0,1-3,2A2.46,2.46,0,0,1,793,151Z"/><path d="M1032.16,112.53l-1.54,2.67C1029.14,113.41,1030.85,112.89,1032.16,112.53Z"/><path d="M912.62,212.75l2-3.08C915.45,212,914.11,212.42,912.62,212.75Z"/><path d="M929.83,162.17v3.65l-.62,0-.24-3.64Z"/><path d="M945.74,111v3.92h-.45V111Z"/><path d="M928,210.59c.84-.78,1.23-2.24,3-1.18C930.15,210.19,929.76,211.65,928,210.59Z"/><path d="M936.15,208.51c-.48.87-1,1.73-1.51,2.69C933.09,209.42,934.88,208.91,936.15,208.51Z"/><path d="M913,208a2.46,2.46,0,0,1-2,3A2.46,2.46,0,0,1,913,208Z"/><path d="M191.26,169h1.45l.37,1.75-1.82.37Z"/><path d="M778.62,98.25c1.49.33,2.83.76,2,3.08Z"/><path d="M1071.84,98.22v3.69h-1.74C1070.6,100.86,1071,100,1071.84,98.22Z"/><path d="M1032.47,128.71l2.21-3C1034.59,127.86,1034.59,127.86,1032.47,128.71Z"/><path d="M931.84,148.17v2.66l-.53,0c-.12-.88-.24-1.76-.37-2.64Z"/><path d="M1038,129l-2,2v-2Z"/><path d="M942.12,190.85V188C943.05,189.69,943.05,189.69,942.12,190.85Z"/><path d="M610,80c.47-1.93,2-.62,3-1C612.53,80.93,611,79.62,610,80Z"/><path d="M935.2,110c-.05-1-.09-2-.14-2.92l.67-.06.38,2.92Z"/><path d="M944.2,111c-.05-1-.09-2-.14-2.92l.67-.06c.13,1,.25,1.95.38,2.92Z"/><path d="M1065.88,225.15V228C1065,226.31,1065,226.31,1065.88,225.15Z"/><path d="M1058.12,133.85V131C1059.05,132.69,1059.05,132.69,1058.12,133.85Z"/><path d="M1067,231c.38-1-.93-2.53,1-3C1067.62,229,1068.93,230.53,1067,231Z"/><path d="M1037.5,128.5l2.36-1.52c0,.67.08,1.21.12,1.91l-2,.14Z"/><path d="M996,221c-1.93-.47-.62-2-1-3h1Z"/><ellipse cx="928.5" cy="176.5" rx="0.35" ry="2.12"/><path d="M1078.63,115.71l-1.16-2.33C1078.79,113.06,1078.79,113.06,1078.63,115.71Z"/><path d="M936.88,164.15V167C936,165.31,936,165.31,936.88,164.15Z"/><path d="M1087.5,93.5l2.36-1.52c0,.67.08,1.21.12,1.91l-2,.14Z"/><path d="M1041.71,121.37l-2.33,1.16C1039.06,121.21,1039.06,121.21,1041.71,121.37Z"/><path d="M607,81c.47-1.93,2-.62,3-1C609.53,81.93,608,80.62,607,81Z"/><path d="M1067.12,221.85V219C1068.05,220.69,1068.05,220.69,1067.12,221.85Z"/><path d="M925.88,169.15V172C925,170.31,925,170.31,925.88,169.15Z"/><path d="M719,138c-.38,1,.93,2.53-1,3C718.38,140,717.07,138.47,719,138Z"/><path d="M1066,225c.38-1-.93-2.53,1-3C1066.62,223,1067.93,224.53,1066,225Z"/><path d="M1057,137c.38-1-.93-2.53,1-3C1057.62,135,1058.93,136.53,1057,137Z"/><path d="M942.8,117c.05,1,.09,2,.14,2.92l-.67.06-.38-2.92Z"/><path d="M964.88,158.15V161C964,159.31,964,159.31,964.88,158.15Z"/><path d="M873.34,220.6l1.35-1.1C874.8,220.91,874.8,220.91,873.34,220.6Z"/><path d="M1035.29,124.63l2.33-1.16C1037.94,124.79,1037.94,124.79,1035.29,124.63Z"/><path d="M936.85,201.42l.68-2.42a8.09,8.09,0,0,1,.44,1.4C938,200.54,937.61,200.74,936.85,201.42Z"/><path d="M878.17,198.53c-.36,1.26-.53,1.87-.7,2.47a8.09,8.09,0,0,1-.44-1.4C877,199.45,877.38,199.25,878.17,198.53Z"/><path d="M823.42,197.15l-2.42-.68a8.09,8.09,0,0,1,1.4-.44C822.54,196,822.74,196.39,823.42,197.15Z"/><path d="M931.17,196.84v-1.66l.48-.07.39,1.63Z"/><path d="M938.17,205.82v-1.66l.49-.07c.13.56.25,1.13.37,1.69Z"/><path d="M946.83,194.16v1.66l-.48.07-.39-1.63Z"/><path d="M722,194.78l-1.91.16-.09-.65,2-.38Z"/><path d="M940,195c.15-.76-.5-1.91,1-2C940.85,193.76,941.5,194.91,940,195Z"/><path d="M941,193c.15-.76-.5-1.91,1-2C941.85,191.76,942.5,192.91,941,193Z"/><path d="M933.83,189.47c.36-1.26.53-1.87.7-2.47a8.09,8.09,0,0,1,.44,1.4C935,188.55,934.62,188.75,933.83,189.47Z"/><path d="M943.17,186.84v-1.66l.48-.07.39,1.63Z"/><path d="M936.15,184.58l-.68,2.42a8.09,8.09,0,0,1-.44-1.4C935,185.46,935.39,185.26,936.15,184.58Z"/><path d="M735,184.22l1.91-.16.09.65-2,.38Z"/><path d="M926.17,184.82v-1.66l.49-.07c.13.56.25,1.13.37,1.69Z"/><path d="M211.18,183.17h1.66l.07.49-1.67.37Z"/><ellipse cx="947.5" cy="183" rx="0.35" ry="1.41"/><path d="M827,209.22l1.91-.16.09.65-2,.38Z"/><ellipse cx="936.5" cy="183" rx="0.35" ry="1.41"/><path d="M821.47,178.17l-2.47-.7a8.09,8.09,0,0,1,1.4-.44C820.55,177,820.75,177.38,821.47,178.17Z"/><path d="M940.17,174.84v-1.66l.48-.07.39,1.63Z"/><path d="M926.85,174.42l.68-2.42a8.09,8.09,0,0,1,.44,1.4C928,173.54,927.61,173.74,926.85,174.42Z"/><path d="M879.15,212.58l-.68,2.42a8.09,8.09,0,0,1-.44-1.4C878,213.46,878.39,213.26,879.15,212.58Z"/><ellipse cx="931.5" cy="214" rx="0.35" ry="1.41"/><path d="M771.83,168.18v1.66l-.49.07-.37-1.69Z"/><path d="M971.85,165.42l.68-2.42a8.09,8.09,0,0,1,.44,1.4C973,164.54,972.61,164.74,971.85,165.42Z"/><path d="M216.17,156.82v-1.66l.49-.07.37,1.67Z"/><path d="M915.17,217.53c-.36,1.26-.53,1.87-.7,2.47a8.09,8.09,0,0,1-.44-1.4C914,218.45,914.38,218.25,915.17,217.53Z"/><path d="M959.15,153.58l-.68,2.42a8.09,8.09,0,0,1-.44-1.4C958,154.46,958.39,154.26,959.15,153.58Z"/><path d="M799,154.22l1.91-.16.09.65-2,.38Z"/><path d="M793,154.22l1.91-.16.09.65-2,.38Z"/><path d="M937.83,153.16v1.66l-.48.07-.39-1.63Z"/><path d="M1071.17,219.53c-.36,1.26-.53,1.87-.7,2.47a8.09,8.09,0,0,1-.44-1.4C1070,220.45,1070.38,220.25,1071.17,219.53Z"/><ellipse cx="932.5" cy="153" rx="0.35" ry="1.41"/><path d="M793,150.22l1.91-.16.09.65-2,.38Z"/><path d="M956.17,145.53c-.36,1.26-.53,1.87-.7,2.47a8.09,8.09,0,0,1-.44-1.4C955,146.45,955.38,146.25,956.17,145.53Z"/><path d="M783.84,138.83h-1.66l-.07-.48,1.63-.39Z"/><path d="M788,137.22l1.91-.16.09.65-2,.38Z"/><path d="M720.15,135.58l-.68,2.42a8.09,8.09,0,0,1-.44-1.4C719,136.46,719.39,136.26,720.15,135.58Z"/><path d="M782,135.22l1.91-.16.09.65-2,.38Z"/><path d="M1050.83,130.18v1.66l-.49.07c-.13-.56-.25-1.13-.37-1.69Z"/><path d="M867.15,224.58l-.68,2.42a8.09,8.09,0,0,1-.44-1.4C866,225.46,866.39,225.26,867.15,224.58Z"/><path d="M1035.18,121.17h1.66c0,.16.05.33.07.49l-1.67.37Z"/><path d="M1032.84,121.83h-1.66l-.07-.48,1.63-.39Z"/><path d="M1050.82,115.83h-1.66c0-.16-.05-.33-.07-.49l1.67-.37Z"/><path d="M941.22,117l-.16-1.91.65-.09.38,2Z"/><ellipse cx="937.5" cy="116" rx="0.35" ry="1.41"/><path d="M936.78,110l.16,1.91-.65.09-.38-2Z"/><path d="M960.17,107.84v-1.66l.48-.07.39,1.63Z"/><path d="M1064.17,230.84v-1.66l.48-.07.39,1.63Z"/><path d="M1078.83,231.47c.36-1.26.53-1.87.7-2.47a8.09,8.09,0,0,1,.44,1.4C1080,230.55,1079.62,230.75,1078.83,231.47Z"/><path d="M1042.18,99.17h1.66c0,.16.05.33.07.49l-1.67.37Z"/><path d="M1086.16,98.17h1.66l.07.48-1.63.39Z"/><path d="M1081,99V98h2C1082.91,99.5,1081.76,98.85,1081,99Z"/><path d="M1047,97.78l-1.91.16-.09-.65,2-.38C1047,97.2,1047,97.49,1047,97.78Z"/><path d="M1065.85,233.42l.68-2.42a8.09,8.09,0,0,1,.44,1.4C1067,232.54,1066.61,232.74,1065.85,233.42Z"/><path d="M1047,96.22l1.91-.16.09.65-2,.38C1047,96.8,1047,96.51,1047,96.22Z"/><path d="M926.83,95.16v1.66l-.48.07L926,95.26Z"/><path d="M1096,91.78l-1.91.16-.09-.65,2-.38C1096,91.2,1096,91.49,1096,91.78Z"/><path d="M1085.16,89.17h1.66l.07.48-1.63.39Z"/><ellipse cx="906.5" cy="87" rx="0.35" ry="1.41"/><ellipse cx="663" cy="81.5" rx="1.41" ry="0.35"/><path d="M884.78,78l.16,1.91-.65.09-.38-2Z"/><path d="M613,78.22l1.91-.16.09.65-2,.38Z"/><path d="M883.22,78l-.16-1.91.65-.09c.12.65.25,1.3.38,2Z"/><path d="M324,227.5c0-.83-.14-1.28,0-1.47q5.39-6.22,10.85-12.36a9.16,9.16,0,0,1,2.06-1.12c-.92,3.86-3.71,5.57-5.79,7.78C328.91,222.7,326.55,225,324,227.5Z"/><path d="M324.55,234.33c3.61-4.83,8.67-6.53,12.49-10.07a6,6,0,0,1-.73,1.88,31.05,31.05,0,0,1-9.37,7.4A21.32,21.32,0,0,1,324.55,234.33Z"/><path d="M314.83,230.19v3.66l-.61,0-.26-3.7Z"/><path d="M280,201.94a8.49,8.49,0,0,1-3-7.31l3,2.87Z"/><path d="M280.3,226.24l-1.71,1.61c-.17-.12-.53-.23-.57-.42-.39-1.72-.72-3.46-1.08-5.2l1.64-.29Z"/><path d="M300.88,232h-1.65c-.45-2.28-.17-4.58-.19-7.36l1.84,1.71Z"/><path d="M269.13,189.48v-6.25l.52-.39.51,1.85.69-.53v4.75l2.42,1.58C271.27,191.46,270,191,269.13,189.48Z"/><path d="M952,239v-3.58l2.37-1.89c1.1,3.2,2.27,5.92,1.37,9.23l-1.49,1.49c-.14-1.47-.25-2.66-.36-3.86l-.5.51-.9-2.39Z"/><path d="M959.48,234.91c1.89,2.78-1.29,4.67-.55,7-2,.37-2.23-.66-1.88-1.64C957.7,238.46,958.63,236.75,959.48,234.91Z"/><path d="M933,244c-2.13-.63-2.15-2.75-3.39-4.6L932,239C932.33,240.67,932.67,242.33,933,244Z"/><path d="M931.57,238.76c.52-.91.87-1.42,1.12-2s.42-1.15,1-2.91c.15,2.68.24,4.18.34,6Z"/><path d="M936.84,216.47l1.54-2.67C939.86,215.59,938.15,216.11,936.84,216.47Z"/><ellipse cx="941.5" cy="211" rx="0.35" ry="1.41"/><path d="M906.15,227.51c-.48.87-1,1.73-1.51,2.69C903.09,228.42,904.88,227.91,906.15,227.51Z"/><path d="M300.52,108.88l-3.56-3.4C300.55,105,301,105.5,300.52,108.88Z"/></svg>